<svg width="912" height="767" viewBox="0 0 912 767" fill="none" xmlns="http://www.w3.org/2000/svg">
<path d="M755.345 37.3838C741.5 159.221 772.582 279.786 782.476 400.557C785.312 434.793 786.134 468.958 783.917 503.491C782.883 518.626 808.067 519.507 809.101 504.372C816.902 382.323 783.789 262.161 777.453 140.566C775.624 106.366 776.314 72.2539 780.025 38.2475C780.744 32.1091 774.395 26.1976 767.848 25.9685C761.3 25.7393 756.081 30.772 755.345 37.3838Z" fill="black"/>
<path d="M876.767 372.091C865.073 389.224 853.883 406.375 846.152 425.543C839.544 441.432 834.431 457.847 827.32 473.718C824.033 481.189 820.259 488.168 815.477 495.113C813.363 497.883 811.232 501.128 808.614 503.881C807.574 504.793 798.763 511.596 798.746 512.069C798.796 510.649 801.702 514.069 800.274 511.649C799.316 510.193 797.351 508.702 796.394 507.246C793.017 502.861 789.64 498.476 785.76 494.073C778.52 484.811 771.279 475.55 764.039 466.288C748.114 445.818 731.701 424.857 715.776 404.387C711.929 399.037 702.326 399.649 698.147 403.77C692.945 408.329 693.703 415.467 697.567 420.344C713.005 440.323 728.947 460.319 744.386 480.298C752.113 490.051 759.841 499.803 767.568 509.556C774.338 517.853 780.975 529.938 791.94 533.641C813.383 540.555 831.906 515.6 840.495 500.729C850.662 484.017 856.345 465.725 863.539 447.487C871.889 425.021 884.186 405.065 897.507 384.67C906.534 371.71 885.29 359.114 876.767 372.091Z" fill="black"/>
<path d="M527.386 167.11C527.952 266.219 535.57 365.576 550.289 463.759C554.364 491.4 558.927 519.533 564.514 547.227C567.526 562.03 591.918 556.72 588.906 541.917C570.578 445.979 559.352 348.866 554.69 251.509C553.636 223.974 552.599 195.965 552.553 168.464C552.596 152.82 527.412 151.939 527.386 167.11Z" fill="black"/>
<path d="M624.899 464.473C618.358 478.468 611.313 492.445 604.772 506.439C601.501 513.436 598.23 520.434 594.456 527.413C591.722 533.481 588.972 540.023 585.247 545.582C584.727 546.038 584.19 546.967 583.67 547.423C583.1 549.3 583.183 546.932 584.157 547.914C587.65 548.985 589.161 549.037 587.683 548.038C587.196 547.546 586.709 547.055 586.221 546.564C584.76 545.091 583.299 543.617 581.854 541.67C576.512 535.794 570.667 529.9 565.309 524.497C554.122 512.727 542.919 501.43 531.732 489.66C520.528 478.363 502.32 494.32 513.523 505.617C526.658 519.352 539.794 533.087 552.946 546.348C559.278 552.733 565.528 561.486 573.421 566.503C581.801 572.012 591.908 571.417 599.678 565.525C606.425 560.072 609.712 552.601 612.999 545.131C616.823 536.73 621.134 528.821 624.958 520.421C633.093 504.112 640.742 487.311 648.877 471.002C651.594 465.407 646.302 458.11 640.828 456.022C633.809 454.829 627.616 458.879 624.899 464.473Z" fill="black"/>
<path d="M340.061 144.909C338.805 296.107 337.548 447.306 336.291 598.505C335.807 641.159 335.844 683.356 335.36 726.009C335.333 741.18 360.517 742.061 360.544 726.891C361.8 575.692 363.057 424.493 364.313 273.294C364.797 230.641 364.761 188.443 365.245 145.79C365.792 130.163 340.608 129.282 340.061 144.909Z" fill="black"/>
<path d="M439.291 594.998C416.937 614.128 402.946 639.241 388.972 663.88C375.535 687.59 361.595 711.282 338.333 727.536C345.318 729.677 352.32 731.344 359.305 733.485C340.387 668.817 315.88 605.377 286.773 543.671C283.949 537.883 275.437 536.163 269.797 538.81C263.637 541.914 261.877 548.964 264.7 554.752C293.386 614.072 316.449 675.566 334.913 738.795C337.62 747.898 348.131 750.162 355.885 744.744C403.97 710.868 413.679 649.573 456.843 612.206C468.305 601.702 451.256 584.512 439.291 594.998Z" fill="black"/>
<path d="M18.1854 216.043C17.8737 268.185 28.6927 319.294 40.5355 369.964C52.8489 421.6 65.1458 473.709 77.4592 525.344C84.5072 554.512 91.5552 583.679 98.0996 612.829C101.615 627.65 126.007 622.34 122.492 607.519C110.178 555.884 97.8482 504.722 86.0385 453.105C74.1791 402.908 60.7921 353.131 51.4676 302.549C46.4012 274.398 42.8623 245.828 42.8658 216.907C43.396 201.754 18.212 200.872 18.1854 216.043Z" fill="black"/>
<path d="M118.101 444.744C112.083 501.427 106.065 558.111 99.5439 614.776C106.695 612.182 113.846 609.587 121.5 607.01C94.4046 574.297 67.8291 541.127 40.7333 508.413C36.3659 503.519 27.7868 503.693 23.1046 507.796C17.9021 512.355 18.1572 519.476 22.5246 524.37C49.6204 557.084 76.1959 590.253 103.292 622.967C110.549 631.755 123.909 624.637 125.248 615.202C131.266 558.518 137.284 501.835 143.805 445.169C144.524 439.031 138.175 433.119 131.628 432.89C124.056 433.099 118.82 438.606 118.101 444.744Z" fill="black"/>
</svg>
