<svg width="154" height="154" viewBox="0 0 154 154" fill="none" xmlns="http://www.w3.org/2000/svg">
<path fill-rule="evenodd" clip-rule="evenodd" d="M44.0449 35.7052V36.2495C44.0449 36.4019 44.1054 36.5482 44.2132 36.656C44.321 36.7638 44.4673 36.8244 44.6197 36.8244C44.7722 36.8244 44.9184 36.7638 45.0263 36.656C45.1341 36.5482 45.1946 36.4019 45.1946 36.2495V35.6746C45.1868 35.5234 45.1211 35.381 45.0113 35.2769C44.9014 35.1727 44.7558 35.1148 44.6044 35.115C44.5286 35.116 44.4537 35.1321 44.3843 35.1625C44.3148 35.1929 44.2521 35.2369 44.2 35.2919C44.1478 35.3469 44.1072 35.4119 44.0806 35.4829C44.0539 35.5539 44.0418 35.6295 44.0449 35.7052ZM43.8226 34.1032C44.6657 33.9039 45.3556 33.3366 44.1292 33.4133C43.8254 33.4557 43.5255 33.5223 43.2323 33.6126C42.0825 34.0878 43.079 34.2795 43.8226 34.1032ZM114.152 39.4382C113.799 40.1793 113.208 40.781 112.473 41.1476C112.445 41.1577 112.42 41.1775 112.405 41.2034C112.389 41.2294 112.383 41.26 112.388 41.2899C112.392 41.3198 112.407 41.3472 112.43 41.3674C112.452 41.3876 112.481 41.3993 112.511 41.4005C112.759 41.4442 113.014 41.4261 113.254 41.3478C113.493 41.2694 113.71 41.1333 113.884 40.9514C114.058 40.7696 114.185 40.5475 114.253 40.305C114.321 40.0625 114.329 39.8069 114.274 39.5609C114.274 39.5283 114.261 39.4971 114.238 39.4741C114.215 39.4511 114.184 39.4382 114.152 39.4382ZM111.101 33.3596C110.954 33.3219 110.797 33.3433 110.666 33.4192C110.534 33.4951 110.437 33.6195 110.396 33.7659C110.326 34.0154 110.313 34.2772 110.357 34.5324C110.357 34.6849 110.418 34.8311 110.526 34.9389C110.634 35.0468 110.78 35.1073 110.932 35.1073C111.085 35.1073 111.231 35.0468 111.339 34.9389C111.447 34.8311 111.507 34.6849 111.507 34.5324C111.507 33.9805 111.63 33.5053 111.101 33.3596ZM84.74 108.671C84.1191 108.357 72.2455 109.131 71.9466 110.465C71.8852 110.756 72.0769 111.875 72.4142 112.059C73.081 112.412 84.5023 111.768 85.1309 110.526C85.3096 110.224 85.3686 109.866 85.2962 109.523C85.2238 109.179 85.0254 108.876 84.74 108.671ZM72.5598 111.737C72.3234 111.366 72.1959 110.936 72.1919 110.496C72.3452 109.806 78.669 109.43 79.3666 109.384C79.3499 110.003 79.5094 110.615 79.8265 111.147C78.9527 111.285 72.9737 111.96 72.5598 111.76V111.737ZM84.5713 110.204C83.9658 110.634 80.892 111.025 80.1561 111.117C80.2205 110.51 80.0918 109.898 79.7882 109.369C80.7003 109.307 83.6208 109.147 84.487 109.223C84.717 109.392 84.7246 109.913 84.5713 110.22V110.204ZM64.5955 110.488C64.5748 110.475 64.5509 110.468 64.5265 110.468C64.5022 110.468 64.4783 110.475 64.4576 110.488C64.4576 110.411 49.8168 118.659 49.3722 119.533C49.3524 119.575 49.3422 119.621 49.3422 119.667C49.3422 119.714 49.3524 119.759 49.3722 119.801C49.8398 121.143 65.1168 134.956 65.753 135.27C65.937 135.362 66.1669 135.201 66.8875 134.818C68.4205 133.997 81.5052 127.007 82.8543 125.88C83.2299 125.497 83.4599 122.047 83.2529 121.656C83.0459 121.265 64.5955 110.565 64.5955 110.488ZM65.9216 134.634C64.2889 133.338 51.3575 121.687 49.9241 119.709C51.2579 118.452 64.1586 110.979 64.5495 110.749C66.5272 111.952 80.7617 120.614 82.586 121.84C81.6218 122.119 80.7046 122.54 79.8648 123.09C79.4279 123.511 80.5164 124.293 82.0264 125.757C79.7192 127.244 68.2749 133.377 65.9216 134.634ZM82.4634 125.32C82.3867 125.244 80.5394 123.442 80.4551 123.373C81.1997 122.908 81.9672 122.481 82.7546 122.093C82.7571 123.176 82.6544 124.257 82.448 125.32H82.4634Z" fill="black"/>
<path fill-rule="evenodd" clip-rule="evenodd" d="M76.0934 123.91C75.5569 124.14 69.0107 126.309 67.1634 127.06C66.6204 127.331 66.0288 127.49 65.4233 127.528C65.316 127.528 65.9369 126.332 70.6357 122.668C71.1263 122.285 72.0691 121.557 72.1688 120.959C72.6211 118.981 67.263 121.94 62.4722 123.81C61.9767 124.076 61.4361 124.248 60.8778 124.316C60.8241 124.002 61.905 123.013 61.9739 122.936C64.8331 119.778 68.4588 118.475 68.2135 117.31C67.8379 115.486 61.1844 119.035 59.7817 119.61C58.6012 120.108 56.7155 120.706 56.8305 120.706C56.5776 120.805 56.8305 120.982 56.8765 120.959C56.9225 120.936 59.3524 120.192 59.9426 119.932C60.8241 119.594 66.7188 116.75 67.6999 117.417C68.0909 117.693 63.9209 119.939 61.5677 122.538C61.1538 122.982 60.0346 123.887 60.3796 124.623C60.4428 124.736 60.5387 124.829 60.6548 124.887C60.7709 124.946 60.902 124.969 61.0311 124.952C62.1732 124.952 69.9612 121.051 71.5632 120.928C71.1955 121.413 70.7561 121.84 70.2601 122.193C69.118 123.097 65.8066 125.796 65.0401 127.037C64.6415 127.681 64.9711 128.064 65.4923 128.072C66.1822 128.072 67.0254 127.605 69.1027 126.823C76.1471 124.109 76.3694 124.232 76.2544 123.979C76.2485 123.964 76.2396 123.95 76.2283 123.938C76.217 123.926 76.2034 123.917 76.1884 123.911C76.1734 123.904 76.1573 123.901 76.141 123.901C76.1247 123.901 76.1085 123.904 76.0934 123.91Z" fill="black"/>
<path fill-rule="evenodd" clip-rule="evenodd" d="M149.473 94.682C149.374 86.6641 148.653 70.2987 147.067 62.3651C146.231 58.1568 144.422 52.4002 141.057 49.6177C139.631 48.4449 137.531 47.3181 133.721 45.2101C133.767 45.1105 127.704 42.6576 127.42 43.4701C127.185 42.0721 126.854 40.6917 126.432 39.3385C126.999 39.1545 126.746 37.4988 126.983 36.5637C127.221 35.6285 128.118 34.9616 128.578 34.1951C129.613 32.4857 129.789 29.5039 129.597 27.5186C129.413 25.6713 126.715 21.5473 124.937 20.8728C123.158 20.1982 121.334 20.2212 119.456 19.8456C117.923 19.5313 116.789 18.6805 115.072 18.4659C113.354 18.2512 112.327 19.2324 110.856 19.2324C109.384 19.2324 107.728 18.0903 106.187 17.9983C105.35 17.9853 104.537 18.2765 103.898 18.8178C103.26 19.3592 102.839 20.1139 102.715 20.9418C102.529 22.1758 102.675 23.437 103.139 24.5957C103.602 25.7544 104.366 26.7686 105.352 27.5339C106.552 28.2932 107.901 28.7871 109.307 28.9827C109.215 32.8996 109.629 31.8495 109.169 32.1944C108.709 32.5394 108.855 34.9539 109.016 35.6208C109.085 35.8891 109.154 35.9888 109.484 36.0961C109.3 36.8626 108.004 38.5183 109.169 38.9246C109.323 38.9782 109.936 39.0855 109.997 39.1085C110.154 39.8355 110.385 40.5444 110.687 41.2242C110.984 41.9076 111.419 42.5228 111.963 43.0317C112.508 43.5406 113.151 43.9325 113.853 44.183C114.957 44.6122 115.83 44.7272 116.474 44.9495C116.563 45.2665 116.609 45.5938 116.612 45.923C113.875 46.6425 111.296 47.8669 109.008 49.5334C104.861 52.8984 98.9667 66.8569 97.426 68.39C96.8281 68.9802 82.7469 71.7091 80.6696 73.1195C80.2634 73.3955 80.248 73.6331 80.3017 74.1237C79.7958 74.2156 77.6648 74.6142 77.4272 75.0665C77.357 75.395 77.3756 75.7363 77.4809 76.0553C75.5841 75.7011 73.6704 75.4453 71.7472 75.2888C71.3953 75.297 71.049 75.379 70.7308 75.5295C70.4125 75.6801 70.1295 75.8958 69.8999 76.1626C69.256 76.9292 69.7772 76.7989 69.095 76.6915C67.6463 76.4846 62.4569 78.2246 61.8053 78.5312C61.8053 78.2553 61.8053 78.0636 61.514 77.9103C60.6585 77.6624 59.7647 77.5741 58.8772 77.6497C58.3406 78.01 60.4102 77.8873 61.2687 78.3319C61.2687 78.9221 61.3454 84.9777 61.2687 86.1659C61.2687 86.3805 61.2687 86.3498 61.1078 86.3728C60.3412 86.4801 59.2374 86.3728 58.9002 86.6181C59.0228 83.9506 58.9002 77.4197 58.5322 77.0365C58.3099 76.8065 54.2167 76.3159 49.7631 75.7794C49.7789 72.5572 49.5997 69.337 49.2265 66.1364C48.4064 59.023 46.6893 50.6372 41.3236 46.3829C41.6345 46.5099 41.9767 46.5393 42.3048 46.4672C42.7428 46.2934 43.2143 46.22 43.6845 46.2526C44.4511 46.4596 44.5507 47.0191 46.467 45.7314C46.5897 45.647 46.9116 45.67 47.1646 45.4171C48.0308 44.5509 47.5938 43.3781 47.5938 42.5043C47.7208 41.9102 47.7621 41.301 47.7165 40.6953C47.693 40.6049 47.6489 40.5213 47.5878 40.4508C47.5266 40.3803 47.45 40.325 47.3639 40.289C47.3639 40.036 47.6322 39.5838 47.2489 39.0932C47.8008 38.8019 48.3987 38.4646 48.0921 37.8668C47.5064 36.93 47.0232 35.9328 46.651 34.8926C46.4134 34.0034 46.7353 32.869 46.72 31.9108C46.72 31.2516 46.789 30.4621 46.72 29.7415C47.3112 29.3287 47.763 28.7459 48.0154 28.0705C48.0713 27.7975 48.0594 27.5149 47.9805 27.2476C47.9016 26.9802 47.7583 26.7364 47.5632 26.5374C47.3102 26.3765 47.2566 26.5374 47.2642 26.0622C47.2919 25.8954 47.2844 25.7247 47.2422 25.561C47.2 25.3973 47.1239 25.2442 47.0189 25.1117C46.697 24.7974 45.9611 24.4525 45.7312 24.1305C45.3402 23.5556 45.1103 22.9807 44.3744 22.7508C43.8532 22.5821 43.3626 22.9117 43.01 22.7968C42.5271 22.6435 42.0288 22.1222 41.4769 22.6741C41.3537 22.7409 41.2185 22.7828 41.0791 22.7972C40.9396 22.8117 40.7987 22.7985 40.6644 22.7584C40.2045 22.3675 40.0895 21.693 39.3076 21.5473C38.863 21.4707 37.9892 21.6853 37.6519 21.5473C37.0994 21.1406 36.4898 20.8177 35.8429 20.5892C35.1197 20.5203 34.39 20.5826 33.689 20.7731C33.1984 20.8728 32.5698 20.8191 32.0563 20.8958C30.9908 21.0644 30.6842 21.9842 29.979 22.4288C29.2738 22.8734 28.0856 22.8811 27.4111 23.8776C26.8438 24.7208 26.9665 25.6329 26.7442 26.4761C26.6522 26.8364 26.1616 27.2426 25.9777 27.6106C25.5484 28.4614 25.878 29.3199 25.8704 30.0558C25.8627 30.7917 25.3491 31.4662 25.4948 32.3554C25.6131 32.7995 25.8076 33.2196 26.0697 33.5972C26.0728 33.7214 26.0573 33.8455 26.0237 33.9651C25.7898 34.5683 25.7418 35.2277 25.8857 35.8584C26.0111 36.4631 26.3032 37.0207 26.7289 37.4682C27.2654 37.9357 27.5414 37.8131 27.9323 38.48C28.0967 38.8326 28.3439 39.1403 28.6529 39.3768C29.2201 39.7601 29.9176 39.4305 30.2549 39.5991C30.4647 39.7099 30.6936 39.7801 30.9295 39.8061C30.7408 39.9014 30.5778 40.0408 30.4542 40.2123C26.2843 40.7412 20.7806 43.7844 17.4232 47.9466C16.0971 49.656 13.8665 52.1242 13.031 54.1019C8.5391 64.2507 10.7314 80.1639 8.92236 85.0774L4.44583 96.7516C4.2312 97.3112 3.67929 100.094 3.87859 101.052C4.20054 102.478 5.69527 100.692 6.60744 99.6798C6.04021 101.696 6.04787 102.225 5.74893 110.158C5.65694 112.642 5.57262 115.348 5.5343 117.624C5.5321 117.641 5.53344 117.657 5.53823 117.673C5.54301 117.689 5.55113 117.703 5.56203 117.716C5.57294 117.728 5.58637 117.738 5.60143 117.745C5.61648 117.751 5.6328 117.755 5.64928 117.755C5.86391 117.755 5.72593 118 6.04021 111.668C6.2625 107.215 6.51546 103.06 6.53845 102.723C6.65192 101.413 6.94067 100.124 7.39697 98.8903C9.53764 97.291 11.9465 96.0865 14.5104 95.3336C17.3638 94.5702 20.3769 94.6474 23.1875 95.5559C23.954 95.8088 26.016 96.3224 26.7519 95.9774C28.2849 95.2109 32.2326 92.6737 32.8841 91.133C33.2061 90.3664 33.4667 89.7456 33.7196 89.1707C34.8924 89.278 36.3335 89.5769 37.6136 89.5922C39.047 89.5922 39.9669 89.3623 41.5536 87.9595C47.3869 88.0898 53.8181 87.9135 56.8842 87.7986C58.9308 88.5651 65.2164 90.811 66.7418 92.3211C67.3397 92.9037 67.6923 94.5287 67.9069 96.3377C68.1895 98.5 68.264 100.684 68.1292 102.861C63.9286 103.666 58.5782 104.938 54.4389 105.965C54.2072 105.901 53.9649 105.883 53.7261 105.912C52.6299 106.027 53.1435 106.471 52.7832 105.36C52.8005 105.364 52.8185 105.364 52.8356 105.359C52.8527 105.354 52.8684 105.346 52.8813 105.333C52.8942 105.321 52.9039 105.306 52.9096 105.289C52.9152 105.273 52.9166 105.255 52.9136 105.237C52.9023 103.764 52.7301 102.296 52.4 100.86C52.3463 100.646 51.9707 100.538 51.7408 100.469C49.2572 99.7488 39.6679 98.7829 37.5599 99.3272C36.1879 99.6875 26.6905 104.593 26.2613 105.636C25.832 106.678 24.6669 112.948 24.4523 114.106C19.4852 115.555 15.5682 116.75 13.6519 117.402C13.636 117.407 13.6213 117.415 13.6088 117.426C13.5962 117.437 13.586 117.451 13.5788 117.466C13.5717 117.481 13.5676 117.497 13.567 117.514C13.5664 117.531 13.5692 117.547 13.5752 117.563C13.6672 117.847 16.1814 116.543 41.9368 109.775C42.1957 110.436 42.5273 111.066 42.9257 111.653C42.1591 111.837 41.293 112.174 41.04 112.879C40.995 113.028 40.9876 113.186 41.0183 113.339C41.0491 113.491 41.1171 113.633 41.2163 113.753C41.8451 114.457 42.6835 114.941 43.6079 115.133C45.2287 115.539 46.9129 115.628 48.5673 115.394C50.156 115.255 51.7214 114.92 53.2278 114.397C54.8682 113.707 54.7609 112.68 54.1323 112.213C53.4846 111.832 52.7729 111.572 52.032 111.446C52.7296 110.181 52.078 110.741 53.1205 110.488C53.7104 110.347 54.2493 110.044 54.6766 109.614C55.3511 108.924 55.8034 107.222 55.1595 106.402C58.3942 105.636 71.4023 102.416 74.5834 102.654C80.3554 103.076 122.323 120.33 132.257 123.657C132.273 123.662 132.289 123.664 132.306 123.662C132.322 123.661 132.338 123.657 132.352 123.649C132.367 123.642 132.38 123.631 132.391 123.619C132.401 123.606 132.409 123.592 132.414 123.576C132.419 123.561 132.421 123.544 132.42 123.528C132.419 123.512 132.414 123.496 132.407 123.481C132.399 123.467 132.389 123.454 132.376 123.443C132.364 123.432 132.349 123.424 132.334 123.419C129.735 122.515 123.94 120.207 117.003 117.433C117.34 116.62 118.23 113.999 118.92 113.094C119.203 112.726 119.188 112.695 121.717 112.841C128.348 113.224 134.189 113.048 140.551 111.017C144.437 109.767 146.346 106.885 147.45 103.03C147.672 103.099 148.278 103.298 148.492 103.344C148.554 103.359 148.617 103.359 148.679 103.344C148.74 103.329 148.797 103.3 148.845 103.259C149.604 102.485 149.473 96.1921 149.473 94.682ZM44.6274 41.9754C44.4199 42.0509 44.1959 42.0695 43.9789 42.029C43.7618 41.9886 43.5596 41.8906 43.3932 41.7454C43.2278 41.613 43.0983 41.4411 43.0166 41.2455C42.9348 41.05 42.9036 40.837 42.9257 40.6263C42.9155 40.5948 42.9183 40.5605 42.9334 40.531C42.9485 40.5016 42.9746 40.4793 43.0061 40.4691C43.0377 40.459 43.0719 40.4617 43.1014 40.4768C43.1309 40.4919 43.1531 40.5181 43.1633 40.5496C43.5417 41.094 44.0762 41.5109 44.6964 41.7454C44.7161 41.7617 44.7306 41.7835 44.738 41.808C44.7454 41.8326 44.7455 41.8587 44.7381 41.8833C44.7307 41.9078 44.7163 41.9296 44.6966 41.946C44.6769 41.9624 44.6528 41.9726 44.6274 41.9754ZM37.4296 35.2606C37.4558 35.0354 37.5463 34.8225 37.6903 34.6473C37.8589 34.4787 38.3725 34.586 38.7327 34.3407C39.0022 34.1278 39.2066 33.8437 39.323 33.5205C39.7522 32.6697 40.4344 33.3289 41.3849 31.9261C41.6275 31.5317 41.8158 31.1062 41.9445 30.6614C42.4811 30.4084 43.1786 30.7763 43.8532 29.6649C44.0755 29.2893 44.2211 28.8983 44.6197 28.791C44.9186 29.113 45.2176 30.3241 46.4287 29.8565C46.4287 30.2704 46.3367 32.3631 46.3137 32.5317C46.2144 33.0369 46.1605 33.55 46.1528 34.0648C46.1528 35.5978 46.858 36.441 47.6398 38.0431C47.7625 38.296 47.1186 38.5413 46.7966 38.7176C46.3425 38.5503 45.8725 38.4296 45.3939 38.3573C43.9068 37.9971 42.7187 38.7713 41.4386 39.1239C41.2216 39.1252 41.0053 39.0995 40.7947 39.0472C40.3118 39.0012 39.8059 39.4918 39.1237 39.5838C38.9458 39.6187 38.7615 39.5994 38.5948 39.5283C38.428 39.4572 38.2865 39.3377 38.1885 39.1852C38.1058 38.9044 38.0469 38.6173 38.0122 38.3267C37.9432 38.0507 37.8589 37.7748 37.7976 37.5065C37.6749 36.9546 38.0352 36.74 37.6136 35.9734C37.3223 35.4522 37.33 35.6821 37.4296 35.2606ZM37.7209 50.8978C38.2371 49.9183 38.658 48.8915 38.978 47.8317C39.4073 50.4992 39.6372 51.8483 39.7446 52.5228C39.185 52.0552 39.1313 51.8789 37.7209 50.8671V50.8978ZM40.0205 54.0176C40.3961 56.3171 40.3118 55.7959 40.3808 56.2712C40.1977 55.9262 39.9738 55.6045 39.7139 55.313C39.7997 54.8066 39.8382 54.2934 39.8289 53.7799L40.0205 54.0176ZM37.2457 55.3973C36.7879 54.9214 36.37 54.4086 35.9962 53.8642C36.3752 52.9779 36.8026 52.1129 37.2763 51.2734C38.886 52.5075 38.7634 52.4922 39.162 52.9904C39.2205 53.6432 39.2205 54.2999 39.162 54.9527L37.2457 55.3973ZM37.3453 55.8956C38.2575 57.9269 38.6254 61.2613 38.8171 63.4842C37.8602 60.6843 36.5736 58.0082 34.9844 55.5123C35.2952 55.0876 35.572 54.6391 35.8123 54.1709C36.128 54.7588 36.5057 55.3113 36.9391 55.8189C36.9944 55.8537 37.0568 55.8759 37.1217 55.8839C37.1866 55.8918 37.2525 55.8853 37.3147 55.8649L37.3453 55.8956ZM32.7921 39.4918C32.8545 39.5112 32.9187 39.524 32.9838 39.5301C33.1622 39.5221 33.3333 39.4565 33.4715 39.3433C33.6097 39.23 33.7075 39.075 33.7503 38.9016C33.8729 38.8249 33.9649 38.7406 33.9573 38.595C33.9496 38.4493 32.3015 36.1957 34.4018 35.0383C34.5871 35.0182 34.7733 35.0662 34.9256 35.1734C35.078 35.2807 35.1861 35.4397 35.2297 35.6208C35.3289 36.0297 35.5383 36.4035 35.8353 36.7016C35.8585 37.1916 35.9226 37.6787 36.0269 38.158C36.0882 38.4417 35.8736 38.8096 35.8276 39.2005C35.7203 39.967 36.4638 40.8102 36.7321 41.5001C37.0924 42.4276 36.8471 43.4241 37.7056 44.2443C38.5641 45.0645 38.4031 44.3899 38.7021 46.2296C38.3445 47.6754 37.8517 49.0843 37.2303 50.4379C36.3642 49.2114 31.9796 42.052 31.0981 40.4193C31.4277 40.22 32.4549 39.6374 32.7615 39.4611L32.7921 39.4918ZM30.4925 40.5113C31.0521 41.8144 36.6248 50.6448 36.6248 50.7215C36.3565 51.5723 34.8158 55.0984 34.0876 55.4816C32.4855 54.3395 28.0933 42.328 27.779 41.2395C28.6438 40.869 29.5536 40.6139 30.4849 40.4806L30.4925 40.5113ZM38.4031 74.3536C37.5599 74.0853 34.8388 64.8486 32.4089 59.7359C30.9525 56.6698 28.0933 51.603 24.9735 50.2539C21.6008 48.8051 15.3306 52.2775 14.6637 56.7847C14.2565 59.7572 14.497 62.7827 15.3689 65.6535C18.9869 76.5919 23.885 85.315 34.3482 87.8139C34.5935 87.3233 33.7273 87.7296 40.6107 87.9135C40.2734 88.1759 39.9144 88.4093 39.5376 88.6111C38.2498 89.3086 35.8046 88.7491 33.9956 88.5498L34.2255 88.0515C23.4481 85.6446 18.4043 76.5536 14.794 65.8221C13.8822 62.8648 13.6207 59.7453 14.0275 56.6774C14.7173 51.8023 21.2099 48.3069 24.8049 49.518C25.7215 49.8595 26.5607 50.3808 27.2731 51.0511C26.9312 47.9795 26.8466 44.8847 27.0202 41.7991C27.161 41.6739 27.3123 41.5611 27.4724 41.4618C28.1316 43.7614 31.8876 54.7534 33.7963 55.9722C33.9173 56.0438 34.0591 56.0721 34.1983 56.0526C34.3376 56.0331 34.4661 55.9669 34.5628 55.8649C36.2875 58.8314 37.8972 61.8668 38.5411 65.0633C38.9054 66.8274 38.9984 68.6368 38.8171 70.429C37.7286 65.9218 34.7161 59.4063 31.2897 56.2865C34.7928 62.3344 37.3453 72.008 38.4874 73.9167C38.9443 74.0426 39.411 74.1298 39.8825 74.1773C39.6832 69.5781 39.5299 59.9888 37.5829 55.8266C37.8206 55.8266 39.4993 55.4663 39.4993 55.4663C39.802 55.8298 40.0594 56.2288 40.2658 56.6544C40.5801 57.26 40.4728 56.8001 40.948 60.0195C43.2476 74.8825 43.1173 74.8059 43.4162 74.9668C41.9138 74.7752 39.2693 74.6142 38.4031 74.3536ZM43.4929 71.2875C40.5034 54.3165 40.4728 53.8413 39.2157 46.7585C39.3153 46.4212 39.392 46.1453 39.4456 45.946C39.9209 46.5515 42.5117 49.8706 42.7954 50.5988C42.3738 50.9744 40.856 51.6183 41.3159 52.1319C41.5229 52.3695 43.2323 53.8489 43.7688 54.3855C44.0601 55.6196 43.6002 69.1412 43.4929 71.2875ZM24.7589 114.006C24.9735 113.033 26.3763 106.701 26.7672 105.812C27.0508 105.153 36.2952 100.247 37.7516 99.8791C39.8519 99.3272 51.2885 100.462 52.0857 100.975C52.4456 102.312 52.6564 103.685 52.7143 105.069C51.4265 103.535 41.4616 103.942 41.3543 106.103C41.3522 106.174 41.3671 106.245 41.3977 106.309C41.4284 106.373 41.474 106.428 41.5306 106.471C41.5255 107.398 41.6311 108.322 41.8449 109.223C35.9579 110.81 30.0709 112.466 24.7589 114.006ZM53.9867 112.81C54.3776 114.075 49.7861 114.619 48.46 114.773C46.8854 114.997 45.2823 114.916 43.7382 114.535C43.0636 114.351 41.8142 113.861 41.5766 113.247C41.4616 112.956 41.8372 112.68 42.1131 112.535C42.4628 112.352 42.8335 112.213 43.2169 112.121C43.6345 112.696 44.1945 113.153 44.842 113.447C45.6085 113.784 48.8816 113.546 50.0161 113.301C50.5143 113.194 51.0432 113.048 51.7944 111.845C52.2543 111.914 53.8564 112.389 53.9867 112.81ZM50.3227 112.542C49.7478 112.887 45.6852 113.163 45.0643 112.91C43.01 112.09 41.8908 108.886 41.8065 106.625C43.4765 106.992 45.1905 107.118 46.8963 107C48.1764 106.832 51.2042 106.31 52.3157 105.751C52.9825 108.265 51.5721 111.814 50.3227 112.542ZM54.6076 108.587C54.4001 108.997 54.1086 109.36 53.7521 109.65C53.3955 109.941 52.9819 110.153 52.538 110.273C52.939 109.198 53.129 108.055 53.0975 106.908C53.158 106.781 53.2459 106.67 53.3547 106.581C53.4636 106.492 53.5907 106.429 53.7271 106.395C53.8634 106.361 54.0055 106.358 54.1432 106.386C54.2809 106.414 54.4107 106.472 54.5233 106.556C55.0982 106.931 54.8452 107.935 54.6076 108.587ZM133.56 45.4324C138.742 48.2916 141.042 49.4874 142.697 51.9939C141.656 51.0983 140.33 50.6012 138.957 50.5912C134.043 50.4225 131.629 57.6969 130.371 62.4034C128.287 70.2527 129.567 80.1869 129.452 81.6433C128.126 82.8774 121.334 86.4035 118.299 88.0515C118.72 86.2732 120.223 79.4127 121.204 76.7069C122.522 73.0735 126.317 64.611 126.569 62.7713C126.638 62.2271 126.531 62.1581 124.921 61.1156C125.542 61.1156 127.221 60.947 127.742 60.8473C127.965 60.8473 128.08 60.7477 128.164 60.2801C128.447 58.6551 128.999 45.2638 129.045 43.838C128.992 43.8074 132.901 45.0568 133.583 45.4324H133.56ZM127.65 43.6004C127.999 43.5752 128.35 43.6142 128.685 43.7154C128.302 49.2727 127.919 59.046 127.558 60.2954C127.152 60.3721 125.711 60.4717 125.151 60.5101C123.956 60.5791 123.925 60.5101 123.802 60.6787C123.68 60.8473 123.848 61.0773 124.071 61.2306C124.462 61.5066 125.765 62.3267 125.949 62.5414C125.772 63.454 125.499 64.3455 125.136 65.2012C120.805 76.6992 121.066 73.1655 118.153 85.7749C118.348 79.7347 118.906 73.7116 119.824 67.7385C120.437 64.45 121.181 61.3609 123.657 54.3242C124.63 51.603 126.646 46.3906 126.723 46.4212C127.107 45.5051 127.425 44.5624 127.673 43.6004H127.65ZM114.336 90.6424C114.481 91.2096 114.481 91.133 114.435 91.1406L114.198 91.0946C114.198 91.018 113.784 83.322 113.983 80.1409C114.343 74.5069 114.803 68.3977 115.233 62.5107C115.439 59.6592 116.221 53.5346 116.198 53.7646L116.965 53.1974C117.283 53.832 117.644 54.4441 118.046 55.0294C118.199 55.2363 118.406 55.497 118.651 55.52C118.483 56.9074 115.93 74.024 115.179 84.9624C114.765 90.9183 115.179 89.6536 114.573 90.1978C114.501 90.2463 114.444 90.313 114.406 90.3911C114.368 90.4692 114.352 90.5559 114.359 90.6424H114.336ZM118.889 55.5276C119.471 55.5276 120.1 54.3012 120.866 53.7799C121.165 54.0942 122.07 55.5966 122.668 55.7959C120.131 62.756 117.417 72.4603 117.425 88.4808C116.773 88.8334 115.892 89.3393 115.24 89.7149C115.623 83.1917 118.398 61.7825 118.912 55.5276H118.889ZM126.937 45.2254C126.692 45.992 123.051 54.7841 122.798 55.1903C122.403 54.8028 122.051 54.3736 121.748 53.9102C121.104 53.0441 120.882 52.7604 119.786 53.9946C121.411 50.9284 124.584 47.8163 125.918 46.2679C127.19 44.8115 127.022 44.9342 126.937 45.2254ZM109.767 29.1283C110.339 29.3044 110.951 29.3044 111.522 29.1283C111.96 28.9339 112.443 28.8649 112.918 28.929C113.587 29.2378 114.276 29.5041 114.98 29.7262C115.85 29.7185 116.718 29.6494 117.578 29.5192C117.972 29.7034 118.306 29.9957 118.541 30.362C118.776 30.7284 118.902 31.1538 118.904 31.5889C117.476 31.7963 116.097 32.2612 114.834 32.961C114.756 32.7093 114.603 32.4879 114.394 32.3272C114.185 32.1666 113.932 32.0747 113.669 32.0641C112.412 31.9129 111.142 31.8975 109.882 32.0181C109.77 31.0387 109.732 30.0522 109.767 29.067V29.1283ZM109.468 35.6668C109.277 35.3295 108.901 32.7157 109.284 32.4321C109.346 32.5087 109.077 32.2711 110.534 32.2864C111.56 32.3188 112.584 32.411 113.6 32.5624C114.29 32.685 114.405 32.9993 114.366 33.6662C114.366 34.9003 114.405 34.7776 114.366 35.1609C114.366 35.2682 114.32 35.5518 114.236 35.6132C112.659 35.8985 111.044 35.8959 109.468 35.6055V35.6668ZM116.513 44.3056C114.412 43.7077 112.488 43.6311 111.193 40.9635C110.357 39.2465 110.817 38.7483 110.058 38.526C109.777 38.4924 109.5 38.4308 109.231 38.342C109.231 37.8284 109.874 36.7553 109.997 36.2111C111.27 36.3632 112.557 36.3632 113.83 36.2111C114.596 36.0961 115.003 35.9658 114.88 34.4097V33.2216C116.083 32.8536 118.636 32.2481 118.943 32.1638C118.944 32.5808 119.001 32.9957 119.111 33.3979C119.231 33.6508 119.438 33.8521 119.694 33.9651C119.735 33.9833 119.779 33.9918 119.824 33.99C119.869 33.9881 119.913 33.976 119.952 33.9545C119.991 33.933 120.025 33.9027 120.051 33.866C120.076 33.8293 120.093 33.7871 120.1 33.7428C120.276 33.0299 120.414 32.3937 120.468 32.0871C120.468 32.2558 120.537 31.5505 121.043 31.2746C121.809 30.876 122.997 31.7652 123.082 33.0223C123.128 33.6355 122.515 34.747 122.055 36.0271C121.779 36.7936 123.45 37.1232 124.032 37.4068C124.247 37.9051 124.117 38.4646 124.408 38.7636C124.845 39.0331 125.324 39.2274 125.826 39.3385C126.355 41.0328 126.739 42.7688 126.976 44.5279C125.029 46.5745 124.592 47.0651 124.071 47.594C122.034 49.5289 120.307 51.7652 118.95 54.2245C118.406 51.0281 117.371 48.2073 117.256 47.2797C117.164 46.5592 117.317 45.2868 116.98 44.6046C116.929 44.5234 116.861 44.4545 116.78 44.4028C116.699 44.3511 116.608 44.3179 116.513 44.3056ZM116.735 46.9041C117.103 48.2686 118.084 52.6991 118.368 54.4775C117.9 53.7723 117.325 52.6071 117.325 52.6071C117.305 52.5656 117.276 52.529 117.24 52.5002C117.204 52.4714 117.162 52.4511 117.117 52.4408C117.072 52.4305 117.026 52.4304 116.981 52.4406C116.936 52.4509 116.894 52.4711 116.858 52.4998L116.298 52.9291C116.513 50.9361 116.727 48.9048 116.758 46.9041H116.735ZM116.513 46.2219C116.444 51.8636 115.317 56.892 114.857 62.5107C113.324 81.398 113.324 80.4705 113.477 87.1547C112.649 81.1144 111.492 69.3635 110.856 62.9936C111.308 62.6487 113.492 60.9853 113.738 60.4794C113.853 60.2341 113.738 59.9812 113.186 59.9812C112.227 60.0535 111.263 60.0535 110.304 59.9812C110.886 57.6049 114.221 48.9355 115.11 46.6359C115.562 46.5056 115.938 46.3752 116.513 46.2219ZM80.8766 73.6944C82.0647 72.445 96.9737 69.5321 97.7863 68.7426C98.9284 67.5928 102.071 60.4564 105.275 55.0447C107.996 50.4455 109.476 48.7438 114.773 46.7892C113.5 49.9396 111.017 56.1025 109.897 59.6899C109.828 59.9122 109.729 60.1575 109.897 60.3031C110.319 60.717 112.082 60.4717 113.094 60.4871C112.381 61.1999 110.419 62.6487 110.419 62.6487C110.381 62.6766 110.351 62.7139 110.332 62.757C110.313 62.8 110.306 62.8473 110.311 62.894C110.633 66.4507 112.611 87.6759 113.469 90.7574L112.09 90.4048C111.198 89.9669 110.229 89.7065 109.238 89.6382C110.986 80.9458 110.357 78.5159 110.572 73.7787C110.572 73.2881 108.502 63.4305 108.487 63.3539C108.487 63.3214 108.474 63.2902 108.451 63.2672C108.428 63.2442 108.397 63.2313 108.364 63.2313C108.332 63.2313 108.301 63.2442 108.278 63.2672C108.255 63.2902 108.242 63.3214 108.242 63.3539C108.372 66.7113 109.323 69.9077 109.974 73.5718C107.521 75.8713 104.953 79.0524 100.776 80.0873C98.1925 80.7388 86.0967 83.3757 84.487 83.4907C83.1685 82.0189 80.6696 74.6756 80.8766 73.6944ZM79.4202 74.7139C79.4202 74.7139 80.34 74.4916 80.3247 74.3459C81.0405 77.0394 81.9421 79.68 83.0229 82.2489C82.326 82.4644 81.6136 82.6259 80.8919 82.7318C80.455 82.7318 80.7616 83.1151 79.6961 80.5855C79.0396 79.013 78.4765 77.403 78.0098 75.764C77.8795 75.2351 77.6572 75.2888 79.4202 74.7139ZM70.4441 76.3313C71.0497 75.6644 71.4866 75.5647 77.5422 76.3313C78.0807 78.159 78.7336 79.9511 79.4968 81.697C78.2507 82.6684 76.8223 83.38 75.2962 83.7896C75.2503 83.46 75.1429 83.5596 75.4036 83.5826C75.6237 83.5889 75.8424 83.5456 76.0436 83.456C76.2448 83.3665 76.4233 83.2329 76.566 83.0652C76.7087 82.8975 76.812 82.6999 76.8681 82.487C76.9243 82.2741 76.932 82.0512 76.8906 81.835C76.8293 81.0684 74.637 79.474 74.0161 79.0371C74.3847 79.113 74.7672 79.0838 75.1199 78.9528C75.1515 78.9426 75.1776 78.9204 75.1927 78.8909C75.2078 78.8614 75.2106 78.8272 75.2004 78.7957C75.1903 78.7641 75.168 78.738 75.1385 78.7229C75.1091 78.7078 75.0748 78.705 75.0433 78.7152C73.7555 79.0524 72.4524 77.5194 72.2838 77.4734C71.6936 77.3278 72.0615 78.6998 70.7507 79.52C70.5591 79.6427 69.8232 79.3667 69.7772 78.9911C69.6807 78.5262 69.6906 78.0454 69.8061 77.5848C69.9216 77.1242 70.1397 76.6957 70.4441 76.3313ZM61.8743 78.7458C62.8555 78.3932 67.8532 76.8448 69.2943 77.2128C69.1321 77.8251 69.0956 78.4639 69.187 79.0908C69.2357 79.2899 69.3268 79.4762 69.454 79.6369C69.5812 79.7976 69.7416 79.929 69.9242 80.0222C70.1068 80.1153 70.3074 80.1679 70.5122 80.1765C70.717 80.1851 70.9212 80.1494 71.111 80.0719C71.6452 79.7157 72.0467 79.1929 72.2531 78.5849C72.9353 78.9988 76.3234 81.2447 76.2774 82.0419C76.2774 82.5785 75.9938 83.0307 75.4572 82.9847C75.0042 82.8224 74.576 82.598 74.1848 82.3179C73.7911 82.0035 73.3762 81.7166 72.943 81.4594C72.8741 81.4236 72.7944 81.4146 72.7193 81.4341C72.6442 81.4536 72.5789 81.5001 72.5361 81.5648C72.4933 81.6296 72.4759 81.7078 72.4874 81.7846C72.4988 81.8614 72.5382 81.9312 72.5981 81.9806C72.5981 81.9806 73.173 82.4099 73.8092 82.8238C74.7673 83.5903 75.0969 84.2955 73.9088 84.6558C73.7228 84.711 73.5274 84.7272 73.3349 84.7035C73.1423 84.6798 72.9567 84.6165 72.7897 84.5178C72.5944 84.1321 72.3352 83.7822 72.0232 83.483C71.8839 83.1249 71.6343 82.8204 71.3104 82.6137C70.9865 82.407 70.6053 82.3087 70.2218 82.3332C69.8232 82.3792 69.7926 82.5785 69.8309 82.3945C70.0149 81.4823 68.8497 80.9304 68.0372 81.0838C66.7264 81.3444 65.9982 83.0767 65.569 84.3415C65.3084 84.8934 66.3355 84.2802 61.8513 85.8746C61.9777 83.6483 61.9777 81.4167 61.8513 79.1904C61.813 78.6615 61.7976 78.7842 61.8743 78.7458ZM65.7836 84.4258C66.2052 83.5213 67.1327 81.8273 68.1215 81.674C68.5048 81.605 69.279 81.8656 69.1947 82.2565C69.0287 83.2945 68.55 84.2572 67.8226 85.0161C67.9146 85.1694 65.5153 85.2154 65.7836 84.4258ZM70.1222 82.9618C70.3061 82.7778 71.3793 83.1534 71.4099 83.7283C71.4636 84.6864 70.5514 85.8286 69.7619 86.3575C69.5089 86.5338 68.5125 85.7213 68.2825 85.3917C68.83 84.534 69.4452 83.7214 70.1222 82.9618ZM71.4176 85.5143C71.4713 85.4376 72.2378 83.736 72.3681 85.1464C72.4218 85.6983 71.6016 85.9895 71.065 85.9129C71.1897 85.7866 71.3074 85.6535 71.4176 85.5143ZM88.4652 95.4792C85.2382 97.9857 84.7782 101.282 85.3071 105.214C80.1254 103.374 76.1701 102.148 74.6294 102.018C72.5441 102.061 70.4687 102.318 68.4358 102.784C68.6428 100.722 68.5508 93.4862 67.0867 91.9991C65.6226 90.5121 60.3106 88.4808 58.3099 87.7142H58.7622C58.9385 87.6223 58.6472 86.8174 59.3141 86.7714C60.1189 86.7254 61.2457 87.032 61.6137 86.7101C61.7235 86.5432 61.787 86.3501 61.7976 86.1505C62.6408 85.8822 64.6261 85.2767 65.6303 85.0161C65.9679 85.284 66.3631 85.4699 66.7848 85.559C67.2064 85.6481 67.6431 85.6381 68.0602 85.5296C68.2902 86.0432 69.3633 87.17 70.0302 86.8021C70.2152 86.6952 70.392 86.5748 70.5591 86.4418C71.044 86.5762 71.5588 86.5547 72.0308 86.3805C72.2806 86.3124 72.5035 86.1693 72.6693 85.9706C72.8352 85.7718 72.9361 85.5269 72.9583 85.269C73.3597 85.3843 73.7876 85.3659 74.1776 85.2165C74.5675 85.0672 74.8983 84.795 75.1199 84.4412C76.8006 84.0635 78.3733 83.3086 79.7191 82.2336C79.8648 82.5478 80.0027 82.8161 80.1177 83.0001C80.1558 83.0648 80.2094 83.1189 80.2736 83.1577C80.3378 83.1965 80.4107 83.2188 80.4857 83.2224C81.2522 83.299 83.0612 82.4558 83.1379 82.4558C83.4005 83.0036 83.7273 83.5183 84.1114 83.9889C84.2493 84.1269 84.4793 84.0886 84.6939 84.0656C86.9169 83.7973 97.9549 81.421 100.906 80.6852C104.739 79.727 107.238 77.0365 109.867 74.4763C109.721 78.8761 110.296 81.0224 108.556 89.6612C104.938 90.1111 101.353 90.7974 97.8246 91.7155C94.7355 92.597 91.0561 93.4709 88.4652 95.4869V95.4792ZM99.6489 110.603L99.3806 110.496C99.3193 106.602 100.285 103.014 103.137 100.354C103.389 100.419 103.645 100.467 103.903 100.5C100.967 103.014 99.8099 106.678 99.6489 110.603ZM111.752 97.8248C109.453 99.1739 110.127 99.9021 108.019 100.124C106.331 100.24 104.634 100.109 102.983 99.7334C101.65 99.3042 102.355 98.7906 103.75 98.6373C103.988 98.6756 105.858 98.691 106.739 98.6373C106.811 98.6258 106.877 98.589 106.924 98.5335C106.972 98.478 106.998 98.4075 106.998 98.3345C106.998 98.2616 106.972 98.191 106.924 98.1355C106.877 98.08 106.811 98.0432 106.739 98.0317C105.745 97.9462 104.746 97.9308 103.75 97.9858C103.115 97.9766 102.483 97.9021 101.864 97.7635C101.803 97.663 101.767 97.5487 101.76 97.431C101.753 97.3133 101.776 97.1957 101.826 97.0889C102.631 96.606 106.425 96.79 107.054 96.767C107.128 96.7553 107.195 96.7176 107.244 96.6607C107.292 96.6038 107.319 96.5314 107.319 96.4565C107.319 96.3817 107.292 96.3092 107.244 96.2523C107.195 96.1954 107.128 96.1577 107.054 96.1461C105.796 96.1727 104.538 96.1061 103.29 95.9468C102.753 95.8548 101.504 95.5865 101.596 95.0423C101.765 94.0611 103.781 94.9043 105.199 94.8046C106.199 94.7897 107.19 94.603 108.127 94.2527C108.197 94.2314 108.256 94.1831 108.29 94.1184C108.325 94.0537 108.332 93.978 108.311 93.9078C108.289 93.8377 108.241 93.7789 108.176 93.7444C108.112 93.7099 108.036 93.7025 107.966 93.7238C107.007 93.9544 106.034 94.1234 105.053 94.2298C104.991 94.2169 104.935 94.1817 104.897 94.1309C104.859 94.0801 104.841 94.0171 104.846 93.9538C104.857 93.8106 104.893 93.6704 104.953 93.5399C105.349 93.0244 105.879 92.629 106.486 92.3977C108.663 91.4932 110.319 92.3977 112.81 92.5587C113.123 93.9762 113.52 95.3737 113.998 96.744C113.234 97.0494 112.494 97.4106 111.783 97.8248H111.752ZM114.681 96.8896C114.412 95.9851 113.416 92.7044 113.316 91.9378C113.712 91.7446 114.128 91.5979 114.558 91.5009C114.911 92.8117 115.562 95.0883 115.984 96.3607C115.572 96.5664 115.147 96.7431 114.711 96.8896H114.681ZM116.85 96.8896C116.444 95.9698 115.24 91.6849 114.964 90.6117C116.283 89.5309 128.118 83.713 129.881 81.9423C130.433 81.3904 128.57 71.0039 130.755 62.4571C131.92 57.8579 134.204 50.6295 138.918 50.7905C142.153 50.8978 144 53.366 145.051 56.4475C146.975 62.1198 146.208 69.9921 146.208 69.9154C146.208 76.3466 143.908 86.0125 139.309 90.6117C135.837 94.0918 119.011 97.2805 116.881 96.9126L116.85 96.8896ZM148.454 102.715C147.557 102.478 143.441 100.96 141.701 100.814C132.663 100.048 133.223 98.3307 127.635 95.8778C130.701 95.1113 137.516 93.3329 139.777 91.0946C144.552 86.3575 146.76 76.5919 146.737 69.9844C146.914 67.6703 146.914 65.346 146.737 63.032C148.431 72.6442 149.473 99.8024 148.454 102.715Z" fill="black"/>
<path fill-rule="evenodd" clip-rule="evenodd" d="M29.9329 50.8978L27.4187 51.1891C28.1852 51.9099 28.8832 52.7003 29.5037 53.55L30.2012 51.2504C30.2225 51.2092 30.2316 51.1628 30.2276 51.1166C30.2236 51.0704 30.2066 51.0263 30.1785 50.9893C30.1504 50.9524 30.1124 50.9242 30.0689 50.908C30.0255 50.8918 29.9783 50.8883 29.9329 50.8978ZM102.646 120.851C102.014 120.451 101.316 120.166 100.584 120.008C102.324 117.18 102.01 113.876 101.55 113.585C101.117 113.143 100.541 112.872 99.9248 112.818C97.6252 112.335 92.0526 112.297 90.5808 113.523C90.2589 113.792 90.0672 114.229 90.3815 114.52C90.2319 116.337 90.6127 118.158 91.4777 119.763C90.7111 119.909 89.822 120.2 89.5307 120.89C89.4804 121.038 89.4667 121.196 89.4908 121.351C89.5148 121.506 89.5758 121.653 89.6687 121.779C90.2571 122.509 91.0625 123.032 91.9683 123.274C93.5681 123.76 95.2466 123.935 96.9124 123.787C98.5039 123.722 100.082 123.465 101.611 123.021C103.305 122.392 103.29 121.357 102.646 120.851ZM90.6498 114.658C92.2975 115.108 94.0012 115.32 95.7089 115.286C97.571 115.159 99.4097 114.798 101.182 114.213C101.335 115.268 101.279 116.342 101.016 117.375C100.753 118.408 100.288 119.378 99.6489 120.23C99.4944 120.501 99.2714 120.727 99.0023 120.884C98.7333 121.041 98.4275 121.125 98.1158 121.127C97.0427 121.265 94.1145 121.342 93.5166 121.074C91.5773 120.177 90.6192 116.919 90.6498 114.658ZM96.8817 123.09C95.2994 123.24 93.7031 123.078 92.1829 122.614C91.4946 122.427 90.8611 122.077 90.3355 121.595C90.2129 121.465 90.0136 121.204 90.0749 121.043C90.2742 120.537 91.2477 120.276 91.7843 120.185C92.1684 120.77 92.6962 121.248 93.3173 121.572C94.0839 121.963 98.3304 121.917 99.12 121.511C99.6121 121.21 100.029 120.801 100.339 120.315C100.791 120.445 102.37 120.982 102.477 121.411C102.822 122.729 98.2615 123.044 96.8817 123.128V123.09Z" fill="black"/>
</svg>
