<svg width="154" height="154" viewBox="0 0 154 154" fill="none" xmlns="http://www.w3.org/2000/svg">
<path fill-rule="evenodd" clip-rule="evenodd" d="M106.987 73.2515C111.742 71.5893 115.756 68.2982 118.317 63.9609C120.371 60.2815 121.322 55.4829 119.727 49.3965C116.309 36.5414 106.918 31.8961 92.6376 37.6069C89.1651 38.9944 82.2432 43.0724 80.2272 50.3776C78.5484 56.4334 80.7791 62.5735 84.1596 67.8703C89.4258 76.1414 97.8348 76.3407 106.987 73.2515ZM80.6794 50.5386C82.5805 43.3484 89.3261 39.2473 92.7373 37.8829C105.669 32.7163 115.649 35.9972 119.145 49.5881C120.678 55.4522 119.75 60.0898 117.757 63.6466C115.274 67.8465 111.386 71.0339 106.78 72.6459C97.9191 75.6431 89.786 75.5358 84.6655 67.579C81.354 62.4508 79.108 56.441 80.6794 50.5386Z" fill="white"/>
<path fill-rule="evenodd" clip-rule="evenodd" d="M101.269 42.6661C107.225 44.3218 110.69 49.7107 112.315 55.6975C112.351 55.8841 112.426 56.0611 112.534 56.2171C112.643 56.3732 112.783 56.5048 112.945 56.6037C113.107 56.7025 113.289 56.7663 113.477 56.791C113.666 56.8157 113.857 56.8008 114.04 56.7471C114.222 56.6935 114.391 56.6024 114.536 56.4795C114.681 56.3567 114.799 56.205 114.882 56.034C114.965 55.863 115.011 55.6765 115.018 55.4866C115.025 55.2966 114.992 55.1074 114.921 54.9309C112.744 48.0779 108.643 42.7428 101.499 41.6313C101.427 41.6074 101.35 41.599 101.274 41.6066C101.198 41.6142 101.125 41.6377 101.058 41.6755C100.992 41.7134 100.935 41.7647 100.89 41.8262C100.844 41.8877 100.813 41.958 100.797 42.0325C100.78 42.107 100.78 42.1841 100.796 42.2588C100.811 42.3335 100.842 42.404 100.887 42.4659C100.931 42.5279 100.988 42.5797 101.054 42.6182C101.12 42.6566 101.193 42.6808 101.269 42.6891V42.6661ZM103.484 22.6285C103.494 22.6607 103.51 22.6907 103.531 22.7168C103.552 22.7429 103.578 22.7646 103.608 22.7806C103.637 22.7966 103.67 22.8067 103.703 22.8102C103.736 22.8136 103.77 22.8105 103.802 22.801C103.835 22.7914 103.865 22.7756 103.891 22.7544C103.917 22.7333 103.939 22.7072 103.955 22.6776C103.971 22.6481 103.981 22.6157 103.984 22.5823C103.988 22.5488 103.984 22.5151 103.975 22.4828C102.687 16.9024 103.362 19.6313 101.928 14.2041C101.905 14.1226 101.865 14.0465 101.812 13.9802C101.759 13.9139 101.693 13.8587 101.619 13.8178C101.545 13.7769 101.463 13.751 101.378 13.7417C101.294 13.7323 101.209 13.7397 101.127 13.7633C101.046 13.787 100.97 13.8265 100.903 13.8795C100.837 13.9326 100.782 13.9982 100.741 14.0726C100.7 14.147 100.674 14.2287 100.665 14.3131C100.655 14.3974 100.663 14.4828 100.686 14.5644C102.35 19.9302 101.491 17.232 103.484 22.6285ZM57.4223 45.9929C62.8725 47.3037 60.0976 46.6522 65.7777 47.7407C65.8395 47.7469 65.9016 47.7309 65.9526 47.6954C66.0037 47.66 66.0404 47.6074 66.0561 47.5473C66.0718 47.4872 66.0656 47.4234 66.0384 47.3675C66.0112 47.3116 65.965 47.2672 65.908 47.2424C60.4502 45.4717 63.1484 46.3072 57.7519 44.7435C57.5862 44.6997 57.41 44.7236 57.2619 44.8099C57.1138 44.8962 57.0061 45.0377 56.9624 45.2034C56.9187 45.3691 56.9426 45.5453 57.0288 45.6934C57.1151 45.8415 57.2566 45.9492 57.4223 45.9929ZM109.126 22.2299C109.686 16.5037 109.54 19.3476 109.824 13.7212C109.813 13.5603 109.743 13.4091 109.627 13.2969C109.511 13.1847 109.358 13.1194 109.197 13.1137C109.036 13.108 108.878 13.1622 108.755 13.2659C108.631 13.3696 108.55 13.5155 108.528 13.6752C108.413 19.3323 108.467 16.4578 108.613 22.2145C108.621 22.2755 108.651 22.3314 108.697 22.3725C108.743 22.4135 108.801 22.437 108.863 22.4389C108.924 22.4407 108.984 22.4207 109.033 22.3825C109.081 22.3442 109.114 22.2902 109.126 22.2299ZM68.8362 41.5163C68.8859 41.5604 68.9506 41.5839 69.017 41.582C69.0835 41.58 69.1467 41.5528 69.1937 41.5058C69.2407 41.4588 69.2679 41.3956 69.2699 41.3291C69.2718 41.2627 69.2483 41.198 69.2042 41.1483C65.4481 36.871 67.3491 38.8487 63.4704 34.8243C63.3483 34.7026 63.1829 34.6343 63.0105 34.6343C62.838 34.6343 62.6726 34.7026 62.5505 34.8243C62.4905 34.8841 62.4429 34.9552 62.4104 35.0335C62.3779 35.1117 62.3611 35.1956 62.3611 35.2804C62.3611 35.3651 62.3779 35.4491 62.4104 35.5273C62.4429 35.6056 62.4905 35.6767 62.5505 35.7365C66.5519 39.6382 64.5895 37.7295 68.8362 41.5163ZM39.393 28.8299C39.2551 28.1783 38.6265 28.0633 37.9903 28.0633C37.7655 28.0769 37.5487 28.1513 37.363 28.2786C37.1773 28.4059 37.0297 28.5813 36.936 28.7861C36.8423 28.9908 36.806 29.2171 36.831 29.4409C36.8561 29.6646 36.9415 29.8774 37.0781 30.0564C37.9596 31.0759 40.0523 30.2863 39.393 28.8299ZM37.561 29.0292C37.6152 28.9233 37.6932 28.8314 37.789 28.7609C37.8848 28.6904 37.9957 28.6432 38.1129 28.6229C38.5575 28.5079 38.9944 28.5003 39.1861 28.9142C39.439 30.2633 37.0167 30.1483 37.561 29.0292ZM39.4697 46.0466C39.2139 45.9228 38.9393 45.8425 38.6572 45.809C38.0376 45.7688 37.4164 45.8576 36.8328 46.0696C36.5798 46.1846 36.4035 46.2919 36.2885 46.3532C35.9972 46.5295 36.1122 46.6828 36.2885 46.6675C36.8656 46.6406 37.4397 46.5688 38.0056 46.4529C38.0822 46.4529 39.2167 46.2995 39.4084 46.2995C39.4412 46.3058 39.4752 46.2991 39.5032 46.281C39.5313 46.2629 39.5514 46.2347 39.5592 46.2022C39.5671 46.1697 39.5622 46.1355 39.5455 46.1065C39.5289 46.0776 39.5017 46.0561 39.4697 46.0466ZM44.8126 45.6097C44.778 45.6168 44.7477 45.6373 44.7283 45.6668C44.7089 45.6963 44.702 45.7322 44.7091 45.7668C44.7162 45.8014 44.7367 45.8317 44.7662 45.8511C44.7957 45.8705 44.8317 45.8774 44.8662 45.8703H45.8397C47.0509 45.8703 46.2537 45.9623 47.8788 45.8703C47.907 45.8633 47.9321 45.847 47.95 45.8241C47.968 45.8012 47.9777 45.7729 47.9777 45.7438C47.9777 45.7147 47.968 45.6864 47.95 45.6635C47.9321 45.6406 47.907 45.6243 47.8788 45.6173C47.4066 45.3646 46.8811 45.228 46.3457 45.2187C45.8084 45.2055 45.2779 45.3408 44.8126 45.6097ZM39.1937 47.8326C39.1876 47.7473 39.1479 47.6678 39.0832 47.6117C39.0185 47.5557 38.9342 47.5276 38.8488 47.5337C38.7634 47.5398 38.6839 47.5796 38.6279 47.6443C38.5718 47.7089 38.5437 47.7933 38.5498 47.8786L38.6035 48.5992C38.6065 48.6415 38.6178 48.6828 38.6368 48.7207C38.6558 48.7586 38.682 48.7924 38.7141 48.8201C38.7461 48.8479 38.7833 48.8691 38.8235 48.8824C38.8637 48.8958 38.9062 48.9012 38.9484 48.8982C38.9907 48.8951 39.032 48.8838 39.0699 48.8648C39.1078 48.8459 39.1416 48.8196 39.1694 48.7876C39.1971 48.7556 39.2183 48.7184 39.2317 48.6782C39.2451 48.6379 39.2504 48.5955 39.2474 48.5532L39.1937 47.8326ZM45.993 47.1044C45.909 47.0904 45.8228 47.1087 45.7517 47.1556C45.6806 47.2025 45.6299 47.2746 45.6098 47.3574C45.5903 47.633 45.5903 47.9096 45.6098 48.1853C45.6217 48.2631 45.6612 48.334 45.7209 48.3853C45.7807 48.4366 45.8568 48.4648 45.9356 48.4648C46.0143 48.4648 46.0904 48.4366 46.1502 48.3853C46.2099 48.334 46.2494 48.2631 46.2613 48.1853V47.4877C46.2701 47.4448 46.2701 47.4006 46.2612 47.3577C46.2524 47.3148 46.2348 47.2742 46.2097 47.2383C46.1846 47.2024 46.1524 47.172 46.1152 47.149C46.0779 47.126 46.0364 47.1108 45.993 47.1044ZM40.9721 55.8431C41.3046 56.0952 41.6839 56.2785 42.0879 56.3825C42.4919 56.4865 42.9126 56.509 43.3254 56.4487C43.723 56.3792 44.1063 56.2445 44.4599 56.0501C44.4774 56.0471 44.494 56.0404 44.5086 56.0304C44.5232 56.0205 44.5355 56.0074 44.5446 55.9923C44.5537 55.9771 44.5594 55.9601 44.5613 55.9425C44.5633 55.9249 44.5614 55.9071 44.5558 55.8904C44.5502 55.8736 44.541 55.8582 44.5289 55.8453C44.5168 55.8324 44.5021 55.8222 44.4857 55.8156C44.4693 55.8089 44.4517 55.8058 44.434 55.8066C44.4163 55.8074 44.399 55.812 44.3833 55.8201C43.6756 55.9424 42.9523 55.9424 42.2446 55.8201C41.5669 55.6132 40.9454 55.254 40.4279 54.7699C40.3359 54.6396 40.1366 54.7699 40.2363 54.9079C40.4181 55.2647 40.6681 55.5824 40.9721 55.8431ZM64.1756 100.556C64.4132 100.556 63.3477 90.3225 62.0829 81.6068C61.9526 80.687 61.784 80.9859 61.7916 81.0626C62.4202 89.0041 63.6774 98.4786 64.0913 100.433C64.0938 100.459 64.1028 100.484 64.1176 100.506C64.1323 100.527 64.1523 100.544 64.1756 100.556Z" fill="white"/>
<path fill-rule="evenodd" clip-rule="evenodd" d="M149.117 95.65C147.791 93.0897 143.813 88.4521 139.006 83.3085C141.735 81.8598 143.514 80.6793 143.82 79.974C144.027 79.4988 143.345 79.0235 142.916 78.7322C140.769 77.2605 134.545 74.3322 126.887 70.8981C125.599 69.618 124.35 68.3915 123.185 67.2416C126.895 61.2626 127.339 54.5322 125.553 47.7253C120.854 29.949 107.693 25.7023 90.4223 32.5936C85.915 34.3873 76.9464 39.6535 74.3248 49.0438C73.4721 52.1031 73.3201 55.3154 73.8802 58.4417C68.8976 60.3504 62.5123 62.8033 54.4022 65.7315C52.4015 64.7274 51.5889 64.5357 51.6042 64.4284C51.6168 64.367 51.6127 64.3035 51.5925 64.2442C51.5723 64.1849 51.5367 64.1321 51.4893 64.0911C49.9562 63.1406 47.4112 62.8417 47.0203 63.1713C46.8216 63.3161 46.6502 63.4952 46.5144 63.7002L45.3875 60.0514C46.0851 59.7601 47.8022 58.7713 49.0133 55.7741C49.8842 53.3934 50.3103 50.8731 50.2705 48.3385C50.5969 47.8415 50.7546 47.2524 50.7201 46.6587C50.6856 46.065 50.4607 45.4982 50.0788 45.0424C50.0788 44.8584 50.0252 44.6821 50.0022 44.4981C50.1638 43.9442 50.2918 43.381 50.3854 42.8117C50.3854 41.9148 50.6001 40.512 50.1861 39.6688C50.1315 39.267 50.1315 38.8596 50.1861 38.4577C50.1861 37.1546 48.5457 36.5643 47.3729 35.4605C47.3729 34.579 47.4419 33.6131 47.4495 32.8236C49.7809 32.167 52.0631 31.3473 54.2795 30.3706C54.6781 30.1636 55.2913 29.8263 55.299 29.4047C55.299 27.6033 39.5617 23.441 37.6224 23.8932C37.5534 23.6786 23.0119 28.9601 20.7583 31.2138C20.7088 31.259 20.6692 31.3141 20.6422 31.3755C20.6151 31.4368 20.6012 31.5032 20.6012 31.5702C20.6012 31.6373 20.6151 31.7036 20.6422 31.765C20.6692 31.8264 20.7088 31.8814 20.7583 31.9267C20.5225 33.0672 20.5645 34.2477 20.8809 35.3685C20.644 35.3865 20.4173 35.4725 20.228 35.6163C20.0388 35.76 19.8951 35.9553 19.8141 36.1787C19.7332 36.4021 19.7184 36.6441 19.7717 36.8757C19.825 37.1073 19.944 37.3186 20.1144 37.4842C19.3478 38.5497 19.4628 40.8033 20.03 41.9608C20.0313 41.9802 20.0368 41.9991 20.0463 42.0161C20.0557 42.0331 20.0689 42.0477 20.0847 42.059C20.1006 42.0702 20.1187 42.0778 20.1379 42.0811C20.157 42.0844 20.1767 42.0834 20.1954 42.0781C20.2141 42.0729 20.2314 42.0635 20.246 42.0507C20.2606 42.0379 20.2722 42.0219 20.2799 42.0041C20.2875 41.9862 20.2911 41.9669 20.2903 41.9474C20.2895 41.928 20.2844 41.909 20.2753 41.8918C20.1914 40.4834 20.2273 39.0705 20.3827 37.6681C20.5335 37.7441 20.6974 37.7909 20.8656 37.8061C20.5564 39.1405 20.6416 40.536 21.1109 41.8228C21.1179 41.8511 21.1342 41.8762 21.1571 41.8941C21.18 41.912 21.2083 41.9218 21.2374 41.9218C21.2665 41.9218 21.2947 41.912 21.3177 41.8941C21.3406 41.8762 21.3568 41.8511 21.3638 41.8228C21.4865 39.6765 21.2489 39.7608 21.2259 37.8445C22.2684 37.7295 21.1722 36.8863 22.3067 41.6772C22.3019 41.6964 22.3016 41.7164 22.3057 41.7358C22.3099 41.7551 22.3184 41.7733 22.3305 41.7889C22.3427 41.8044 22.3583 41.8171 22.3761 41.8257C22.3939 41.8344 22.4134 41.8389 22.4332 41.8389C22.453 41.8389 22.4725 41.8344 22.4903 41.8257C22.5081 41.8171 22.5236 41.8044 22.5358 41.7889C22.548 41.7733 22.5565 41.7551 22.5606 41.7358C22.5648 41.7164 22.5644 41.6964 22.5597 41.6772C22.6784 40.2697 22.5061 38.8529 22.0537 37.5148C22.1665 37.4181 22.2601 37.3011 22.3297 37.1699C22.8433 37.6298 22.7283 39.2319 23.3645 41.6849C23.3715 41.7131 23.3878 41.7382 23.4107 41.7561C23.4337 41.7741 23.4619 41.7838 23.491 41.7838C23.5201 41.7838 23.5484 41.7741 23.5713 41.7561C23.5942 41.7382 23.6105 41.7131 23.6175 41.6849C23.6175 40.3894 23.6635 37.3155 22.4217 36.9016C22.4527 36.7253 22.4452 36.5444 22.3997 36.3713C22.3543 36.1982 22.2719 36.037 22.1584 35.8987C22.0448 35.7603 21.9027 35.6482 21.7417 35.5699C21.5808 35.4916 21.4048 35.4491 21.2259 35.4452C21.2963 34.455 21.2963 33.4611 21.2259 32.4709C21.1722 32.0187 20.8196 32.7622 28.3548 34.1267C28.4084 34.9776 28.5004 36.2654 28.6154 37.4229C27.8852 38.1911 27.2823 39.0709 26.8293 40.0291C26.1241 41.6849 26.8293 43.218 27.3506 44.7894C27.4579 45.096 27.4809 45.441 27.5576 45.7629C27.6802 46.3302 27.8719 46.3225 27.8182 46.8897C27.7645 47.457 27.4043 48.2389 27.6342 48.8981C28.0411 49.6988 28.557 50.4392 29.1673 51.0981C29.5905 51.5738 29.858 52.1677 29.9339 52.7998C29.9339 53.3824 31.1757 54.172 31.5436 54.2026L32.0189 55.4444C32.4252 56.487 35.1924 59.0779 36.0203 59.8368C36.1046 60.5113 36.2809 62.1364 36.3192 63.2709C36.0484 63.1885 35.7716 63.1269 35.4914 63.0869C31.9806 63.0333 15.3694 69.526 9.55131 80.135C0.651663 96.4165 8.19452 107.455 8.22518 107.532C3.19661 112.552 0.222395 124.373 12.1882 129.547C16.6327 131.395 21.2954 132.668 26.0628 133.334C25.9938 134.66 25.9018 140.179 27.2203 140.233C27.6726 140.233 28.0328 139.673 28.2705 139.236C29.0284 137.639 29.6465 135.98 30.1178 134.276C32.4175 134.123 32.3408 134.161 32.4175 134.046C43.8352 134.91 55.3178 134.076 66.4906 131.571C66.5826 131.571 66.5826 131.609 66.7359 130.934L68.1311 130.697C75.7966 142.777 72.9757 128.604 70.6223 125.208C70.3551 124.716 69.907 124.348 69.3729 124.181C71.1 123.225 72.7643 122.16 74.3554 120.992C78.8013 123.734 83.409 126.204 88.1534 128.389C91.6335 129.922 139.819 111.18 141.551 107.141C141.758 106.665 141.076 106.19 140.654 105.899C139.546 105.186 138.396 104.539 137.213 103.959L137.305 103.262C144.778 108.451 151.072 99.4291 149.117 95.65ZM21.9618 36.2194C22.253 37.5608 19.8307 37.4535 20.3367 36.3344C20.3899 36.227 20.4676 36.1337 20.5634 36.0618C20.6593 35.9899 20.7706 35.9415 20.8886 35.9204C21.3332 35.8131 21.7701 35.8054 21.9618 36.2194ZM126.021 92.7524C115.374 96.9991 100.135 102.396 91.7715 104.136C91.7526 104.136 91.7339 104.14 91.7169 104.149C91.6998 104.157 91.6848 104.169 91.6728 104.183C91.6608 104.198 91.6521 104.215 91.6473 104.233C91.6426 104.252 91.6419 104.271 91.6453 104.289C91.6486 104.308 91.656 104.326 91.6669 104.341C91.6778 104.357 91.692 104.369 91.7083 104.379C91.7247 104.388 91.743 104.394 91.7618 104.396C91.7807 104.397 91.7997 104.395 91.8175 104.389C100.878 102.71 115.703 97.6584 126.435 93.1817C127.14 93.9099 127.838 94.6305 128.52 95.3204C117.941 99.866 101.039 106.267 92.1011 108.275C92.0827 108.277 92.0648 108.282 92.0486 108.291C92.0325 108.3 92.0184 108.312 92.0074 108.327C91.9964 108.342 91.9886 108.359 91.9847 108.377C91.9807 108.395 91.9807 108.414 91.9845 108.432C91.9884 108.45 91.996 108.467 92.0069 108.482C92.0179 108.497 92.0319 108.509 92.048 108.518C92.0641 108.527 92.0819 108.533 92.1003 108.535C92.1187 108.536 92.1373 108.534 92.1547 108.528C101.905 106.55 118.217 100.571 128.903 95.7036L129.907 96.7155C117.305 102.173 92.4844 112.629 89.0272 113.104C88.2607 108.865 89.3875 103.622 90.9589 101.345C94.5387 101.414 110.307 95.8723 123.714 90.3225C124.49 91.1197 125.259 91.9297 126.021 92.7524ZM89.2878 117.642C86.8349 116.592 83.922 115.113 80.7025 113.357C80.8962 112.803 81.0448 112.234 81.1471 111.656C83.8453 113.066 86.5129 114.392 89.2418 115.58C91.7485 116.684 118.639 106.796 133.249 99.9273C133.709 100.349 134.146 100.748 134.568 101.115C120.463 107.884 91.7485 118.662 89.2878 117.604V117.642ZM135.089 101.545C135.672 102.035 136.208 102.472 136.691 102.84C136.598 104.034 136.371 105.215 136.017 106.359C133.564 107.585 90.9819 125.982 87.7241 125.982C87.0802 123.177 87.9924 120.578 89.6405 118.233C95.1596 118.325 123.691 107.095 135.089 101.537V101.545ZM47.5262 89.2646C47.698 89.1512 47.8596 89.0229 48.0091 88.8814C48.6914 88.2068 48.3771 87.4402 47.6872 87.3483C48.3387 86.6354 47.9555 85.6235 46.591 85.9378C45.8316 86.1277 45.1442 86.5353 44.6133 87.1106C44.3757 86.4667 44.1534 85.7538 43.6858 85.5162C43.3868 81.9901 43.1799 79.1002 43.2412 78.4563C43.8855 78.3897 44.5359 78.4155 45.1729 78.5329C69.0279 79.6444 56.0886 82.9099 72.2091 73.466C72.6537 75.1448 73.0983 77.6514 73.5122 80.4186C72.8688 80.228 72.1938 80.168 71.5269 80.2423C70.1318 80.365 70.0858 81.4458 70.9213 81.9057C70.7727 81.9681 70.6475 82.0758 70.5635 82.2134C70.4796 82.351 70.4412 82.5116 70.4537 82.6723C70.515 83.2319 71.1359 83.4925 71.6802 83.6458C71.1053 84.0751 70.8753 84.857 71.6035 85.2632C72.4191 85.6515 73.3296 85.7953 74.2251 85.6772C74.6544 89.1343 74.9917 92.4305 75.1987 94.5308C73.5889 96.2862 67.2189 102.718 64.9575 103.484C64.2676 103.722 45.9088 101.361 45.1806 101.261C45.1039 100.495 44.7206 96.6235 44.3144 92.2772C45.9088 92.0319 48.1471 91.365 48.3694 90.3761C48.4767 89.8625 48.0245 89.4333 47.5262 89.2646ZM73.9415 84.1671C74.3325 84.1671 74.6161 83.4005 73.083 83.4005C72.5617 83.2472 72.0711 83.2089 71.5499 83.0096C70.3617 82.542 71.6495 82.243 72.876 82.519C73.6426 82.772 73.9109 82.0591 73.0446 81.8981C72.9297 81.8981 70.4307 81.4152 71.0516 81.0319C71.2148 80.9485 71.3911 80.8941 71.5729 80.8709C72.4625 80.7097 73.3804 80.8845 74.1485 81.3615C75.007 81.9901 74.7617 84.0904 74.4704 85.1942C74.3708 85.4779 74.0872 85.5469 73.7499 85.5392C73.08 85.4704 72.4281 85.2809 71.8258 84.9796C71.5729 84.8263 71.5805 84.6807 71.6802 84.5044C72.1784 83.5538 73.4049 84.1901 73.9645 84.1671H73.9415ZM75.7506 94.8988C75.8962 94.7455 75.8349 94.6458 75.6969 93.3657C80.3976 96.2447 85.2605 98.8502 90.2614 101.169C88.0307 104.626 87.5171 111.019 88.7283 114.63C85.5547 113.196 83.807 112.33 81.2084 110.858C81.8753 104.841 77.598 98.8235 73.4203 97.2444C74.4628 96.2556 75.2906 95.4047 75.7736 94.8988H75.7506ZM89.6021 115.021C89.3799 114.528 89.2078 114.015 89.0885 113.488C93.3582 112.943 118.064 102.511 130.375 97.1831C131.187 97.9496 131.977 98.7162 132.728 99.4827C118.501 106.052 92.699 115.665 89.6251 115.021H89.6021ZM74.7387 49.1664C77.2837 39.8988 86.076 34.6019 90.522 32.8312C107.478 26.0702 120.417 30.3399 124.971 47.8786C126.956 55.4904 125.737 61.5308 123.085 66.1608C119.367 72.6918 112.867 76.4173 108.728 77.8124C97.1756 81.7218 86.4976 81.6451 79.844 71.312C75.5206 64.6277 72.623 56.8396 74.7387 49.1664ZM73.9262 58.9169C74.9053 63.4614 76.7421 67.7775 79.338 71.634C83.0328 77.3754 87.8774 79.8284 92.722 80.5796C98.9004 81.5378 105.094 79.7211 108.935 78.4256C109.933 78.0836 110.908 77.6791 111.855 77.2145C115.052 80.8556 119.153 85.4242 123.223 89.7629C122.135 90.2228 121.026 90.6827 119.896 91.1427C106.643 96.5085 92.354 101.422 90.6446 100.686C85.4943 98.3404 80.4876 95.6912 75.6509 92.7524C75.6509 92.7524 75.2983 89.4716 74.7311 85.2709C75.145 83.9524 75.5513 81.8291 74.4858 80.9629C74.3576 80.857 74.2189 80.7645 74.0718 80.6869C73.716 78.1389 73.217 75.613 72.5771 73.1211C72.5687 73.0918 72.5541 73.0646 72.5344 73.0413C72.5146 73.0181 72.4902 72.9993 72.4626 72.9862C72.435 72.9732 72.405 72.9661 72.3745 72.9656C72.344 72.9651 72.3138 72.971 72.2858 72.9831C72.1938 72.9831 71.7415 73.2974 71.0746 73.7497L69.1122 73.0751C69.0049 73.0368 69.1122 72.9141 65.5861 75.0528C62.7605 71.1965 59.0584 68.0672 54.7854 65.9232C62.6502 63.1559 68.9896 60.7796 73.9262 58.9169ZM61.5311 77.6131C61.6077 77.6131 68.9283 73.2131 69.0356 73.2514L70.791 73.8723C57.545 82.3044 66.3373 79.1308 45.4948 78.0117C46.752 77.0612 47.0279 76.8619 47.0739 76.8159C47.9018 76.2869 61.1631 77.5364 61.5311 77.6131ZM49.4732 45.0424C49.6277 46.1185 49.6893 47.2059 49.6572 48.2925C49.024 48.9162 48.1771 49.2753 47.2886 49.2967C45.9701 49.3657 44.529 49.2047 44.0461 47.9706C42.6356 44.4981 47.7408 43.6932 49.4732 45.0424ZM48.2927 43.2333C48.653 43.7852 48.975 44.2145 49.1743 44.4751C47.4802 43.8005 43.0036 44.1838 43.4098 47.273C42.8289 47.1583 42.2272 47.2142 41.6774 47.434C41.2558 44.1608 35.3227 44.889 34.5332 47.158C34.3489 47.033 34.1405 46.9479 33.9213 46.9083C33.7021 46.8687 33.4771 46.8754 33.2607 46.9281C33.1304 45.51 33.3067 43.4939 34.4412 42.942C34.7631 42.781 35.3687 43.6549 35.8746 43.7852C37.0228 44.0804 38.2151 44.1635 39.3931 44.0305C40.7425 43.9135 42.0838 43.7164 43.4098 43.4403C45.2955 42.988 45.1422 42.5664 46.4377 41.7845C46.5833 41.7002 47.0509 41.4396 47.2043 41.5086C47.9555 41.8918 47.7255 42.3748 48.2927 43.2333ZM41.2558 47.9093C41.2098 49.4424 39.7917 50.2702 38.3199 50.3469C37.0015 50.4235 35.5604 50.2549 35.0774 49.0284C34.8701 48.653 34.7771 48.2251 34.8098 47.7974C34.8425 47.3698 34.9995 46.9611 35.2614 46.6215C36.7025 44.935 41.3938 44.8354 41.2558 47.9093ZM29.3206 39.5845C28.9373 37.7777 28.6812 35.9463 28.5541 34.1037C33.23 34.9392 38.3429 35.5448 38.9332 35.3302C39.6384 35.0772 43.1799 34.1114 46.7673 33.0305C46.729 35.4452 46.5833 37.0012 46.568 37.4918C40.7524 37.4376 34.9545 38.1411 29.3206 39.5845ZM21.1569 31.5664C23.1576 29.696 35.614 24.5908 37.6377 24.1385C39.4544 23.7629 52.7311 27.5957 54.6321 29.4047C53.329 30.7462 40.198 34.1957 38.7262 34.7169C37.9367 35.0006 22.851 32.9079 21.1569 31.5664ZM33.8586 57.0849C32.868 56.2119 32.1584 55.0649 31.8196 53.7887C31.7583 53.0221 31.2217 51.1901 30.6774 50.9371C30.0047 50.4132 29.4265 49.778 28.968 49.0591C28.2628 47.9936 28.3318 46.6828 29.5123 46.0772C31.4976 45.0654 32.0112 47.7636 32.4635 48.2312C32.7241 48.4918 33.437 48.1469 33.322 47.365C33.6721 47.5098 34.047 47.5853 34.4259 47.5873C34.3772 48.1219 34.456 48.6605 34.6558 49.1587C35.2077 50.6152 36.7868 50.8835 38.3429 50.8068C40.1597 50.7072 41.7464 49.6033 41.7081 47.8096C42.0764 47.8939 42.459 47.8939 42.8272 47.8096C42.9499 48.2159 43.8774 51.8647 43.5401 52.1176C43.3825 52.2329 43.2097 52.3257 43.0266 52.3936C42.145 52.7539 41.9151 52.6235 41.938 52.8152C41.9389 52.829 41.9427 52.8425 41.9491 52.8548C41.9555 52.8671 41.9644 52.8779 41.9752 52.8865C41.9861 52.8952 41.9986 52.9015 42.012 52.9051C42.0254 52.9086 42.0393 52.9093 42.053 52.9072C42.8196 52.9072 44.2147 52.7002 44.1764 51.972C44.1164 50.5038 43.7482 49.0647 43.0955 47.7483C43.2254 47.7063 43.3512 47.6524 43.4711 47.5873C43.9081 49.4347 45.3875 49.8486 47.3039 49.749C48.1349 49.7167 48.9367 49.4334 49.6035 48.9364C49.5757 51.1837 49.1582 53.409 48.3694 55.5134C46.9666 58.9782 44.8586 59.5148 44.8586 59.5148C44.8165 59.5245 44.7769 59.5427 44.7422 59.5684C44.7075 59.5941 44.6784 59.6267 44.6568 59.6641C44.6353 59.7015 44.6216 59.7429 44.6168 59.7858C44.6119 59.8287 44.616 59.8722 44.6286 59.9134L45.9931 64.3441C44.7436 66.1838 45.1422 66.0842 44.8509 65.9615C43.8161 65.5322 39.1785 64.0681 36.8328 63.4089C36.7777 62.162 36.66 60.9186 36.4802 59.6835C36.4725 59.4305 35.9743 59.2849 33.8586 57.0849ZM30.7924 65.0953C32.5938 66.6284 40.7576 71.4883 43.1645 72.3239C43.4018 72.442 43.6726 72.4745 43.9311 72.4159C44.184 72.3009 44.0691 72.6228 45.1116 66.7281C45.5025 67.1727 46.5144 68.2612 49.113 70.9517C49.1505 70.9935 49.1981 71.0251 49.2513 71.0433C49.3045 71.0615 49.3614 71.0658 49.4167 71.0558C49.472 71.0458 49.5238 71.0219 49.5673 70.9862C49.6107 70.9506 49.6443 70.9044 49.6649 70.8521C50.3345 69.0001 50.8975 67.1113 51.3513 65.195C51.6101 65.251 51.866 65.32 52.1178 65.4019C51.9799 68.8514 52.0182 75.574 48.8293 76.4326C48.2095 76.3956 47.5874 76.4265 46.9743 76.5246C41.984 76.218 36.2426 72.0556 32.8391 68.6138C31.7506 67.5329 30.6621 66.5748 29.6503 65.4633L30.7924 65.0953ZM17.9144 93.128C24.1311 87.5476 33.1917 86.3287 41.4091 88.0381C41.7847 88.1531 41.6774 88.1071 42.076 89.2876C42.503 88.9685 42.896 88.6063 43.2488 88.2068C43.5171 87.9538 42.9269 87.2486 42.9806 86.3134C42.9806 86.1294 43.0266 85.9685 43.2029 85.9378C43.9694 85.8075 43.9694 87.7315 44.4063 87.8925C44.8433 88.0535 44.8586 87.4556 45.8398 86.8883C49.3199 84.857 45.2189 88.2605 45.2189 88.3524C45.2167 88.3973 45.2239 88.4421 45.2401 88.4841C45.2563 88.526 45.281 88.564 45.3128 88.5958C45.3446 88.6276 45.3826 88.6523 45.4245 88.6685C45.4665 88.6847 45.5113 88.6919 45.5562 88.6897C45.9088 88.6897 46.0008 88.2988 47.0893 88.0381C47.2656 87.9922 47.6642 87.9232 47.6948 88.0995C47.7715 88.4674 46.3764 89.165 46.0468 89.3873C44.5597 89.9009 45.0732 90.5218 45.4488 90.4221C46.0544 90.2688 46.5757 89.5713 47.3039 89.8012C47.4955 89.8625 47.8175 90.0618 47.7792 90.2611C47.7408 90.4604 47.4419 90.6827 47.2732 90.8131C45.9854 91.7712 43.1262 92.0779 43.0495 92.1162C43.1109 92.8214 43.6705 93.7949 43.5325 94.0939C41.3505 98.5948 38.3628 102.658 34.7171 106.083C34.6328 106.121 31.6509 108.996 31.053 108.896C30.4551 108.796 31.2677 108.681 33.0614 107.125C37.1632 103.4 40.5077 98.9178 42.9116 93.9253C42.6816 93.1587 41.3785 89.4409 41.1485 88.6514C36.783 87.7381 32.2757 87.7381 27.9102 88.6514C19.5778 90.4834 16.5882 95.0904 16.182 95.1594C15.676 95.1747 17.5234 93.519 17.9527 93.128H17.9144ZM27.2739 139.566C26.7834 138.906 26.5611 136.086 26.6607 133.433C27.5652 133.564 28.4621 133.671 29.3666 133.771C29.5046 134.1 29.4663 134.069 29.5353 134.146C29.244 135.173 28.0865 138.745 27.3123 139.566H27.2739ZM66.368 131.264C59.9332 132.493 53.4188 133.262 46.8746 133.564C35.7597 134.108 22.6976 133.372 12.4335 128.918C6.34713 126.289 4.32344 121.904 4.47675 117.658C4.65399 114.117 6.08291 110.753 8.5088 108.168C8.93285 109.249 9.48075 110.278 10.1416 111.234C11.0078 112.246 25.5415 112.92 40.1826 112.951C41.1689 111.984 42.2106 111.076 43.3025 110.23C48.4921 112.177 50.968 113.296 68.0084 123.92L66.368 131.264ZM69.3729 124.656C71.0976 125.262 73.1136 133.518 72.3854 134.844C71.8182 134.69 70.1701 132.72 68.5527 130.244C68.5215 130.195 68.4764 130.157 68.4231 130.133C68.3699 130.11 68.3109 130.103 68.2537 130.114L66.8893 130.398C67.0962 129.463 67.4412 127.814 68.0697 124.886C68.2497 124.738 68.4651 124.639 68.6948 124.598C68.9245 124.558 69.1608 124.578 69.3805 124.656H69.3729ZM68.223 124.097C68.223 123.966 68.292 123.867 68.223 123.805C68.2997 123.805 52.5318 113.771 48.3694 111.855C47.0049 111.226 45.5485 110.613 44.0231 110.007C47.3332 107.428 50.8364 105.106 54.5018 103.063C59.5074 103.676 64.6739 104.243 65.1568 104.074C66.8279 103.522 70.3617 100.288 72.991 97.712C75.8196 98.6319 79.3764 102.311 80.4189 106.98C81.2927 110.874 80.3422 115.343 75.7122 119.152C73.3823 121.04 70.8741 122.696 68.223 124.097ZM140.877 106.957C138.531 110.843 91.4955 129.187 88.3373 127.853C83.6635 125.728 79.1201 123.327 74.7311 120.663C77.2147 118.8 79.3304 116.83 80.4802 113.833C81.7297 114.522 88.322 118.056 89.2648 118.202C87.5478 120.632 86.6509 123.299 87.3255 126.182C87.8007 128.167 133.916 108.045 136.047 107.018C136.262 106.918 136.454 106.842 136.523 106.704C136.79 106.031 136.973 105.328 137.067 104.611C139.198 105.707 140.562 106.55 140.907 106.957H140.877ZM138.516 82.8256C135.227 79.3225 131.578 75.6047 128.152 72.1859C136.231 75.8347 142.379 78.7859 143.153 79.7901C142.64 80.7023 139.42 82.4423 138.546 82.8256H138.516Z" fill="white"/>
</svg>
