<svg width="154" height="154" viewBox="0 0 154 154" fill="none" xmlns="http://www.w3.org/2000/svg">
<path fill-rule="evenodd" clip-rule="evenodd" d="M104.58 147.417C104.565 147.67 104.603 147.925 104.69 148.163L102.764 148.15C102.85 147.936 102.92 147.684 102.995 147.395C103.519 147.401 104.048 147.409 104.58 147.417ZM96.9977 147.312C97.0498 147.661 97.1456 147.918 97.2706 148.11L37.6 147.68C36.7967 147.671 36.5713 147.641 36.6564 147.22C36.7599 146.495 37.1439 143.429 36.953 143.353C36.8984 143.333 36.821 143.53 36.7273 143.77C36.6831 143.883 36.6352 144.006 36.5843 144.119C36.3295 144.735 36.0279 145.331 35.6821 145.901C35.3218 146.397 35.1486 146.342 34.9516 145.631C34.887 145.398 34.8114 145.12 34.7284 144.816V144.815C34.2634 143.108 33.5703 140.562 33.3173 140.404C33.253 142.177 33.3042 143.953 33.4706 145.72C33.59 147.027 32.2369 145.037 31.0846 143.343C30.1363 141.948 29.3239 140.754 29.5796 141.76C30.333 143.701 31.2616 145.568 32.3537 147.339C32.7699 147.992 32.5389 147.999 29.9506 148.074C29.4686 148.088 28.9047 148.104 28.2481 148.128C20.5961 148.399 16.6807 148.644 14.6721 148.769C12.884 148.881 12.607 148.898 12.5499 148.757C12.3363 148.225 22.5749 147.788 28.1216 147.551C30.0186 147.47 31.3668 147.412 31.5604 147.382C31.7374 147.355 31.7328 147.318 31.5443 147.027C30.3935 145.323 29.5384 143.438 29.0147 141.449C28.8974 140.697 29.5451 140.573 29.828 140.88C30.4088 141.506 31.0995 142.503 31.6749 143.333C32.2522 144.167 32.7135 144.833 32.8313 144.789C32.8974 144.764 32.8718 144.21 32.8363 143.443C32.7948 142.545 32.7398 141.354 32.8022 140.377C32.852 139.606 33.5105 139.586 33.722 140.006C34.4049 141.675 34.9609 143.394 35.3854 145.147C35.4738 145.415 35.9668 144.41 36.3313 143.666C36.4662 143.391 36.5837 143.152 36.6564 143.026C37.5463 141.487 37.4053 144.97 37.2696 146.733C37.2663 146.776 37.2597 146.816 37.2536 146.852C37.2425 146.918 37.2332 146.973 37.2503 147.018C37.3306 147.23 37.9949 147.221 41.7915 147.165C43.3176 147.144 45.3498 147.115 48.0537 147.089C48.3873 147.163 48.7249 147.22 49.0653 147.26C52.7194 147.827 61.1515 147.468 61.5355 147.447C62.1271 147.411 62.2258 147.329 62.2242 147.038C70.6608 147.047 81.935 147.116 96.9977 147.312ZM138.046 148.404L110.724 148.207C110.835 147.966 110.842 147.738 110.797 147.512C118.89 147.64 127.87 147.799 137.836 147.998C138.141 148.004 138.286 148.404 138.046 148.404Z" fill="black"/>
<path fill-rule="evenodd" clip-rule="evenodd" d="M110.575 144.129C111.571 143.688 111.935 143.286 111.564 142.335C111.525 142.195 111.45 142.068 111.347 141.966C111.242 141.865 111.114 141.792 110.973 141.758C110.739 141.711 110.582 141.64 110.595 141.49C110.639 141.007 110.398 140.562 110.015 139.855C109.939 139.713 109.855 139.559 109.768 139.393C109.486 138.854 109.243 138.717 109.102 138.637C109.004 138.582 108.956 138.555 108.977 138.438C109.107 137.715 106.008 136.15 104.948 136.849C104.073 136.759 103.189 136.844 102.347 137.097C101.04 137.468 100.669 138.065 100.439 138.432C100.294 138.666 100.206 138.808 99.9711 138.741C99.7902 138.693 99.6016 138.682 99.4169 138.71C99.2321 138.739 99.0551 138.806 98.8979 138.907C98.7209 139.009 98.599 138.84 98.4211 138.596C98.1222 138.185 97.6661 137.558 96.5293 137.639C96.2434 137.678 95.9697 137.777 95.7252 137.928C95.4799 138.08 95.2706 138.282 95.1096 138.522C94.9487 138.761 94.8398 139.031 94.7915 139.315C94.7425 139.599 94.754 139.89 94.826 140.169C95.0246 140.667 96.3185 140.735 96.77 140.724C97.1065 140.715 96.3185 141.251 95.5811 141.27C95.2653 141.279 95.2423 141.444 95.3925 141.685C96.2426 142.734 97.3955 143.495 98.6933 143.866C98.8573 143.919 98.9079 143.963 98.7998 144.074C98.3821 144.429 98.0455 144.869 97.8125 145.365C97.5787 145.861 97.4538 146.401 97.4461 146.949C97.512 148.122 97.9903 148.168 98.4748 148.215C98.5537 148.223 98.6335 148.231 98.7109 148.243C98.8512 148.266 99.0643 148.202 99.0788 148.043C99.0244 147.048 99.2712 146.059 99.7871 145.207C99.8937 145.027 100.142 145.053 99.9933 145.394C99.7066 146.054 99.2268 147.438 99.6208 148.036C99.8653 148.286 100.17 148.468 100.506 148.565C100.842 148.662 101.198 148.67 101.537 148.588C101.711 148.583 101.879 148.524 102.018 148.419C102.157 148.314 102.259 148.168 102.311 148.002C102.409 147.774 102.63 146.884 102.672 146.717L102.678 146.691C102.712 146.56 102.739 146.56 102.789 146.568C103.544 146.691 104.057 146.764 104.403 146.813C104.702 146.855 104.877 146.879 104.975 146.904C105.086 146.931 105.082 147.002 105.076 147.135C105.075 147.164 105.074 147.196 105.073 147.231C105.069 147.714 105.104 148.308 105.517 148.566C105.67 148.651 105.839 148.702 106.013 148.715C106.188 148.728 106.363 148.704 106.527 148.642C106.743 148.546 106.723 148.45 106.684 148.268C106.674 148.219 106.662 148.164 106.653 148.1C106.543 147.317 106.653 146.576 106.73 146.729C106.794 146.856 106.833 147.061 106.878 147.297C107.061 148.25 107.341 149.712 109.759 148.602C109.912 148.532 110.044 148.425 110.142 148.289C110.164 148.234 110.191 148.187 110.218 148.139C110.289 148.017 110.359 147.893 110.326 147.631C110.309 147.496 110.254 147.374 110.199 147.252C110.146 147.134 110.092 147.015 110.073 146.884C109.956 146.611 109.885 146.321 109.863 146.025C109.847 145.739 109.926 145.679 110.152 145.616C111.15 145.378 112.056 144.849 112.753 144.096C112.764 144.074 112.769 144.051 112.769 144.027C112.767 144.002 112.759 143.979 112.746 143.959C112.733 143.939 112.715 143.923 112.693 143.912C112.671 143.902 112.647 143.897 112.623 143.9C111.987 144.141 111.316 144.279 110.636 144.308C110.483 144.302 110.489 144.177 110.578 144.138L110.575 144.129ZM109.003 138.998C109.213 139.197 110.51 141.501 110.084 141.757C109.463 142.058 108.802 142.265 108.12 142.37C108.035 142.379 107.95 142.354 107.883 142.302C107.557 141.619 107.321 140.896 107.182 140.152C107.172 140.114 107.161 140.079 107.152 140.047C107.094 139.852 107.064 139.752 107.277 139.65C107.835 139.392 108.188 139.178 108.419 139.038C108.525 138.975 108.606 138.926 108.668 138.896C108.832 138.817 108.877 138.864 108.951 138.944C108.967 138.961 108.983 138.979 109.003 138.998ZM105.186 138.691C105.237 138.28 105.264 137.868 105.27 137.454C105.103 136.181 109.049 138.254 108.584 138.51C108.319 138.657 108.096 138.783 107.907 138.89C107.01 139.397 106.865 139.479 106.49 139.349C106.048 139.195 105.753 139.119 105.557 139.067C105.18 138.97 105.169 138.967 105.186 138.691ZM106.582 139.811C106.79 139.875 106.802 139.968 106.836 140.245C106.87 140.527 106.928 140.999 107.242 141.825C107.378 142.186 107.453 142.43 107.382 142.515C107.25 142.669 103.871 143.234 102.817 142.285C102.644 142.132 102.65 141.971 102.72 141.687C102.782 141.434 102.894 141.088 103.047 140.614L103.109 140.425C103.231 140.045 103.51 139.937 103.867 139.799C104.137 139.695 104.452 139.573 104.777 139.304C104.869 139.227 104.925 139.247 105.28 139.376C105.529 139.467 105.924 139.61 106.582 139.811ZM104.305 137.159C104.345 137.158 104.383 137.157 104.418 137.156C104.824 137.146 104.891 137.144 104.864 137.655C104.816 138.562 104.757 138.79 104.557 138.935C102.772 140.236 101.559 139.434 100.717 138.877C100.679 138.852 100.642 138.827 100.605 138.804C101.415 137.442 102.733 137.302 104.305 137.159ZM102.305 141.568C102.193 141.517 102.08 141.219 101.943 140.86C101.82 140.54 101.679 140.17 101.505 139.887C101.405 139.724 101.625 139.766 101.658 139.775C102.029 139.842 102.394 139.943 102.748 140.074C102.768 140.091 102.751 140.144 102.731 140.213C102.721 140.245 102.71 140.28 102.702 140.317C102.627 140.75 102.494 141.171 102.305 141.568ZM100.138 144.729C99.8462 144.551 99.6047 144.301 99.4384 144.002C99.4705 143.972 99.4935 143.95 99.5119 143.932C99.538 143.907 99.5541 143.891 99.571 143.877C99.597 143.855 99.6246 143.836 99.6959 143.789C99.7871 143.728 99.9496 143.62 100.268 143.398C100.38 143.32 100.416 143.381 100.477 143.483C100.495 143.513 100.515 143.547 100.54 143.582C100.594 143.658 100.641 143.715 100.678 143.759C100.735 143.827 100.768 143.868 100.772 143.91C100.778 143.974 100.717 144.043 100.567 144.215C100.467 144.33 100.326 144.492 100.138 144.729ZM107.211 145.243C106.97 145.598 106.932 145.859 106.905 146.039C106.879 146.213 106.865 146.313 106.691 146.354C105.478 146.559 104.235 146.501 103.046 146.185C103.037 146.182 103.027 146.18 103.019 146.178C102.963 146.164 102.924 146.155 102.902 146.13C102.854 146.077 102.89 145.949 103.004 145.536C103.029 145.444 103.059 145.335 103.092 145.211C103.17 144.923 103.247 144.938 103.651 145.017C104.078 145.099 104.871 145.253 106.419 145.194C106.628 145.186 106.799 145.168 106.93 145.155C107.196 145.126 107.296 145.115 107.211 145.243ZM103.253 144.327C101.153 143.919 100.912 143.083 100.573 141.911C100.467 141.543 100.351 141.142 100.166 140.711C100.069 140.485 99.8278 140.342 99.5901 140.201C99.4751 140.134 99.3609 140.065 99.2643 139.99C98.4472 139.347 99.2766 138.742 100.193 139.186C101.204 139.676 101.441 140.419 101.666 141.129C101.885 141.819 102.094 142.479 102.994 142.846C104.175 143.33 106.17 143.306 108.25 142.79C108.788 142.657 109.236 142.514 109.608 142.395C110.652 142.061 111.102 141.917 111.278 142.708C111.309 142.807 111.316 142.912 111.297 143.014C111.278 143.116 111.234 143.212 111.17 143.293C110.751 143.654 110.251 143.907 109.713 144.031C107.604 144.576 105.404 144.677 103.254 144.327H103.253ZM95.5841 138.891C95.6002 138.519 96.0019 138.559 95.9329 138.946C95.8762 139.263 95.568 139.272 95.5841 138.891ZM96.8827 138.669C96.6351 138.683 96.6351 139.275 96.865 139.271C96.9555 139.268 97.0383 139.159 97.059 138.999C97.0797 138.84 96.9961 138.662 96.8827 138.669Z" fill="black"/>
<path fill-rule="evenodd" clip-rule="evenodd" d="M126.9 93.3258C122.256 90.1216 122.208 90.0641 121.423 89.1175C121.112 88.7434 120.686 88.2306 119.816 87.3291C118.651 86.1226 117.102 86.6798 115.995 87.9423C115.856 88.0995 115.802 88.2298 115.755 88.341C115.691 88.4935 115.642 88.6108 115.415 88.7166C114.802 89.0025 113.663 89.7974 113.478 90.4505C113.36 90.8667 113.107 90.8759 112.758 90.8897C112.377 90.9051 111.882 90.9242 111.32 91.4738C110.761 92.0196 110.901 92.4788 110.987 92.7662C111.036 92.9287 111.069 93.0361 110.952 93.0752C105.854 94.7738 102.346 95.5266 99.3379 96.172C96.3882 96.8044 93.9207 97.3341 90.9089 98.5506C90.5248 98.6955 90.1523 98.8703 89.7951 99.0734C88.9557 99.5809 88.7487 98.8718 88.981 98.6135C89.6525 97.8715 91.0752 97.1386 92.3002 96.5078V96.507C93.509 95.8846 94.5262 95.3602 94.4381 95.0245C94.1292 93.8363 93.8977 93.0966 93.6547 92.317C93.5926 92.117 93.529 91.9131 93.463 91.6992L93.4531 91.6678C93.4316 91.5988 93.417 91.5528 93.4262 91.5122C93.4454 91.4286 93.5657 91.368 93.9337 91.1841C94.0862 91.1082 94.2817 91.0108 94.5293 90.8813C94.8842 90.6965 94.9839 90.5655 94.7938 90.0235C91.5152 80.6586 89.7568 77.4115 89.0178 76.046C88.738 75.5299 88.6046 75.2828 88.5893 75.0759C88.4697 73.712 88.2175 72.3629 87.8373 71.0477C87.812 70.9807 87.8028 70.9088 87.8097 70.8376C87.8174 70.7664 87.8411 70.698 87.8795 70.6376C88.3294 69.72 88.3363 69.0792 88.3394 68.7049C88.3432 68.3147 88.3448 68.2143 88.843 68.3923C89.6464 68.679 90.5195 67.5085 90.8867 66.7389C91.0538 66.3863 90.9196 66.1616 90.8131 65.9837C90.7809 65.9296 90.751 65.8798 90.7333 65.8321C90.6942 65.7263 90.7188 65.7011 90.8959 65.5182L90.9158 65.4978C91.2324 65.1716 91.8908 64.5691 92.7333 63.7976L92.7348 63.7969L92.7356 63.7956L92.7371 63.7947C93.8448 62.7813 95.2698 61.4767 96.6572 60.1243C99.5188 57.3302 101.463 55.2797 102.6 51.4033C105.262 42.332 99.0665 38.3889 90.288 32.8013C89.3106 32.1794 88.3018 31.5371 87.2693 30.8651C85.5959 29.7762 85.241 29.2726 84.6692 28.4624C84.4906 28.2088 84.2905 27.9252 84.0222 27.5843C82.9843 26.2643 82.0054 25.5146 79.173 24.8247C77.2566 24.4346 75.284 24.4104 73.3587 24.7534C71.6957 25.2063 71.0617 25.7298 70.7382 25.9969C70.4047 26.2724 70.4014 26.275 69.9407 25.6457C68.556 23.7565 68.444 23.592 68.1344 23.1374C68.0828 23.0616 68.0256 22.9775 67.9561 22.8761C67.7811 22.6203 68.1306 22.1569 68.6326 21.4916C69.5818 20.2331 71.0762 18.2521 70.5984 15.5855C70.5022 15.048 70.7528 14.8118 71.0024 14.5765C71.2704 14.3239 71.5373 14.0722 71.3726 13.4499C71.2242 12.8824 71.7393 12.3769 72.2347 11.8906C72.5069 11.6235 72.7732 11.3622 72.9202 11.0996C72.9963 10.9809 73.0457 10.8471 73.0648 10.7074C73.0841 10.5678 73.0728 10.4256 73.0316 10.2907C72.9905 10.1558 72.9206 10.0315 72.8267 9.92633C72.7328 9.82116 72.6172 9.73761 72.4879 9.6815C71.0683 9.07976 70.8322 8.99544 70.4949 9.35725C70.3329 9.52926 70.1514 9.87835 69.9646 10.2376C69.652 10.8388 69.3246 11.4684 69.0492 11.3441C68.7265 11.1991 68.7964 11.1073 69.0105 10.8254C69.2003 10.5755 69.5036 10.1764 69.7475 9.45843C69.9008 9.0169 69.8073 8.82143 69.4347 8.62903C67.9782 7.87827 67.7081 8.67985 67.4452 9.45981C67.2385 10.0734 67.0362 10.6736 66.2643 10.494C65.9705 10.4261 66.1624 10.1762 66.3917 9.87766C66.434 9.82262 66.4776 9.7659 66.5196 9.70833C68.4842 7.02159 65.1858 6.8997 64.9512 8.02192C64.4453 10.448 63.369 9.84707 63.6435 9.36875C63.6528 9.35242 63.679 9.31792 63.7161 9.26886C64.0121 8.87854 65.009 7.5638 63.8351 7.07831C63.3752 6.88974 62.4185 6.9043 62.2545 7.47385C62.1695 8.03878 62.0352 8.59514 61.8528 9.13648C61.6405 9.66233 60.8892 9.51976 61.1246 9.05293C61.3598 8.67034 61.5326 8.25265 61.6366 7.81572C61.7815 6.56319 60.1273 6.35929 59.9732 7.38493C59.9351 7.88907 59.8497 8.38848 59.718 8.87662C59.6152 9.19781 58.8886 9.11578 59.0051 8.64666C59.0277 8.55528 59.0574 8.45218 59.0894 8.34172L59.0895 8.34134C59.3379 7.4816 59.7141 6.17955 57.8246 6.54019C57.1634 6.66625 57.1827 7.42045 57.1995 8.07496C57.2109 8.52286 57.2212 8.92415 57.0113 9.04526C56.8929 9.12245 56.792 9.22356 56.7152 9.34215C56.6383 9.46066 56.5871 9.59404 56.565 9.73355C56.5428 9.87306 56.5501 10.0157 56.5865 10.1522C56.6228 10.2888 56.6873 10.4162 56.7759 10.5262C57.1023 10.857 56.959 11.1539 56.8209 11.4402C56.7182 11.6528 56.6184 11.8597 56.7162 12.0701C56.9033 12.473 56.7921 12.7067 56.4621 13.4007C56.2094 13.932 55.8284 14.7332 55.3548 16.0868C53.6898 20.8394 52.6718 27.2669 57.7004 28.0764C58.8536 28.2625 59.5233 28.2529 59.9176 28.2473C60.4669 28.2394 60.4818 28.2392 60.5251 28.7862C60.5284 28.829 60.3271 29.0316 59.9828 29.3782C57.8576 31.5174 50.2833 39.1415 51.7167 48.531C51.7572 48.7962 51.7967 49.0095 51.8291 49.1841C51.9011 49.5731 51.9376 49.7701 51.8703 49.9208C51.8012 50.0754 51.6227 50.1811 51.2611 50.3953C50.7085 50.7227 49.7281 51.3036 48.0564 52.6995C47.8371 52.8816 47.6256 52.652 47.3517 52.3548C46.8602 51.8212 46.1681 51.0698 44.8699 52.0924C44.6554 52.2616 44.4365 52.2684 44.1938 52.2759C43.8944 52.2853 43.5587 52.2957 43.1505 52.6137C42.2191 53.3393 42.4666 53.8303 42.6542 54.2024C42.7355 54.3638 42.8056 54.5028 42.7634 54.6289C42.7085 54.7632 42.6906 54.9098 42.7115 55.0534C42.7324 55.1969 42.7913 55.3322 42.8822 55.4453C42.9246 55.5087 42.9808 55.5627 43.0358 55.6156C43.1357 55.7118 43.2315 55.804 43.2325 55.9405C43.2 56.1608 43.2367 56.3857 43.3376 56.5842C43.4385 56.7826 43.5987 56.9448 43.796 57.0481C44.0006 57.1476 44.1252 57.1713 44.209 57.1873C44.3397 57.2122 44.3715 57.2182 44.4537 57.4629C44.6836 58.1581 45.9799 58.1374 46.5272 57.8147C47.0278 57.5191 47.347 57.2928 47.578 57.1289C47.9279 56.8807 48.0754 56.7759 48.3447 56.7921C49.5477 56.864 51.0296 56.9238 52.1792 56.9701C53.1495 57.0093 53.8831 57.0388 54.0125 57.0581C54.4804 57.1284 54.6117 57.3574 55.2471 58.4663C55.5401 58.9779 55.9405 59.6766 56.5306 60.6333C56.9883 61.3752 57.47 62.1242 57.9764 62.9119C58.5924 63.8696 59.245 64.8845 59.9357 66.013C61.2279 68.1273 61.696 68.9359 61.9571 69.3868C62.1093 69.6499 62.1912 69.7912 62.325 69.999C62.7747 70.697 63.1203 71.1997 63.3762 71.5719C63.841 72.2482 64.0095 72.4933 63.9674 72.6943C63.9434 72.8085 63.8514 72.9085 63.7071 73.0653C63.5827 73.2005 63.4193 73.378 63.2272 73.6432C60.8764 77.0512 58.7783 80.6272 56.9499 84.3419C52.6803 93.289 52.7761 93.5098 53.9865 94.1974C54.1819 94.3085 53.8591 94.9808 53.3498 96.0417C52.0319 98.7867 49.466 104.13 51.4055 109.068C52.078 110.782 54.2185 112.031 55.1459 112.572C55.2079 112.608 55.2645 112.641 55.3149 112.671C55.6729 112.884 54.8841 113.878 52.8619 112.395C52.0517 111.8 51.4929 111.705 51.5005 112.801C51.512 114.473 51.5935 114.769 52.395 117.681C52.5601 118.281 52.7557 118.991 52.9877 119.848C53.1226 120.347 53.2629 120.857 53.405 121.374L53.4052 121.375C54.3191 124.698 55.3063 128.287 55.4283 130.765C55.4759 131.741 55.6077 136.245 55.3624 136.348C55.2927 136.378 55.2147 136.309 55.1103 136.217C54.8288 135.97 54.3549 135.553 53.3318 136.425C52.4779 137.152 51.5987 138.878 52.2955 139.758C52.3244 139.794 52.3622 139.83 52.4008 139.867C52.5096 139.97 52.6236 140.078 52.5569 140.21C52.5063 140.31 52.4024 140.357 52.2854 140.41C52.2462 140.427 52.2057 140.446 52.1651 140.466C51.9285 140.587 52.1284 140.84 52.3618 141.137C52.5752 141.408 52.8168 141.714 52.7784 141.987C52.7766 142.031 52.7619 142.073 52.7361 142.108C52.7104 142.144 52.6747 142.17 52.6337 142.186C52.5926 142.2 52.548 142.203 52.5056 142.193C52.4631 142.183 52.4246 142.16 52.3951 142.127C52.1982 141.97 52.0331 141.746 51.8752 141.533C51.5661 141.115 51.2843 140.734 50.8444 140.956C50.6695 141.045 50.6813 141.059 50.9203 141.338C51.0511 141.49 51.25 141.722 51.5235 142.089C51.6768 142.297 51.88 142.754 51.6109 142.871C51.4115 142.958 51.2408 142.725 51.0015 142.397L51.0009 142.397C50.9645 142.347 50.9265 142.295 50.8865 142.241C50.5102 141.737 50.0372 141.138 49.7106 141.308C49.5619 141.385 49.5895 141.466 49.6217 141.524C49.668 141.609 49.7622 141.723 49.873 141.858C50.1498 142.193 50.5302 142.654 50.5247 143.091C50.5247 143.234 50.2948 143.344 50.0863 143.142C49.6836 142.751 49.4684 142.428 49.3078 142.186C48.8394 141.483 48.8349 141.476 45.9998 142.508C44.2367 143.149 44.1823 144.241 44.2367 145.03C44.2323 145.289 44.2847 145.547 44.39 145.785C44.7717 146.196 45.225 146.533 45.7277 146.781C47.874 147.801 50.688 147.923 52.4994 147.988C54.661 148.064 57.8798 148.13 60.3948 147.988C60.6587 147.973 60.8911 147.961 61.0955 147.951C62.1237 147.899 62.4477 147.883 62.5327 147.662C62.6368 147.219 62.6368 146.757 62.5327 146.314C62.5038 146.182 62.4799 146.091 62.4618 146.023C62.415 145.848 62.4074 145.819 62.4561 145.584C62.9185 143.414 62.7438 142.491 62.6269 141.873C62.543 141.429 62.4887 141.142 62.7205 140.665C63.195 139.689 63.4626 138.696 62.6439 137.982C62.5442 137.876 62.4795 137.743 62.4588 137.599C62.4381 137.455 62.4624 137.308 62.5281 137.179C63.6271 130.904 63.9065 130.237 64.6877 128.371C65.1335 127.306 65.7427 125.851 66.761 122.741C69.0114 115.865 67.2344 111.967 66.1991 109.695C65.7998 108.82 65.5109 108.185 65.6058 107.716C65.8419 106.55 67.1244 105.1 69.7989 102.28C69.9788 102.09 70.1366 101.92 70.2766 101.77C70.8884 101.113 71.1609 100.821 71.4686 100.777C71.7154 100.742 71.985 100.867 72.4709 101.093C72.7607 101.227 73.1275 101.397 73.6124 101.59C73.9664 101.729 74.2741 101.85 74.5424 101.956L74.5446 101.957C75.9525 102.512 76.2674 102.637 76.431 102.53C76.4781 102.499 76.5127 102.449 76.5571 102.384L76.5576 102.383L76.5778 102.355L76.592 102.334C76.7745 102.078 76.9638 101.805 77.1202 101.578L77.1209 101.577H77.1217C77.3195 101.29 77.4667 101.079 77.4843 101.066C77.646 100.958 77.7855 100.864 77.9059 100.783C78.6357 100.29 78.6571 100.275 78.7292 100.446C86.5112 118.924 90.9526 117.885 114.634 98.3483C114.798 98.2126 114.838 98.3682 114.919 98.674C115.058 99.2053 115.316 100.193 116.55 100.9C116.75 101.049 116.982 101.151 117.226 101.2C117.471 101.248 117.723 101.242 117.965 101.181C118.207 101.12 118.433 101.007 118.625 100.848C118.818 100.689 118.973 100.491 119.08 100.265C119.235 99.9457 119.346 99.6782 119.436 99.4598C119.706 98.8082 119.792 98.6004 120.332 98.7936C120.44 98.8327 120.56 98.8756 120.691 98.9224H120.692C121.79 99.3172 123.71 100.006 126.771 100.978C131.533 102.491 133.567 97.9274 126.91 93.3343L126.9 93.3258ZM42.896 53.4078C43.1796 52.7946 43.9608 52.5707 44.0711 52.6804C44.1256 52.7355 43.9301 53.3128 43.6058 53.3495C43.3966 53.3741 43.3337 53.6301 43.5821 53.7244C43.6124 53.7359 43.6541 53.7401 43.6974 53.7445C43.7812 53.7529 43.8711 53.762 43.8964 53.8256C43.9057 53.849 43.9202 53.8798 43.9368 53.915C44.0077 54.0652 44.1171 54.2972 44.032 54.389C43.8569 54.4706 43.6581 54.4859 43.4725 54.4321C43.287 54.3785 43.1271 54.2594 43.0225 54.0969C42.9533 53.9979 42.9061 53.8851 42.8843 53.7662C42.8624 53.6473 42.8664 53.525 42.896 53.4078ZM43.5093 55.4959C43.198 55.4192 42.8776 54.9087 43.2026 54.8826C43.5192 54.8528 43.7336 54.8216 43.8824 54.7999C44.1149 54.7661 44.1873 54.7556 44.2382 54.8098C44.4222 55.0038 44.6215 55.4231 44.5303 55.4307C44.1955 55.5095 43.85 55.5324 43.5077 55.4982L43.5093 55.4959ZM44.3065 56.8013C44.2059 56.8071 44.1055 56.7888 44.0133 56.7482C43.9211 56.7076 43.84 56.6456 43.7764 56.5675C43.7128 56.4895 43.6686 56.3974 43.6475 56.2989C43.6264 56.2004 43.6289 56.0984 43.6549 56.001C43.7002 55.9246 43.8285 55.9079 43.9191 55.896C43.9312 55.8945 43.9427 55.893 43.9531 55.8914L44.0836 55.8727C44.5574 55.8042 44.7614 55.7747 44.8891 55.8592C45.1429 56.0284 45.3056 55.9619 45.528 55.871C45.7086 55.7971 45.9287 55.7071 46.2688 55.7144C46.567 55.7205 46.7288 55.9803 46.5402 56.1398C45.874 56.5689 45.0989 56.7984 44.3065 56.8013ZM47.5038 56.648C47.0774 56.9811 46.6142 57.264 46.1232 57.4912C45.9335 57.5665 45.7285 57.5951 45.5254 57.5745C45.3224 57.554 45.1273 57.4849 44.9565 57.3732C44.7173 57.1851 44.9722 57.1178 45.3782 57.0106C45.6969 56.9264 46.1086 56.8176 46.4474 56.6066C46.7374 56.3752 47.1073 56.268 47.4762 56.3084C47.8073 56.3981 47.6609 56.5514 47.5068 56.648H47.5038ZM53.0904 56.4602C51.7016 56.4335 50.7069 56.4236 49.9883 56.4164C48.1562 56.3983 48.1195 56.3979 47.9246 56.1804C47.8262 56.0684 47.698 55.9868 47.5549 55.9451C47.4118 55.9034 47.2598 55.9034 47.1166 55.9451C47.0473 55.9492 46.9993 55.8531 46.9403 55.7348L46.9212 55.6967C46.8002 55.4554 46.5653 55.4443 46.3653 55.4348C46.2826 55.4309 46.2058 55.4273 46.1454 55.4077C46.0312 55.3709 45.9745 55.246 46.0021 54.9056C46.0212 54.6672 46.2259 54.7477 46.4444 54.8558C46.7878 55.0268 47.7904 55.1348 47.851 54.7991C47.8673 54.7077 47.7454 54.6839 47.5415 54.6439C47.1674 54.5705 46.5167 54.443 45.9346 53.7443C45.2742 52.9508 45.3717 53.5922 45.482 54.3176C45.5196 54.5655 45.5588 54.8232 45.5697 55.0367C45.586 55.1263 45.5704 55.2188 45.5256 55.298C45.4808 55.3773 45.4096 55.4384 45.3245 55.4706C45.1489 55.5266 44.8806 55.0934 44.8047 54.9708C44.2812 54.1169 44.0719 53.6109 44.5602 52.9686C44.8614 52.5321 45.2896 52.199 45.7867 52.0142C46.364 51.8473 46.8746 52.4193 47.2728 52.8655L47.2733 52.866C47.3702 52.9746 47.4607 53.076 47.5436 53.1571L47.5685 53.1815C47.6368 53.2488 47.6852 53.2965 47.7428 53.3142C47.883 53.3573 48.0777 53.223 48.7459 52.7619L48.7466 52.7615C49.0601 52.5451 49.4776 52.257 50.0426 51.8816C50.2995 51.7109 50.524 51.5589 50.7204 51.4258L50.7207 51.4255C52.0886 50.499 52.099 50.4919 52.2893 51.4899C52.6888 53.0923 53.2454 54.6514 53.9512 56.1444C54.0861 56.4495 53.9244 56.4771 53.0934 56.461L53.0904 56.4602ZM88.6008 77.121C88.6146 77.0504 88.6238 76.9814 88.6322 76.9201C88.6912 76.4961 88.7012 76.426 89.6027 78.5099C90.4459 80.4516 92.4857 85.4227 93.1648 87.428C93.1717 87.5491 93.1464 87.5568 92.9149 87.6288C92.2657 87.8289 90.0013 88.5272 82.3205 93.6064C81.5585 94.11 81.5823 94.0686 82.2162 92.9571C82.8494 91.8471 84.0919 89.6694 85.7699 85.9002C87.9968 80.9069 88.1386 79.9994 88.3877 78.398C88.4452 78.0293 88.508 77.623 88.6039 77.1217L88.6008 77.121ZM86.0045 72.2151C85.7745 72.4356 85.691 72.4117 85.5591 72.3739C85.4526 72.3434 85.3138 72.3039 85.0417 72.3753C84.7006 72.4668 84.5151 72.3502 84.3326 72.2356C84.1257 72.1051 83.9218 71.9771 83.4979 72.1607C83.0625 72.3495 82.8992 72.1818 82.7168 71.994C82.5236 71.7959 82.309 71.5753 81.7302 71.7268C81.6781 71.7405 81.626 71.7565 81.5746 71.7725C81.4995 71.796 81.4244 71.8194 81.3469 71.8349C80.4485 72.0156 81.0165 70.7745 81.5133 69.6885C81.8598 68.932 82.1717 68.2507 81.9295 68.1777C81.7118 68.1119 81.4535 68.6722 81.2373 69.1401C81.0886 69.4627 80.9606 69.7413 80.8793 69.7407C80.7958 69.6813 80.7299 69.6009 80.6877 69.5078C80.6455 69.4147 80.6287 69.312 80.6386 69.2102C80.6509 69.0389 80.7 68.8722 80.782 68.7212C80.9506 68.4553 81.084 68.2225 81.1998 68.0203C81.5792 67.357 81.7701 67.023 82.4163 66.929C84.3779 66.6446 84.7688 66.525 85.0877 66.0022C85.2073 65.8075 85.2579 65.8259 86.3096 66.2973C86.3793 66.3282 86.4345 66.3852 86.4629 66.456C86.5572 66.8675 87.0347 67.2269 87.405 67.5058C87.5445 67.6107 87.6687 67.7046 87.7515 67.7852C88.0198 68.0389 88.0481 70.2527 86.0068 72.2136L86.0045 72.2151ZM85.8037 51.9176C85.6963 53.3587 85.7247 54.8288 85.7538 56.3146C85.7983 58.6099 85.8435 60.9425 85.389 63.2626C85.3445 63.4888 85.1736 63.1766 84.4691 61.8913C83.9632 60.9679 83.1828 59.5421 81.9755 57.4529C81.7517 57.0654 81.8383 56.8693 82.2377 55.972C82.4132 55.5771 82.6485 55.0465 82.9452 54.3039C83.4764 52.9751 83.7033 52.1266 83.8405 51.6133C83.9547 51.1863 84.0069 50.9912 84.1203 50.9443C84.2161 50.9048 84.3549 50.9704 84.6109 51.0912L84.6224 51.0967L84.7749 51.1686C85.7224 51.6139 85.8259 51.6624 85.8067 51.9161L85.8037 51.9176ZM85.8167 63.9824C86.3333 64.1254 86.8324 64.3252 87.3053 64.578C87.3521 64.635 87.2655 64.7514 87.1758 64.8735C87.1359 64.9269 87.0961 64.9814 87.0654 65.0325C87.0393 65.0769 87.0148 65.1183 86.9926 65.157L86.9382 65.2512L86.9374 65.2518C86.7419 65.5891 86.6906 65.6777 86.5618 65.7171C86.4683 65.7454 86.3655 65.694 86.2529 65.6379C86.2046 65.6136 86.154 65.5884 86.1018 65.5684C86.003 65.5301 85.9117 65.4959 85.8282 65.4646C84.9873 65.1497 84.9237 65.1258 85.507 64.0812C85.52 64.0533 85.5384 64.0284 85.5622 64.008C85.5852 63.9876 85.612 63.9722 85.6411 63.9627C85.671 63.9533 85.7017 63.95 85.7324 63.9532C85.763 63.9563 85.7929 63.9657 85.8198 63.9808L85.8167 63.9824ZM71.1572 27.8802C73.1502 25.7154 74.9317 25.3138 77.8745 25.3988C81.4612 25.5036 82.6447 26.8894 84.4384 28.9894C84.5611 29.1332 84.6868 29.2805 84.8163 29.4309C86.3556 31.2179 88.8699 32.7533 91.5306 34.3777C95.4039 36.7428 99.587 39.2965 101.518 43.09C103.059 46.1179 102.676 49.6716 101.595 52.3768C100.101 56.1025 97.1977 58.8395 93.7988 62.043C92.744 63.0373 91.6409 64.0766 90.5179 65.2042C90.4313 65.2909 90.3738 65.3461 90.2197 65.2249C89.7782 64.8058 89.2846 64.4463 88.7495 64.1556C88.4843 64.0769 88.2896 64.1257 88.1094 64.1711C87.9224 64.218 87.7499 64.2613 87.5284 64.1556C86.9895 63.9019 86.6308 63.7418 86.3931 63.6357C86.0306 63.4737 85.9493 63.4373 85.9378 63.3855C85.9347 63.3706 85.937 63.3543 85.9401 63.3334L85.9409 63.3277C86.3203 60.4221 86.3533 58.0276 86.3847 55.7015C86.423 52.8968 86.4598 50.1917 87.1014 46.8101C87.1742 46.4268 86.8492 46.3356 86.7182 46.7388C86.3586 48.0249 86.1041 49.3383 85.9585 50.6659C85.9079 50.8805 85.8144 50.9188 85.5676 50.7962C77.308 46.6878 73.905 42.6996 72.3174 40.839C71.636 40.0403 71.289 39.6337 71.0361 39.7778C70.9096 39.8506 70.9778 40.1542 71.3734 40.6601C74.0102 44.0368 75.957 45.5403 76.9538 46.31C77.6874 46.8768 77.9059 47.0457 77.5058 47.2716C76.3276 47.8536 75.0183 48.1188 73.7066 48.041C72.3949 47.9631 71.126 47.545 70.025 46.8277C65.2042 43.4396 66.6974 32.7194 71.1572 27.8802ZM59.2542 37.1646C57.9817 35.922 59.9364 31.9061 60.808 30.9157C60.8768 31.0156 60.9517 31.1484 61.0318 31.2905C61.2388 31.6578 61.4806 32.0868 61.7432 32.1675C61.9937 32.2443 61.8796 31.8477 61.6829 31.1632C61.475 30.4401 61.1749 29.3956 61.1146 28.2489C61.1111 28.1869 61.2462 28.1588 61.4399 28.1186C61.7083 28.0628 62.0894 27.9836 62.3695 27.7583C62.9007 27.3312 62.5005 27.3794 61.6764 27.4789C61.1165 27.5466 60.3606 27.6379 59.5685 27.6195C55.7005 27.5314 54.8113 26.1892 54.5192 23.3269C54.5045 20.6832 55.047 18.066 56.1113 15.646C56.2864 15.3937 56.5444 15.2106 56.8403 15.1286C57.1001 15.0237 57.3492 14.9463 57.5495 14.8841C57.822 14.7994 58.0041 14.7429 58.0001 14.6832C57.9879 14.4847 57.7886 14.3207 57.255 14.4724C57.1799 14.4937 57.1109 14.5155 57.0486 14.5351C56.5276 14.6995 56.473 14.7167 57.1707 13.0796C57.2931 12.7927 57.3296 12.7997 57.5253 12.8373C57.7061 12.872 58.0225 12.9328 58.6678 12.8121C58.9759 12.7548 59.099 12.896 59.2412 13.0592C59.479 13.3321 59.7702 13.6663 61.0686 13.236C61.5349 13.0816 61.6567 13.2583 61.8136 13.486C61.9271 13.6507 62.0589 13.842 62.3526 13.9542C62.9666 14.2016 63.6534 14.1976 64.2644 13.9427C64.6429 13.7904 64.8534 13.976 65.2236 14.3024L65.224 14.3027C65.2764 14.349 65.3322 14.3981 65.392 14.4494C66.0694 15.0308 66.9032 14.8537 67.4521 14.7371C67.551 14.7161 67.6406 14.697 67.7184 14.6848C68.021 14.6374 68.181 14.7605 68.4401 14.9599C68.5624 15.0541 68.7069 15.1652 68.8989 15.2834C69.4384 15.6136 69.7716 15.5901 69.9659 15.5763C70.1325 15.5645 70.1971 15.5599 70.2021 15.7917C70.2488 17.8775 69.9192 18.746 68.7096 20.5351C68.5885 20.7145 68.4375 20.8179 68.403 20.6738C68.3633 20.4421 68.2691 20.2232 68.1279 20.0351C67.9867 19.8472 67.8027 19.6956 67.5912 19.5929C67.3797 19.4902 67.1468 19.4394 66.9118 19.4448C66.6767 19.4502 66.4464 19.5115 66.2398 19.6237C65.4771 19.9671 65.2348 20.8195 65.6158 20.6401C65.9524 20.3249 66.3645 20.1015 66.8124 19.9916C67.8089 19.8161 68.2428 21.1253 67.4256 21.9501C67.3074 22.0694 67.247 21.977 67.1462 21.8228C67.0326 21.649 66.8678 21.3967 66.5111 21.2809C65.9745 21.1062 64.5235 21.642 64.9719 22.8048C65.1838 23.3545 64.8475 23.6549 64.4992 23.9659C64.3575 24.0925 64.2137 24.2209 64.1042 24.3686C63.6105 25.0332 64.4108 26.252 66.1301 24.4667C66.5409 24.098 66.8668 23.6445 67.0853 23.1375C67.2331 22.7518 67.2783 22.8205 68.403 24.5348C68.6661 24.9359 68.9884 25.427 69.3849 26.0236C69.4884 26.1792 69.5742 26.2929 69.6401 26.3802C69.8291 26.6305 69.8545 26.664 69.6624 26.8476C68.5168 27.8185 67.5158 28.948 66.6897 30.202C66.593 30.3526 66.2462 30.7686 65.8215 31.2779L65.8211 31.2784L65.8207 31.2789C65.3805 31.8069 64.8568 32.4349 64.4414 32.9716C64.1262 33.3791 63.8115 33.8104 63.499 34.2387C61.9656 36.3399 60.4851 38.3688 59.2542 37.1646ZM65.3996 22.5595C65.323 22.2246 65.438 21.8857 66.0497 21.7209C66.6123 21.5676 66.8269 21.9402 66.7771 22.6339C66.6966 23.7469 64.6944 25.2218 64.4859 24.9006C64.3702 24.7221 64.4462 24.6469 64.6794 24.4161C64.8167 24.2802 65.0085 24.0904 65.2479 23.7937C65.3797 23.6196 65.4632 23.4138 65.4898 23.1971C65.5165 22.9803 65.4853 22.7604 65.3996 22.5595ZM49.0652 147.26C47.9121 147.125 46.7907 146.793 45.7499 146.279C44.5639 145.608 44.5791 145.399 44.6352 144.633L44.6399 144.567C44.6553 144.359 44.7373 144.312 44.9243 144.396C45.3156 144.572 45.6236 144.737 45.9099 144.89C47.1271 145.542 47.9536 145.986 53.1387 146.108C56.8205 146.196 59.0004 146.068 60.2939 145.992C62.0222 145.89 62.168 145.882 62.2 146.603C62.2036 146.684 62.2086 146.756 62.2131 146.822C62.2454 147.292 62.2532 147.404 61.5355 147.447C61.1514 147.468 52.7194 147.827 49.0652 147.26ZM63.2679 130.717C62.5111 133.622 62.2542 135.379 62.0849 136.535C61.9066 137.755 61.8254 138.309 61.3599 138.842C60.0897 140.298 58.2477 140.673 57.472 140.17C55.9617 139.19 56.0159 137.584 56.0929 135.303C56.1411 133.879 56.198 132.191 55.889 130.228C55.8171 129.769 55.8477 129.775 56.5756 129.909C56.9181 129.973 57.4149 130.065 58.1281 130.151C59.4002 130.303 60.5367 130.349 61.4159 130.385C62.614 130.434 63.3342 130.462 63.2679 130.717ZM66.738 120.134C65.9163 123.317 64.9117 126.452 63.7293 129.519C63.59 129.907 63.5242 129.904 63.1614 129.889L63.0969 129.887C62.388 129.807 61.4018 129.735 60.3822 129.662C58.1656 129.502 55.7907 129.33 55.7618 129.023C55.2057 125.667 54.4375 122.35 53.4621 119.091C53.3433 118.691 53.4521 118.729 54.0031 118.922C54.5429 119.109 55.507 119.446 57.0971 119.664C62.3484 120.383 64.8802 120.031 65.9944 119.875C66.6959 119.777 66.8355 119.758 66.738 120.134ZM76.3253 101.822C76.0544 102.261 71.1034 99.761 68.8173 98.6058L68.8126 98.6035C68.416 98.4034 68.1 98.244 67.9032 98.1474L67.8367 98.1152C67.6797 98.0393 67.5933 97.9972 67.5559 97.9282C67.5101 97.8446 67.5377 97.7205 67.5991 97.4445C67.6854 97.0574 67.8385 96.3698 67.9484 95.0728L67.9493 95.0613C67.9995 94.4695 68.0936 93.358 67.6671 93.7697C66.7 94.701 66.0832 95.3357 65.6685 95.7627C65.0795 96.3683 64.8982 96.5553 64.6998 96.5752C64.6115 96.5844 64.5199 96.5607 64.3876 96.5254C64.3399 96.5131 64.2868 96.4993 64.2268 96.4848C60.7336 95.7734 57.3064 94.7692 53.9811 93.4845L53.9783 93.4837C53.8691 93.4385 53.8031 93.4109 53.7781 93.3626C53.7397 93.2883 53.7977 93.1641 53.9445 92.8498C54.042 92.6413 54.1786 92.3492 54.3521 91.9322C54.5183 91.5321 54.5226 91.5336 55.4231 91.8862C56.433 92.2818 58.57 93.1189 63.3261 94.3246C63.7131 94.4235 63.7788 94.3775 64.8369 93.6363C65.2459 93.3503 65.8033 92.9602 66.5847 92.4343C66.9044 92.2197 69.1772 90.7096 69.3274 90.6291C69.3428 90.6207 69.3578 90.6122 69.3724 90.6046C69.7017 90.4175 69.8279 90.3462 70.4328 95.3687C70.4673 95.6569 70.4775 95.8462 70.4854 95.9926C70.5044 96.3437 70.5099 96.4472 70.8053 97.0643C70.9855 97.4422 76.3936 99.4337 77.3693 99.7932H77.3701C77.4651 99.8285 77.518 99.8476 77.5196 99.8484C77.1631 100.531 76.7645 101.19 76.3253 101.822ZM77.3647 99.0979C76.1185 98.6418 75.0427 98.2701 74.1585 97.965L74.1581 97.9642C72.3482 97.3395 71.3413 96.9915 71.3197 96.76C71.2377 95.8861 70.7938 93.24 70.3538 91.3075L70.3458 91.2722C69.9814 89.6724 69.9698 89.6218 65.7607 92.2481C64.9402 92.7601 64.4659 93.1365 64.1484 93.3879C63.6695 93.7681 63.5472 93.8655 63.1314 93.7175C59.4782 92.4221 57.3817 91.8027 56.2069 91.4554C55.1685 91.148 54.85 91.0545 54.8128 90.8943C54.7964 90.8238 54.8351 90.7402 54.8909 90.6199C54.9017 90.5969 54.913 90.5724 54.9247 90.5463C57.5178 84.535 60.5992 78.7468 64.1379 73.2392C64.6538 72.4566 71.1089 69.8664 78.7422 68.9419C79.0841 68.9006 79.3501 68.8628 79.5563 68.8334L79.557 68.8333C80.0024 68.7699 80.171 68.7459 80.2216 68.812C80.2523 68.8519 80.2393 68.925 80.2193 69.0424C80.2155 69.0643 80.2109 69.0878 80.2071 69.1129C80.1235 69.6216 80.3136 69.8275 80.4677 69.9943C80.5972 70.1343 80.7007 70.2466 80.5957 70.4873C80.2845 71.1987 80.1074 71.6862 80.47 72.1024C80.8655 72.5555 81.2672 72.4412 81.7011 72.2243C81.9824 72.0843 82.1924 72.2694 82.4247 72.4734C82.7168 72.7307 83.0441 73.0181 83.5899 72.7218C83.8428 72.5837 83.9923 72.7014 84.1655 72.8375C84.3763 73.0033 84.6209 73.1964 85.1306 72.9863C85.2609 72.9322 85.3698 72.9674 85.4863 73.0049C85.6902 73.0705 85.9156 73.1432 86.3149 72.7563C86.5135 72.5637 86.6883 72.3504 86.8377 72.1677C87.1597 71.7735 87.3659 71.5215 87.4471 71.9269L87.4809 72.0952L87.5177 72.277L87.5207 72.2908L87.5215 72.2937C88.5326 77.2896 89.0301 79.7464 78.1956 98.8036C77.9151 99.2995 77.9113 99.298 77.3846 99.1056L77.3647 99.0979ZM79.7947 97.177C80.9859 95.1487 81.1384 94.8888 81.3646 94.7393C81.3975 94.7171 81.432 94.6972 81.4719 94.6749L81.501 94.6581C84.8792 92.7279 87.2923 91.3359 89.0186 90.3409L89.0193 90.3401C92.7593 88.183 93.2714 87.8871 93.3917 88.0021C93.4109 88.0205 93.4201 88.0489 93.4308 88.0826C93.4354 88.0972 93.4408 88.1133 93.4469 88.1294C93.5236 88.3164 94.0602 89.8158 94.1537 90.0833C94.2679 90.4152 94.2633 90.4168 93.4362 90.7893C92.4757 91.2224 90.4053 92.1545 86.1241 94.6826C83.0786 96.4779 81.0319 97.929 79.8207 98.7875C78.4425 99.7641 78.1451 99.9749 78.6893 99.0542C79.1339 98.3007 79.4965 97.6837 79.7947 97.177ZM102.952 106.606C102.226 107.127 99.3823 98.4103 99.1462 97.4836L99.1447 97.4767C99.1056 97.3241 99.0795 97.2222 99.111 97.1432C99.1738 96.983 99.472 96.9148 100.372 96.7094C101.288 96.5009 102.828 96.1498 105.38 95.4139C105.607 95.3487 105.621 95.4055 105.689 95.6929C105.742 95.9221 105.831 96.2977 106.09 96.8742C107.577 100.194 108.251 100.932 108.789 101.52C108.919 101.663 109.042 101.797 109.166 101.957C108.793 102.419 103.903 105.924 103.053 106.533H103.053L102.952 106.606ZM110.092 101.326L110.086 101.331C109.674 101.672 109.653 101.689 109.332 101.257C108.073 99.4437 106.981 97.5196 106.07 95.5082C105.972 95.2376 105.978 95.2353 106.665 95.0383C107.144 94.9003 107.955 94.6673 109.29 94.1821C110.44 93.7635 111.181 93.4508 111.698 93.2323C112.885 92.731 112.894 92.7271 113.962 93.0821C114.549 93.2982 115.053 93.6938 115.403 94.212C115.753 94.7309 115.931 95.3464 115.911 95.9712C115.911 96.021 115.911 96.0678 115.911 96.1107C115.913 96.2632 115.914 96.3759 115.886 96.4817C115.809 96.7753 115.507 97.0106 114.361 97.9037C113.5 98.5736 112.165 99.6138 110.092 101.326ZM117.785 87.2333C117.859 87.1605 117.95 87.106 118.051 87.0754C118.151 87.0447 118.256 87.0386 118.359 87.057C118.653 87.0945 118.935 87.1957 119.187 87.3529C119.438 87.5108 119.653 87.72 119.815 87.9684C122.163 90.7671 123.785 91.8149 125.333 92.8161C126.423 93.5205 127.476 94.2012 128.72 95.4522C129.469 96.205 131.327 98.8066 130.362 99.0351C129.495 99.2421 128.726 98.3988 127.586 97.1494C126.616 96.0862 125.377 94.7286 123.581 93.473C120.103 91.0415 118.463 89.2815 117.938 88.1838C117.688 87.6641 117.659 87.3935 117.785 87.2333ZM127.56 99.912C127.063 99.4919 126.661 99.0405 126.199 98.5215C125.565 97.8086 124.816 96.9685 123.553 95.9083C123.288 95.686 122.94 95.44 122.531 95.1525C120.941 94.0295 118.444 92.2672 116.455 88.771C116.291 88.4835 116.408 88.3701 116.903 87.891L117.003 87.7944C117.034 87.7637 117.067 87.7315 117.102 87.6978C117.213 87.5897 117.228 87.6342 117.29 87.8251C117.373 88.0796 117.542 88.5939 118.138 89.3513C119.622 91.0308 121.315 92.514 123.175 93.7651C125.214 95.2652 126.392 96.6358 127.283 97.6729C128.351 98.9155 129.007 99.6782 130.237 99.61C130.32 99.6054 130.39 99.5962 130.447 99.5885C130.568 99.5717 130.629 99.5632 130.62 99.6276C130.489 100.6 129.102 101.21 127.56 99.909V99.912ZM65.3912 44.9196C66.7526 49.9551 71.5834 52.858 79.7073 49.6109C80.2101 49.4101 80.4447 49.335 80.4263 49.5642L80.4255 49.5699C80.4156 49.7051 80.4094 49.7849 80.0216 50.0034C78.375 50.8163 76.6008 51.3406 74.7768 51.5534C67.303 52.4318 64.0214 47.1633 64.4667 40.341C64.6897 37.774 65.2718 35.251 66.1961 32.8457C66.2169 32.8121 66.249 32.787 66.2867 32.7748C66.3242 32.7625 66.3649 32.764 66.4017 32.7788C66.4383 32.7937 66.4685 32.821 66.487 32.8559C66.5055 32.8909 66.511 32.9313 66.5027 32.9699C66.4483 33.169 66.3736 33.4169 66.286 33.7074C65.6209 35.913 64.216 40.5726 65.3912 44.9196ZM118.955 95.9903C118.951 96.0609 118.855 96.1276 118.691 96.241C118.599 96.3046 118.486 96.3828 118.355 96.4855C118.968 96.9217 124.13 98.7216 123.174 98.037C122.272 97.574 121.403 97.0482 120.574 96.4641C120.377 96.3269 120.555 96.2157 120.728 96.1076C120.9 96.0011 121.067 95.8976 120.862 95.7742C119.461 94.9317 118.686 94.3545 118.205 93.9966C117.776 93.6769 117.583 93.532 117.388 93.5312C117.228 93.5305 117.067 93.6271 116.775 93.8018C116.692 93.8517 116.599 93.9076 116.492 93.969C116.335 94.0609 116.233 94.1529 116.592 94.3998C117.401 94.954 117.97 95.2966 118.348 95.5235C118.78 95.7834 118.959 95.8907 118.955 95.9903ZM54.6281 143.45H54.6289C56.1138 142.663 56.4584 142.479 56.3973 142.858C56.3665 143.05 56.332 143.199 56.3056 143.313C56.2345 143.62 56.2203 143.68 56.4862 143.684C58.0972 143.208 58.985 142.821 59.4838 142.604C59.8461 142.446 60.0031 142.378 60.083 142.429C60.144 142.469 60.16 142.578 60.1881 142.771L60.1902 142.785L60.204 142.879L60.2196 142.983C60.305 143.551 60.3147 143.616 60.043 143.683C58.7735 143.996 57.8566 144.222 57.193 144.386L57.1584 144.394L57.1549 144.395L57.1542 144.396H57.153H57.1511L57.148 144.396C55.5069 144.802 55.4555 144.815 55.41 144.803L55.4038 144.802C55.2646 144.765 55.2923 144.603 55.3197 144.441C55.3548 144.235 55.3894 144.032 55.078 144.092C54.386 144.281 53.6797 144.412 52.9662 144.484C52.9484 144.484 52.9312 144.478 52.9176 144.466C52.9039 144.455 52.8947 144.439 52.8914 144.422C52.8882 144.404 52.8911 144.386 52.8997 144.37C52.9083 144.355 52.922 144.343 52.9386 144.336C53.6207 143.984 54.177 143.689 54.6281 143.45ZM87.3214 66.1757C87.3061 66.23 87.3023 66.2868 87.3099 66.3427C87.3237 66.4448 87.3758 66.538 87.4556 66.6035C87.5353 66.669 87.6365 66.7019 87.74 66.6959C87.8427 66.6897 87.9393 66.6451 88.0106 66.5706C88.0826 66.4961 88.1232 66.3975 88.1248 66.2944C88.1255 66.238 88.1148 66.182 88.0933 66.1299C88.0719 66.0779 88.0397 66.0308 87.9991 65.9918C87.9584 65.9528 87.9101 65.9226 87.8572 65.9031C87.8036 65.8836 87.7476 65.8753 87.6909 65.8787C87.6349 65.882 87.5798 65.8969 87.5299 65.9225C87.4793 65.9481 87.4349 65.9837 87.3996 66.0274C87.3636 66.0709 87.3368 66.1214 87.3214 66.1757ZM88.1669 65.4634C88.1202 65.4684 88.0726 65.4637 88.0282 65.4495C87.983 65.4354 87.9416 65.4121 87.9063 65.3812C87.871 65.3503 87.8427 65.3124 87.8228 65.2699C87.8021 65.2274 87.7913 65.1812 87.7898 65.1343C87.7883 65.0873 87.7967 65.0405 87.8143 64.9969C87.8319 64.9533 87.858 64.9138 87.8917 64.8808C87.9255 64.8479 87.9653 64.8223 88.009 64.8056C88.0535 64.7888 88.1002 64.7813 88.147 64.7835C88.1938 64.7786 88.2413 64.7833 88.2857 64.7974C88.331 64.8116 88.3724 64.8348 88.4076 64.8657C88.4429 64.8966 88.4713 64.9346 88.4912 64.977C88.5119 65.0196 88.5226 65.0657 88.5241 65.1127C88.5257 65.1597 88.5172 65.2065 88.4996 65.2501C88.482 65.2936 88.4559 65.3332 88.4222 65.3661C88.3885 65.399 88.3486 65.4247 88.3049 65.4414C88.2604 65.4582 88.2137 65.4657 88.1669 65.4634ZM88.4682 67.634C88.5694 67.7399 88.7089 67.8012 88.8553 67.8045C88.9304 67.8064 89.0055 67.793 89.0753 67.7651C89.1451 67.7372 89.2087 67.6953 89.2616 67.6421C89.3145 67.5889 89.3566 67.5254 89.3842 67.4555C89.4118 67.3857 89.4256 67.3109 89.4233 67.2358C89.4256 67.1642 89.4126 67.0929 89.3857 67.0265C89.3589 66.96 89.3191 66.8998 89.2677 66.8495C89.2171 66.7992 89.1565 66.7599 89.0899 66.734C89.0224 66.7081 88.9511 66.6963 88.8798 66.6992C88.7334 66.6959 88.5916 66.751 88.485 66.8523C88.3793 66.9537 88.3179 67.0929 88.3149 67.2396C88.3118 67.3862 88.367 67.528 88.4682 67.634ZM89.2715 66.2576C89.2117 66.26 89.1527 66.2504 89.0968 66.2294C89.0416 66.2083 88.9902 66.1762 88.9473 66.1351C88.9044 66.0938 88.8706 66.0444 88.8469 65.9896C88.8239 65.9348 88.8116 65.8759 88.8116 65.8164C88.8116 65.7569 88.8239 65.6979 88.8469 65.6432C88.8706 65.5884 88.9044 65.5389 88.9473 65.4978C88.9902 65.4565 89.0416 65.4244 89.0968 65.4034C89.1527 65.3823 89.2117 65.3727 89.2715 65.3753C89.3313 65.3727 89.3903 65.3823 89.4463 65.4034C89.5015 65.4244 89.5529 65.4565 89.5958 65.4978C89.6387 65.5389 89.6724 65.5884 89.6962 65.6432C89.7192 65.6979 89.7315 65.7569 89.7315 65.8164C89.7315 65.8759 89.7192 65.9348 89.6962 65.9896C89.6724 66.0444 89.6387 66.0938 89.5958 66.1351C89.5529 66.1762 89.5015 66.2083 89.4463 66.2294C89.3903 66.2504 89.3313 66.26 89.2715 66.2576ZM89.9484 66.3698C89.9055 66.3961 89.8687 66.431 89.8395 66.4723C89.7912 66.5492 89.7736 66.6416 89.7905 66.731C89.8074 66.8204 89.8579 66.8999 89.9308 66.9536C90.0044 67.0072 90.0956 67.031 90.186 67.02C90.2765 67.0092 90.3593 66.9643 90.4175 66.8946C90.4697 66.8201 90.4942 66.7292 90.4857 66.6385C90.4765 66.5477 90.4359 66.4629 90.3708 66.3994C90.3317 66.3674 90.2864 66.3438 90.2381 66.3301C90.1899 66.3163 90.1393 66.3128 90.0894 66.3196C90.0396 66.3264 89.9913 66.3435 89.9484 66.3698Z" fill="black"/>
<path d="M60.4616 22.755C59.4428 23.0279 57.748 23.4319 56.7768 22.7634C56.5238 22.5886 56.4165 22.8776 56.6894 23.0984C57.5364 23.7845 59.3263 23.5246 59.9855 23.3613C60.2922 23.2847 59.6989 24.6645 57.4314 25.6027C57.1309 25.7269 57.4168 25.9714 58.1129 25.7123C60.6578 24.7633 61.0802 22.5894 60.4616 22.755Z" fill="black"/>
<path d="M58.1993 20.9887C59.1912 21.1228 59.5247 21.0562 59.6144 20.8768C59.6834 20.738 59.4756 20.5778 59.1008 20.5012C57.3837 20.1486 57.5202 20.6989 58.6815 17.1621C58.8555 16.6324 58.4868 16.5734 58.2721 17.0854C57.0441 20.032 56.6103 20.7733 58.1993 20.9887Z" fill="black"/>
<path d="M65.2439 15.972C68.2181 16.734 70.1744 17.282 69.729 16.9287C69.1027 16.4312 64.9948 14.9809 64.8913 15.6731C64.8637 15.8555 65.0799 15.9299 65.2439 15.972Z" fill="black"/>
<path d="M64.9605 17.2036C64.9605 17.409 64.9198 17.34 68.1631 18.2216C71.1243 19.0272 64.9605 16.3274 64.9605 17.2036Z" fill="black"/>
<path d="M60.1986 15.4113C60.5727 15.488 61.5945 15.1998 62.1257 15.8084C62.3342 16.0468 62.6455 15.7218 62.2714 15.2634C61.383 14.1749 59.4482 15.2588 60.1986 15.4113Z" fill="black"/>
<path d="M65.0624 18.4012C64.5956 18.7553 65.2587 18.8059 66.63 18.9446C67.2264 18.6273 65.2219 18.28 65.0624 18.4012Z" fill="black"/>
<path d="M57.275 17.3637C57.3302 17.123 57.3302 16.7566 57.0366 16.7696C56.6456 16.7873 56.4923 17.517 56.7169 17.7332C56.8779 17.885 57.1845 17.7623 57.275 17.3637Z" fill="black"/>
<path d="M60.5497 17.2266C60.1503 17.1783 59.9656 18.1465 60.3772 18.2055C60.7888 18.2645 61.0334 17.2849 60.5497 17.2266Z" fill="black"/>
<path d="M11.1049 15.6583C9.78954 15.2114 9.69755 13.305 16.2815 13.4774C16.7897 13.4905 16.7605 13.4659 16.5827 13.1631C16.0461 12.2372 15.9863 9.50134 21.2533 11.177C23.4249 11.8669 23.1635 12.0547 23.1827 10.6136C23.2279 7.2684 25.5506 4.95725 28.0334 6.92115C28.8506 7.63703 29.5156 8.50973 29.9889 9.48754C30.2273 9.88998 30.2081 9.70677 31.1502 8.69722C33.5626 6.11397 38.2025 5.02931 38.992 8.23729C39.383 9.82405 38.1312 11.5672 38.6969 11.3648C40.332 10.7822 42.9375 10.2211 43.7124 11.7734C44.0957 12.5461 43.4319 13.3119 43.3062 13.5411C43.635 13.7059 45.0485 13.643 46.1424 14.487C46.6131 14.8496 46.7211 15.4268 46.1424 15.6468C44.2299 16.3758 12.0854 15.9925 11.1049 15.6583ZM41.872 15.4237C41.872 15.3769 49.8441 15.7303 43.8098 14.2057C41.898 13.7227 42.2307 14.1581 42.9237 12.9792C43.2885 12.3583 43.2356 11.719 42.3978 11.5335C40.2622 11.0613 38.3987 12.3322 38.0055 12.3498C37.2083 12.3859 37.7824 11.4062 38.1956 10.0686C39.2266 6.72645 36.1259 5.9714 33.0037 8.0035C30.2442 9.80412 30.5546 11.6638 29.4822 9.86238C28.7249 8.58914 28.2994 7.67005 27.1274 7.04073C26.0151 6.44436 24.7143 6.81077 24.078 8.97472C23.4418 11.1387 24.436 12.8918 22.5748 12.2333C20.0743 11.3495 18.9498 10.9447 17.4619 11.3135C16.9445 11.4407 16.6486 12.4702 17.2174 13.1394C17.3293 13.272 17.4543 13.3962 17.5593 13.5326C18.3327 14.5437 13.1064 13.6254 11.2935 14.5997C9.15254 15.748 15.3309 15.4237 41.872 15.4237Z" fill="black"/>
<path d="M92.6596 22.6455C93.253 20.4462 100.925 20.8755 101.369 20.8057C101.489 20.7881 101.471 20.7199 101.408 20.6172C101.191 20.2961 101.042 19.9342 100.97 19.5537C100.897 19.1731 100.903 18.7817 100.987 18.4034C101.231 17.4835 102.127 16.7484 104.309 16.8825C107.35 17.0696 110.31 18.9744 110.353 18.1857C110.376 17.7717 110.413 17.3586 110.414 16.9439C110.434 13.0222 112.867 9.48839 116.208 11.0843C116.765 11.3503 116.668 11.4393 116.779 10.9364C118.975 1.00652 133.137 1.77153 134.629 11.4071C135.308 15.7933 133.153 17.3578 133.899 17.2666C134.052 17.2474 137.183 16.5483 138.607 17.8859C139.277 18.5153 139.316 19.4896 138.46 20.7988C138.375 20.9292 138.412 20.9698 138.587 20.9989C138.89 21.0487 141.661 21.2825 142.655 22.5243C143.181 23.1813 142.866 23.8106 142.081 23.9455C137.629 24.7121 102.958 24.3748 95.118 23.9908C94.5193 23.9647 92.3216 23.8972 92.6596 22.6455ZM122.876 20.5988C124.243 21.1088 125.721 21.2471 127.16 20.9997C128.598 20.7522 129.945 20.1278 131.064 19.1901C132.182 18.2524 133.032 17.0349 133.527 15.6618C134.021 14.2886 134.143 12.8089 133.879 11.3733C132.322 2.97272 120.522 2.18777 117.885 10.2664C117.228 12.3003 117.381 14.5088 118.311 16.4332C119.241 18.3575 120.876 19.8494 122.878 20.5988H122.876ZM93.5013 22.6133C92.803 23.2572 94.7408 23.4411 98.6863 23.5331C119.017 23.9931 139.39 23.724 141.493 23.4059C142.295 23.2848 142.679 23.0364 141.25 22.414C140.245 21.98 139.185 21.6837 138.101 21.5332C137.214 21.3684 137.12 21.3638 137.591 20.7797C137.849 20.5271 138.039 20.2144 138.147 19.8698C138.254 19.5251 138.273 19.1592 138.204 18.805C137.85 17.5885 135.363 17.4505 133.216 18.2355C132.667 18.4363 129.899 22.44 124.675 21.9234C121.056 21.5654 117.497 18.8326 116.65 14.0333C116.433 12.8068 116.756 12.3829 116.337 12.1215C114.875 11.2101 113.606 11.3664 112.599 12.5201C110.806 14.5752 111.341 17.8744 110.996 18.8986C110.546 20.2316 107.469 17.7924 104.375 17.5709C102.881 17.4643 101.677 17.7449 101.703 19.2443C101.716 19.5793 101.805 19.907 101.965 20.2019C102.124 20.4968 102.35 20.7509 102.623 20.9445C102.915 21.1913 102.462 21.3914 102.271 21.399C99.83 21.4114 97.3931 21.5907 94.9769 21.9356C94.435 22.0305 93.9268 22.2639 93.5013 22.6133Z" fill="black"/>
</svg>
