<svg width="154" height="154" viewBox="0 0 154 154" fill="none" xmlns="http://www.w3.org/2000/svg">
<path d="M149.405 89.5844C146.377 90.1976 140.49 89.8833 138.742 89.6534C138.688 89.0401 138.78 83.1608 138.704 81.8347C138.704 81.7658 138.589 81.7274 138.589 81.7274C134.252 81.4224 129.903 81.3355 125.558 81.4668C125.558 76.3157 125.558 71.1033 125.443 65.8986C125.443 65.8795 125.44 65.8606 125.432 65.8433C125.424 65.826 125.412 65.8108 125.397 65.7989C125.382 65.787 125.364 65.7787 125.346 65.7747C125.327 65.7707 125.308 65.7712 125.289 65.7759C117.31 65.5 111.492 65.615 111.446 65.6993C111.362 66.2512 111.224 71.4176 111.27 72.5981C108.928 70.0234 106.098 67.9391 102.945 66.4658C102.198 66.2254 101.501 65.8486 100.891 65.3543C100.717 65.199 100.585 65.0024 100.508 64.7827C100.43 64.563 100.409 64.3272 100.446 64.0972C101.113 61.5523 105.091 60.2646 106.257 59.3831C106.975 58.903 107.592 58.2853 108.071 57.5657C108.55 56.846 108.881 56.0386 109.047 55.1901C109.092 54.3712 108.86 53.561 108.387 52.8906C107.889 52.124 108.679 51.9784 109.223 51.5031C108.719 51.5111 108.223 51.6261 107.767 51.8404C107.942 51.5627 108.041 51.2443 108.056 50.9164C108.071 50.5885 108 50.2624 107.851 49.9701C107.889 50.2154 107.867 50.4663 107.787 50.7013C107.707 50.9363 107.571 51.1483 107.391 51.3192C107.433 50.6964 107.245 50.0799 106.862 49.5868C104.892 47.0189 100.73 46.467 97.7174 46.2984C97.794 40.1661 97.7174 24.1763 97.7174 22.398C104.616 22.7046 111.515 23.0418 118.475 23.3178C117.984 34.1182 117.862 44.9876 118.176 55.8417C118.177 55.8603 118.182 55.8784 118.192 55.8944C118.201 55.9105 118.215 55.924 118.23 55.9338C118.246 55.9436 118.264 55.9494 118.283 55.9507C118.301 55.952 118.32 55.9488 118.337 55.9413C121.817 56.0717 130.456 56.3706 131.299 56.3936C131.652 61.1538 131.751 65.9982 131.682 70.835C131.684 70.8703 131.7 70.9034 131.725 70.9277C131.751 70.9519 131.785 70.9654 131.82 70.9653C135.289 71.1878 138.767 71.2032 142.237 71.0113C142.352 71.0113 142.36 70.8197 142.237 70.8197C140.482 70.8197 133.629 70.8197 131.958 70.7047C132.085 65.8847 131.952 61.0613 131.56 56.2556C128.409 55.7497 119.38 55.7574 118.406 55.7344C118.191 44.9186 118.245 34.0416 118.743 23.1875C118.743 23.1522 118.73 23.1182 118.706 23.0925C118.681 23.0669 118.648 23.0515 118.613 23.0495C118.536 23.0495 97.6177 22.1757 97.5411 22.214C97.5133 22.2195 97.4886 22.2351 97.4717 22.2577C97.4547 22.2804 97.4466 22.3085 97.4491 22.3366V46.3061C95.8394 46.5054 96.4526 47.9234 96.0463 48.713C95.87 49.0426 95.7244 48.9046 95.4408 49.0962C94.6742 49.5945 94.7432 52.9289 94.7739 53.8104C94.0074 55.7957 93.4095 58.6625 94.8505 60.2416C95.1035 60.5175 95.5481 60.7475 95.6861 61.1078C95.7116 61.23 95.7105 61.3563 95.6827 61.478C95.6549 61.5997 95.6012 61.714 95.5251 61.813C95.2324 62.3547 94.7835 62.7959 94.2366 63.0789C93.6897 63.3619 93.0703 63.4737 92.459 63.3997C87.6452 63.0164 85.6292 63.76 84.579 64.0589C81.423 65.4898 78.4484 67.291 75.7179 69.4246C75.5896 69.5728 75.504 69.753 75.4702 69.9461C75.4365 70.1392 75.4559 70.3378 75.5263 70.5208C74.7598 70.835 73.9932 71.2873 73.2727 71.6476C72.8205 70.1911 70.7662 63.1621 70.6512 62.8554C71.1164 62.5646 71.5116 62.1746 71.8086 61.7133C72.5752 61.7133 72.7438 61.7593 72.7975 61.6443C73.3877 60.3336 73.771 58.9308 74.4072 57.6354C75.1124 57.6354 82.3561 57.2674 85.2612 57.0145C85.2612 57.0145 89.3545 57.781 89.5615 57.85C89.5499 58.0101 89.5748 58.1708 89.6345 58.3198C89.6942 58.4688 89.787 58.6023 89.9059 58.7102C90.0248 58.818 90.1668 58.8974 90.3209 58.9423C90.475 58.9871 90.6374 58.9963 90.7956 58.9691C91.6541 58.8695 92.16 58.0953 92.505 57.3901C92.9228 56.5897 93.1461 55.7021 93.1565 54.7992C93.1565 53.0362 92.2213 52.4383 91.5008 52.4996C91.3116 52.4911 91.125 52.5472 90.9718 52.6586C90.8186 52.77 90.7078 52.9302 90.6576 53.1128C90.1364 53.0209 86.8786 52.3923 86.825 52.3463C85.016 50.4453 80.3248 46.3214 80.3248 46.3061C80.2021 41.9598 80.3631 30.3469 80.4091 29.0208C80.4073 28.9848 80.3921 28.9508 80.3666 28.9253C80.3411 28.8998 80.3071 28.8847 80.2711 28.8828C71.4637 29.0514 69.2944 28.5992 69.3021 28.9978C69.4017 31.2131 69.3864 37.8665 69.3481 37.8436C63.6681 34.0799 54.577 25.4794 54.7303 25.5791C54.6384 25.2801 54.2014 24.0843 54.0711 23.7854C54.0711 23.7394 49.7556 22.421 48.8434 22.2523C48.4262 22.2474 48.0154 22.356 47.6553 22.5666C46.5155 23.3354 45.5452 24.3293 44.8038 25.4871C38.0123 34.5935 35.4598 45.0719 36.8702 54.4236C37.0166 55.7375 37.3363 57.0262 37.8207 58.2563C38.0143 58.6461 38.3022 58.9813 38.6583 59.2316C39.0144 59.482 39.4273 59.6394 39.8596 59.6897C40.6262 59.8583 44.3438 60.2646 45.2254 60.0499C45.7543 59.7352 46.2661 59.3923 46.7584 59.0228C49.058 59.0688 55.4585 58.7315 56.3784 58.6855C56.1561 62.9781 56.1867 73.9701 56.2327 75.1583C52.6224 75.0816 43.4393 75.0816 42.4352 75.051C42.4352 72.9813 42.6038 70.7201 42.5118 68.6198C42.3892 68.4281 42.1592 68.4205 41.9599 68.4051C40.2352 68.3055 32.9609 68.0755 31.3128 68.2212C30.9832 68.2212 31.3818 68.1215 31.3128 77.0516H18.6267C18.5901 77.0516 18.5551 77.0661 18.5292 77.092C18.5033 77.1179 18.4888 77.153 18.4888 77.1896C18.4888 82.9615 18.3815 88.7872 18.4888 94.6051H7.45072C7.42429 94.6051 7.39895 94.6156 7.38026 94.6343C7.36157 94.653 7.35107 94.6784 7.35107 94.7048C7.35107 94.7312 7.36157 94.7566 7.38026 94.7753C7.39895 94.7939 7.42429 94.8044 7.45072 94.8044C14.9321 94.8964 22.4517 94.9731 29.9637 94.9424C30.1094 94.9424 30.1554 95.4713 30.117 85.2305C34.7162 85.2305 39.3154 85.3455 43.9682 85.2305C43.9682 88.6799 43.8686 92.1293 43.9146 95.5786C42.5563 94.9447 41.013 94.8302 39.576 95.2567C36.2339 96.1382 36.8855 98.6448 36.7935 99.0204C36.6249 99.5416 36.1343 99.4036 35.5747 99.5493C34.9385 99.7236 34.3606 100.065 33.9009 100.538C33.4413 101.011 33.1167 101.599 32.9609 102.24C31.4278 102.171 30.462 102.24 29.7184 103.566C29.3114 103.102 28.8048 102.736 28.2365 102.496C27.6681 102.256 27.0528 102.147 26.4365 102.178C25.8202 102.209 25.2189 102.379 24.6775 102.675C24.1361 102.971 23.6687 103.386 23.3102 103.888C21.9611 103.443 20.7654 104.654 20.1828 105.873C19.2016 107.966 20.8343 109.123 20.9493 109.43L16.6568 109.376C16.5494 109.376 16.5494 109.537 16.6568 109.545C18.1208 109.545 31.926 110.074 64.9482 109.598C61.2995 117.586 60.8242 131.061 60.6096 139.8C61.0387 139.988 61.4821 140.142 61.9357 140.26C61.9357 140.85 61.9817 141.463 61.9817 142.237C61.2995 142.628 59.1609 143.901 59.0459 144.046C58.9309 144.192 58.8389 144.736 59.1839 144.813C60.8587 144.858 62.5348 144.812 64.2047 144.675C64.1056 143.268 64.288 141.856 64.7412 140.52C65.6939 140.536 66.6466 140.487 67.5927 140.375C72.4602 129.49 73.1117 123.894 74.7751 120.154C76.4232 118.92 80.4934 114.543 82.4021 112.795C82.7002 109.897 82.7413 106.977 82.5247 104.072C82.5247 103.941 82.6857 103.827 82.8083 104.072C83.0536 104.585 83.3373 106.448 83.069 111.492C82.9617 113.577 82.2335 117.793 84.0501 123.381C85.671 127.77 88.2024 131.767 91.4778 135.109L97.817 141.501C98.2456 141.424 98.6683 141.316 99.0818 141.18C99.1201 141.226 100.285 142.713 100.347 142.713C100.338 143.14 100.206 143.555 99.9647 143.908C99.7236 144.261 99.3848 144.535 98.9898 144.698C98.7599 144.79 98.8748 145.464 99.0511 145.464C99.8681 145.51 100.687 145.51 101.504 145.464C102.147 144.738 102.741 143.97 103.282 143.165C103.282 143.042 101.749 141.026 101.473 139.976C101.778 139.77 102.068 139.542 102.34 139.294C99.502 132.767 96.9999 126.1 94.8429 119.318C96.2456 116.873 98.7522 112.136 99.1048 109.484C115.876 110.25 130.065 111.224 146.43 109.583C146.553 109.583 146.553 109.384 146.43 109.392L144.491 109.56C144.051 108.386 143.359 107.324 142.462 106.448C141.565 105.572 140.486 104.905 139.302 104.493C137.408 103.873 137.063 104.593 136.496 103.819C135.756 102.686 134.663 101.83 133.386 101.384C132.109 100.938 130.721 100.926 129.436 101.351C129.712 98.3382 127.543 95.5173 124.163 95.9006C124.536 94.7151 124.483 93.4361 124.011 92.2862C123.539 91.1363 122.678 90.1884 121.579 89.6074C121.859 88.7211 121.892 87.7754 121.675 86.8719C121.457 85.9684 120.998 85.1412 120.345 84.4793C119.998 84.0183 119.519 83.6739 118.971 83.4918C118.423 83.3097 117.833 83.2985 117.279 83.4598C116.483 82.0074 115.504 80.6628 114.366 79.4585C114.62 79.1308 114.853 78.7877 115.064 78.4314C114.116 76.3598 112.888 74.428 111.415 72.69C111.415 72.69 111.645 66.3432 111.661 65.7913C115.187 65.7146 124.209 65.9982 125.19 65.9829C125.19 70.0302 125.228 80.4243 125.266 81.5741C125.268 81.5978 125.275 81.6207 125.288 81.6409C125.3 81.6611 125.317 81.678 125.338 81.6901C125.358 81.7022 125.381 81.7091 125.405 81.7103C125.428 81.7114 125.452 81.7068 125.473 81.6968C131.836 81.4975 137.025 81.8807 138.466 81.9037C138.466 83.2375 138.229 89.2088 138.466 89.7913C138.466 89.8603 141.226 90.4276 146.737 90.1516C147.335 90.0903 149.918 90.0213 149.405 89.5844ZM64.013 142.168C63.4075 142.099 62.7969 142.084 62.1887 142.122C62.1887 142.046 62.1197 140.589 62.0967 140.298C62.8866 140.419 63.6824 140.498 64.4806 140.536C64.3886 140.781 64.0283 142.138 64.013 142.168ZM101.251 140.145L102.071 141.678C101.826 141.816 101.029 142.329 100.538 142.621C100.538 142.544 99.3194 141.088 99.2888 141.088C99.9631 140.817 100.619 140.502 101.251 140.145ZM92.6276 63.7983C92.8854 63.7908 93.1419 63.76 93.3941 63.7063C93.8321 63.6735 94.2579 63.5471 94.6427 63.3355C95.0276 63.1239 95.3625 62.8321 95.6247 62.4799C97.4491 59.8507 93.6701 61.2534 94.5133 56.2556C94.935 54.2175 95.6941 52.2641 96.7592 50.476C97.3504 51.2294 98.0904 51.853 98.9331 52.308C99.7757 52.763 100.703 53.0396 101.657 53.1205C102.286 53.1205 101.711 54.5923 101.972 55.857C102.163 56.7539 103.152 56.0947 103.727 56.6236C103.904 56.7942 104.028 57.0119 104.085 57.2509C104.142 57.4898 104.129 57.7401 104.049 57.9722C103.968 58.2043 103.823 58.4085 103.63 58.5607C103.437 58.7129 103.205 58.8067 102.96 58.8312C102.566 59.7527 102.228 60.6973 101.949 61.6597C101.01 62.2973 100.358 63.2766 100.132 64.3885C100.194 64.7525 100.341 65.0968 100.561 65.3936C100.781 65.6905 101.067 65.9317 101.397 66.0979C100.288 67.3116 98.7762 68.0822 97.1425 68.2672C96.2536 68.4198 95.34 68.3297 94.4979 68.0065C92.9189 67.309 92.344 65.4846 92.6276 63.7983ZM70.3216 62.8018C70.3829 63.1927 72.5675 70.4211 73.0274 71.9388C73.357 72.2071 74.8058 71.0113 75.58 70.789C75.9651 73.7603 77.1941 76.5589 79.1213 78.8529C75.2887 82.0264 72.4908 82.4326 72.0233 82.448C71.5602 82.4688 71.0989 82.3788 70.6776 82.1855C70.2563 81.9922 69.8872 81.7011 69.601 81.3365C68.4715 79.971 67.7725 78.301 67.5927 76.538C66.9028 72.1458 67.1175 67.5466 67.1865 63.0624C67.2952 63.102 67.4135 63.1078 67.5256 63.0791C67.6378 63.0504 67.7386 62.9884 67.815 62.9014C68.2136 63.576 68.7195 63.4533 68.9955 63.0011C69.578 63.8443 70.3906 62.6332 70.5822 61.6597C70.5822 61.6597 71.2261 61.7133 71.5404 61.721C71.2414 62.3112 70.2986 62.6562 70.3216 62.8018ZM68.1446 60.3719C68.1446 60.2646 68.3746 60.1343 68.4666 60.1266C68.5621 60.1296 68.6534 60.1669 68.7237 60.2317C68.7941 60.2964 68.8388 60.3842 68.8498 60.4792C68.8498 60.6018 69.0338 60.6632 69.0874 60.5482C69.1309 60.4634 69.1938 60.39 69.2709 60.3341C69.3481 60.2782 69.4373 60.2412 69.5314 60.2263C69.6256 60.2113 69.7219 60.2188 69.8125 60.2481C69.9032 60.2774 69.9857 60.3277 70.0533 60.3949C70.9501 61.1614 69.7543 63.346 69.2868 62.9934C69.1948 62.9244 69.0415 62.8784 69.1028 62.3419C69.1028 62.2116 68.9035 62.2346 68.8575 62.3419C68.8575 62.9474 68.6199 63.1084 68.4359 63.1084C68.2519 63.1084 68.1293 62.9474 68.045 62.8248C67.9994 62.6359 67.9994 62.4388 68.045 62.2499C68.045 62.0966 67.8303 62.0276 67.7997 62.1886C67.7614 62.3839 67.6942 62.5725 67.6004 62.7481C67.572 62.7835 67.5347 62.8107 67.4923 62.8267C67.4498 62.8427 67.4039 62.847 67.3592 62.8392C67.3146 62.8313 67.2728 62.8116 67.2384 62.7821C67.2039 62.7526 67.1781 62.7144 67.1635 62.6715C67.0042 61.9305 67.0305 61.1616 67.2401 60.4332C67.2652 60.3548 67.3126 60.2854 67.3766 60.2336C67.4407 60.1819 67.5185 60.15 67.6004 60.1419C67.7154 60.1419 67.8763 60.3336 67.8763 60.3566C67.8993 60.5559 68.1523 60.5559 68.1446 60.3719ZM72.5522 61.4067C72.0003 61.4067 71.3334 61.4067 70.6128 61.4604C70.7738 60.0576 69.5627 59.659 69.0185 60.2033C68.9698 60.1117 68.8988 60.034 68.8121 59.9774C68.7253 59.9208 68.6256 59.887 68.5222 59.8794C68.4189 59.8717 68.3153 59.8904 68.2211 59.9336C68.1269 59.9768 68.0452 60.0432 67.9837 60.1266C67.9374 60.072 67.8806 60.0271 67.8167 59.9948C67.7528 59.9624 67.6831 59.9432 67.6117 59.9382C67.5403 59.9332 67.4685 59.9425 67.4008 59.9657C67.333 59.9888 67.2706 60.0253 67.2171 60.0729C66.9182 60.3182 66.8952 60.8395 66.8492 61.3301H64.3196C64.1663 60.8855 63.3538 58.8542 63.2082 58.3406L74.0469 57.6737C73.8246 58.2563 72.8664 60.7705 72.5522 61.4067ZM92.7503 55.8724C92.4666 56.9532 91.8917 58.7468 90.4507 58.7009C90.2721 58.6682 90.1109 58.5732 89.9958 58.4329C89.8807 58.2925 89.8191 58.1158 89.8221 57.9343C89.9618 57.9557 90.104 57.9557 90.2437 57.9343C90.8647 57.4797 91.3403 56.8544 91.6124 56.1345C91.8846 55.4146 91.9417 54.6311 91.7768 53.8794C91.7768 53.7337 91.6311 53.2738 91.5315 53.2585L90.7649 53.1358C91.6311 52.0397 93.3711 53.1742 92.7503 55.8724ZM69.5704 29.1281C69.6547 29.1281 76.6761 29.2201 80.1408 29.2048C79.8955 34.8158 79.8419 40.5034 80.0795 46.1681C76.7144 43.3779 73.0964 40.6874 69.5474 38.0122C69.555 37.9432 69.6317 30.6612 69.5704 29.1281ZM38.6025 58.7775C37.836 57.9726 37.6214 56.7615 37.4221 55.7114C35.7894 47.2795 37.583 38.4031 41.7453 30.9294C42.4045 29.7337 45.4553 24.6362 47.7549 22.8809C48.6901 22.1603 49.8782 23.1032 50.4071 24.0843C51.3269 25.7937 51.4649 33.3364 51.2963 35.7969C49.9308 35.2895 48.4412 35.2199 47.0344 35.5976C39.8213 37.6673 40.4345 48.6746 48.5674 48.7206C48.0155 50.2537 45.7159 55.857 41.6687 58.8618C41.2326 59.2182 40.6828 59.4058 40.1199 59.3903C39.5569 59.3748 39.0184 59.1573 38.6025 58.7775ZM45.0567 59.866C44.9111 59.82 41.8526 59.7357 40.6875 59.6207C41.7394 59.2517 42.6753 58.6118 43.401 57.7657C48.1995 53.0745 50.3688 45.4015 51.2886 38.7634C51.8919 34.2311 51.8066 29.6336 51.0357 25.1268C50.868 24.2395 50.4474 23.4197 49.8245 22.7659C50.3688 22.9422 53.7185 23.977 53.9101 23.9923C56.3247 30.1782 56.4857 37.2073 54.9986 43.7075C54.692 44.9263 54.2934 46.1374 53.9025 47.3332C52.2698 52.5763 49.7709 57.0375 45.0567 59.866ZM46.9807 58.8465C55.9491 51.8097 57.7121 34.8694 54.8683 25.9547C64.4346 35.9656 77.0977 42.6344 86.618 52.5916C86.6793 52.6529 90.6806 53.4041 91.4855 53.5344C91.693 54.2841 91.6758 55.0782 91.436 55.8182C91.1961 56.5581 90.7442 57.2113 90.1364 57.6967C89.7991 57.5587 85.3226 56.7615 85.2612 56.7539C82.7317 56.7769 48.1382 58.7852 46.9807 58.8465ZM29.9561 84.9469C29.9336 84.9469 29.9114 84.9527 29.8919 84.9638C29.8723 84.9749 29.8559 84.9908 29.8443 85.0101C29.8327 85.0294 29.8264 85.0514 29.8258 85.0739C29.8252 85.0964 29.8305 85.1186 29.8411 85.1385C29.8411 88.2429 29.7338 91.5084 29.8411 94.6895C27.0203 94.6205 19.5619 94.5975 18.78 94.5975C18.872 90.1593 18.78 78.5617 18.78 77.3122H31.4508C31.4729 77.3129 31.4948 77.3079 31.5145 77.2978C31.5341 77.2876 31.5509 77.2727 31.5631 77.2542C31.5754 77.2358 31.5828 77.2146 31.5846 77.1926C31.5864 77.1705 31.5826 77.1484 31.5734 77.1283C31.6578 74.3304 31.5734 71.3793 31.5121 68.4894C34.2946 68.3821 41.2777 68.7424 41.9906 68.7884C42.5195 68.7884 42.1976 68.3975 42.2129 75.2656C42.2129 75.3269 42.3432 75.4036 42.3739 75.4036C46.973 75.7255 51.6565 75.4036 56.34 75.4572C56.869 75.6335 56.2864 74.0545 56.6007 58.7239L62.9782 58.3636C63.1622 58.8695 63.9824 60.9698 64.1203 61.5523C64.1308 61.5857 64.151 61.6151 64.1783 61.637C64.2056 61.6588 64.2388 61.6721 64.2736 61.675H66.9028C66.8309 62.1303 66.9033 62.5967 67.1098 63.0088C66.3969 74.0238 67.3244 76.8063 67.4011 77.0823C66.5847 76.8214 65.7061 76.8295 64.8947 77.1055C64.0833 77.3815 63.3819 77.9108 62.8939 78.6153C62.3659 78.2296 61.7354 78.0093 61.0821 77.9822C60.4288 77.9551 59.7822 78.1224 59.224 78.463C58.6659 78.8036 58.2214 79.3022 57.9468 79.8956C57.6722 80.489 57.5799 81.1505 57.6815 81.7964C57.6815 82.126 57.3749 82.195 57.0912 82.2103C53.9025 82.0724 51.8788 84.5099 52.3081 86.9015C51.8357 87.2679 51.5054 87.7872 51.374 88.3704C51.2425 88.9536 51.318 89.5643 51.5876 90.0979C50.5221 90.5579 49.288 91.2937 49.288 92.5968C49.2481 92.9734 49.355 93.3508 49.5862 93.6506C49.8175 93.9504 50.1554 94.1495 50.5297 94.2066C50.89 94.2525 51.2963 94.2066 51.6029 94.4595C51.7461 94.7525 51.972 94.9971 52.2525 95.1633C52.5331 95.3294 52.8562 95.4099 53.1819 95.3947C53.1962 95.6355 53.1584 95.8765 53.0711 96.1014C52.9838 96.3263 52.849 96.5297 52.676 96.6978C52.676 96.6978 51.8558 96.5061 51.4956 96.3682C51.1495 96.2389 50.7685 96.2389 50.4224 96.3682C50.0179 96.525 49.5748 96.5533 49.1537 96.449C48.7325 96.3448 48.3538 96.1131 48.0692 95.7856C47.6169 95.0191 46.8044 93.7236 45.7696 94.5592C45.6452 94.668 45.5481 94.8046 45.486 94.9577C45.486 96.3452 44.6811 95.9082 44.2902 95.7243C44.3898 92.1829 44.3668 88.6492 44.3745 85.1078C44.2672 84.9009 44.9647 84.9162 29.9561 84.9469ZM65.1552 109.223C64.059 109.223 34.7775 109.568 21.2099 109.43C20.9647 108.663 19.8609 107.981 20.2748 106.479C20.6887 104.976 21.9688 103.65 23.3869 104.179C23.4186 104.19 23.4532 104.189 23.4842 104.176C23.5153 104.164 23.5406 104.14 23.5555 104.11C23.8855 103.651 24.3129 103.271 24.8072 102.996C25.3015 102.722 25.8503 102.56 26.4145 102.523C26.9786 102.485 27.544 102.573 28.0702 102.78C28.5963 102.987 29.0702 103.308 29.4578 103.719C29.6188 103.857 29.6724 104.064 29.8871 103.781C30.4007 102.546 31.8571 102.37 33.1295 102.5C33.1607 102.499 33.1906 102.488 33.2153 102.468C33.2399 102.449 33.2582 102.423 33.2675 102.393C33.414 101.603 33.8517 100.898 34.4939 100.415C35.1686 99.9919 35.932 99.7296 36.7245 99.6489C36.8409 99.5333 36.9312 99.3942 36.9894 99.2408C37.0476 99.0875 37.0723 98.9234 37.0618 98.7597C37.0344 98.0944 37.23 97.439 37.6174 96.8975C38.0048 96.3559 38.5619 95.9592 39.2004 95.7703C42.1056 94.8658 44.5661 96.3452 44.9571 96.2839C45.348 96.2225 45.509 95.9082 45.5473 95.5173C45.5473 95.2874 45.509 94.6818 46.3138 94.5975C47.1187 94.5132 47.3716 95.525 47.7319 95.9926C48.0058 96.3218 48.3662 96.568 48.7725 96.7034C49.1788 96.8389 49.6148 96.8581 50.0315 96.7591C50.5604 96.6748 50.729 96.4831 51.3039 96.7054C51.7248 96.8386 52.1594 96.9234 52.5994 96.9584C52.8533 96.7575 53.0514 96.4949 53.1749 96.1957C53.2983 95.8964 53.343 95.5705 53.3046 95.249C53.3041 95.2316 53.2996 95.2145 53.2915 95.1991C53.2834 95.1837 53.2719 95.1703 53.2579 95.16C53.2438 95.1496 53.2276 95.1426 53.2105 95.1394C53.1934 95.1363 53.1757 95.1371 53.1589 95.1417C52.9578 95.1833 52.7494 95.1728 52.5535 95.1111C52.3576 95.0493 52.1808 94.9385 52.0398 94.7891C51.8022 94.5285 51.7025 94.1989 51.3346 94.0762C50.9667 93.9536 50.5681 94.0303 50.2385 93.9229C50.0299 93.8137 49.8493 93.6579 49.7106 93.4676C49.572 93.2772 49.4791 93.0575 49.439 92.8255C49.399 92.5935 49.413 92.3554 49.4798 92.1296C49.5467 91.9038 49.6646 91.6965 49.8245 91.5237C50.3464 90.9295 51.0151 90.4828 51.7639 90.2283C51.7899 90.2137 51.8093 90.1895 51.8179 90.1609C51.8265 90.1323 51.8236 90.1015 51.8098 90.075C51.5098 89.5771 51.4094 88.9841 51.5289 88.4153C51.6483 87.8464 51.9788 87.3439 52.4537 87.0088C52.4744 86.9966 52.4906 86.9781 52.5003 86.9561C52.5099 86.9341 52.5124 86.9097 52.5074 86.8862C52.0168 84.6326 54.0405 82.5476 56.34 82.425C57.4132 82.4863 58.1107 82.3253 57.8731 81.1065C57.9105 80.5851 58.0737 80.0806 58.3487 79.636C58.6237 79.1915 59.0023 78.8202 59.4522 78.554C60.556 77.8565 61.951 78.3087 62.9935 78.8146C63.4623 78.1154 64.1459 77.5876 64.941 77.3111C65.7361 77.0345 66.5996 77.0242 67.4011 77.2816C67.4471 77.2816 68.2673 82.1567 71.479 82.7163C71.9083 82.7929 74.3535 82.8466 78.9834 79.4355C78.5618 80.7539 76.6378 87.7984 76.2928 89.822C76.2009 90.3969 76.6684 90.6882 77.0594 90.9488C75.1584 93.8846 68.3439 102.393 65.1552 109.223ZM120.736 85.3838C121.149 86.0102 121.412 86.7232 121.505 87.4675C121.598 88.2119 121.519 88.9676 121.273 89.6764C121.261 89.7091 121.262 89.7449 121.275 89.7772C121.287 89.8096 121.311 89.8363 121.342 89.8527C125.22 91.9376 123.856 95.9849 123.856 95.9849C123.247 96.1312 122.68 96.4173 122.2 96.8204C122.124 96.8971 122.2 97.0121 122.323 96.9431C122.867 96.5174 123.512 96.2377 124.194 96.1304C124.877 96.0231 125.576 96.0918 126.225 96.3298C127.239 96.7402 128.083 97.4839 128.618 98.4384C129.153 99.3929 129.347 100.501 129.168 101.581C133.951 100.415 136.067 103.643 136.228 103.88C136.718 104.585 136.895 104.493 137.761 104.524C140.628 104.654 143.127 107.015 144.315 109.598C129.337 110.725 114.274 109.828 99.2658 109.169C100.46 105.077 101.105 100.845 101.182 96.5828C101.473 96.5329 101.759 96.4637 102.041 96.3758C102.238 96.0152 102.383 95.6279 102.47 95.226C103.236 91.2937 104.493 87.2924 104.769 83.1915C105.758 84.1022 106.834 84.9135 107.981 85.6137C108.073 85.6597 108.364 85.4221 108.456 85.3608C109.262 85.8429 110.03 86.3835 110.756 86.9782C112.09 88.3733 111.523 89.7913 111.875 95.1187C112.22 100.791 112.734 102.163 112.573 102.623C112.335 103.229 110.074 103.689 111.875 104.156C112.082 104.156 112.734 103.972 112.642 104.394C112.404 104.785 111.875 105.544 112.734 105.743C112.859 105.756 112.984 105.724 113.086 105.651C113.097 105.78 113.154 105.901 113.247 105.991C113.34 106.081 113.463 106.134 113.592 106.141C113.732 106.147 113.87 106.109 113.987 106.032C114.104 105.955 114.194 105.843 114.244 105.712C114.272 105.791 114.322 105.861 114.386 105.915C114.451 105.969 114.529 106.005 114.612 106.019C115.478 105.957 115.432 104.739 115.654 103.995C115.861 102.554 115.899 100.929 116.704 99.5033C118.705 94.1376 120.039 88.7718 117.471 83.7587C118.112 83.653 118.769 83.7534 119.349 84.0454C119.929 84.3375 120.401 84.8061 120.698 85.3838H120.736ZM116.007 100.308C115.608 101.182 115.24 104.677 115.148 104.907C115.056 105.137 114.926 105.988 114.474 105.567C114.412 105.432 114.391 105.283 114.412 105.137C114.412 104.992 114.213 104.999 114.19 105.137C114.19 105.413 114.029 105.804 113.692 105.835C113.125 105.835 113.347 105.122 113.332 105.068C113.325 105.042 113.31 105.019 113.288 105.002C113.266 104.985 113.24 104.976 113.213 104.976C113.186 104.976 113.159 104.985 113.138 105.002C113.116 105.019 113.101 105.042 113.094 105.068C113.094 105.122 113.04 105.651 112.626 105.421C112.45 105.314 112.473 105.137 112.557 104.984C112.642 104.831 112.872 104.608 112.91 104.363C112.924 104.259 112.904 104.154 112.853 104.063C112.801 103.972 112.722 103.899 112.626 103.857C112.374 103.805 112.113 103.805 111.86 103.857C111.745 103.857 111.515 103.857 111.477 103.704C111.438 103.551 111.868 103.474 111.983 103.436C113.301 102.968 112.826 101.903 112.649 100.469C112.289 97.5946 112.143 94.6205 112.028 91.6387V89.0325C111.868 86.9705 110.564 86.1273 108.755 85.1998C108.755 85.1998 112.527 82.4786 114.313 79.6731C118.398 84.6173 120.56 89.2624 115.968 100.308H116.007ZM111.852 73.6712C113.024 75.1188 114.032 76.6922 114.857 78.3624C113.661 80.662 110.097 83.8354 108.104 85.2611C107.261 84.8319 104.693 83.3831 102.439 79.2822C102.393 79.1979 102.263 79.2822 102.309 79.3589C102.959 80.6108 103.729 81.7968 104.608 82.9002C104.34 86.4416 103.259 90.0136 102.562 93.5627C102.404 94.4182 102.183 95.261 101.903 96.0845C99.603 96.6441 83.3449 94.4825 77.0747 90.5119C76.6684 90.2666 76.5764 90.1516 76.6684 89.6457C77.435 85.5064 79.9492 76.2467 82.8007 70.5821C82.8467 70.4824 82.701 70.3981 82.655 70.4978C81.3455 73.0972 80.2235 75.7869 79.2976 78.5463C77.8259 76.5457 76.1319 73.4489 75.9019 70.2525C75.7946 69.7466 76.2468 69.4859 76.5918 69.2636C76.9367 69.0414 83.9965 63.254 90.489 63.6373C91.0179 63.6373 92.3747 63.7753 92.5356 63.7753C92.3427 64.5351 92.3763 65.3349 92.6324 66.0758C92.8885 66.8168 93.3558 67.4666 93.9767 67.9452C95.6477 69.095 99.3424 68.842 101.642 66.1822C105.57 67.8524 109.053 70.4168 111.814 73.6712H111.852Z" fill="white"/>
<path d="M96.9813 57.3365C96.9987 57.3323 97.0147 57.3235 97.0275 57.3111C97.0403 57.2987 97.0496 57.283 97.0543 57.2658C97.059 57.2485 97.059 57.2303 97.0542 57.2131C97.0495 57.1959 97.0402 57.1802 97.0273 57.1678C96.8817 57.0375 96.5137 57.0452 96.5137 56.7769C97.0358 56.0918 97.5989 55.439 98.2001 54.8222C98.2691 54.7456 98.1618 54.6229 98.0851 54.6996C96.4601 56.3323 96.1381 56.5699 96.3068 56.9992C96.372 57.1169 96.4714 57.2121 96.5918 57.2723C96.7122 57.3325 96.848 57.3549 96.9813 57.3365ZM96.5367 54.5309C96.696 54.3535 96.8445 54.1667 96.9813 53.9714C97.058 53.8641 96.874 53.7261 96.782 53.8641C96.6428 54.0473 96.5197 54.2422 96.4141 54.4466C96.4158 54.4606 96.4205 54.474 96.4278 54.486C96.4352 54.498 96.4449 54.5083 96.4565 54.5163C96.4681 54.5243 96.4812 54.5297 96.4951 54.5322C96.5089 54.5347 96.5231 54.5343 96.5367 54.5309ZM99.4725 56.133C99.5799 56.133 100.431 55.5428 100.239 55.3665C100.215 55.3421 100.182 55.3285 100.147 55.3285C100.113 55.3285 100.08 55.3421 100.055 55.3665C99.9478 55.5504 99.3806 55.8647 99.3882 56.133C99.4011 56.1404 99.4156 56.1443 99.4304 56.1443C99.4452 56.1443 99.4597 56.1404 99.4725 56.133ZM98.1618 59.843C98.4531 60.0576 98.982 59.7204 99.2273 59.3064C99.3662 59.0341 99.4792 58.7492 99.5645 58.4556C99.5689 58.4428 99.5706 58.4292 99.5695 58.4157C99.5685 58.4022 99.5646 58.389 99.5583 58.3771C99.552 58.3651 99.5433 58.3545 99.5328 58.346C99.5223 58.3375 99.5101 58.3312 99.497 58.3276C99.484 58.3239 99.4704 58.323 99.4569 58.3248C99.4435 58.3266 99.4306 58.3311 99.419 58.338C99.4074 58.345 99.3973 58.3543 99.3894 58.3652C99.3814 58.3762 99.3758 58.3887 99.3729 58.4019C99.2818 58.6045 99.1374 58.7785 98.9552 58.9054C98.7729 59.0323 98.5596 59.1073 98.3381 59.1225C97.9242 59.2528 97.8782 59.6514 98.1618 59.843ZM60.3182 34.9308C60.3019 34.9206 60.2823 34.9173 60.2636 34.9216C60.2449 34.9259 60.2287 34.9375 60.2185 34.9538C60.2083 34.97 60.2051 34.9897 60.2094 35.0083C60.2137 35.027 60.2252 35.0432 60.2415 35.0534C64.6261 38.3188 65.6072 38.7557 68.1521 40.856C68.2364 40.925 68.3591 40.8101 68.2747 40.7257C65.7626 38.6088 63.1037 36.6723 60.3182 34.9308ZM74.1387 45.2943C74.246 45.3402 74.361 45.2176 74.269 45.1256C74.177 45.0336 71.9694 43.5466 71.5095 43.24C71.4022 43.1633 71.3026 43.3319 71.4099 43.4086C71.8545 43.7305 73.8858 45.1793 74.1387 45.2943ZM26.7288 19.0559L25.1957 19.4622C27.6716 23.0342 31.9489 26.4989 35.0303 30.0633C35.5592 30.1629 30.6611 22.0454 28.7678 18.1821L30.0479 18.0977C30.08 18.0982 30.1116 18.089 30.1385 18.0714C30.1654 18.0537 30.1864 18.0284 30.1988 17.9987C30.2112 17.969 30.2144 17.9363 30.208 17.9047C30.2015 17.8732 30.1858 17.8443 30.1628 17.8218C27.3484 14.1027 24.0749 10.7545 20.4202 7.8569C20.3283 7.66527 20.0446 7.8569 20.1366 8.01787C22.03 11.8582 24.8508 15.3306 26.7288 19.0559ZM29.7413 17.7911L28.5148 17.8601C28.4852 17.8602 28.4562 17.868 28.4306 17.8829C28.4051 17.8977 28.3838 17.919 28.3691 17.9446C28.3543 17.9702 28.3466 17.9993 28.3466 18.0289C28.3466 18.0584 28.3544 18.0875 28.3692 18.1131C29.9022 21.3018 33.9035 28.2619 34.1565 28.6682C31.9565 26.3686 26.4069 20.3513 25.7246 19.6461L26.9894 19.3165C27.0128 19.3092 27.0343 19.2968 27.0525 19.2803C27.0706 19.2638 27.0849 19.2435 27.0944 19.2209C27.1039 19.1982 27.1083 19.1738 27.1074 19.1493C27.1065 19.1248 27.1002 19.1008 27.0891 19.0789C25.556 16.0128 21.0105 9.0067 20.6732 8.34748C24.2606 10.9 29.128 17.0399 29.7413 17.7911ZM28.0779 38.6561C28.1153 38.6635 28.154 38.659 28.1887 38.6434C28.2235 38.6278 28.2525 38.6019 28.2719 38.569C28.2912 38.5362 28.2999 38.4982 28.2968 38.4603C28.2936 38.4223 28.2787 38.3863 28.2542 38.3572C27.2239 37.0139 26.0232 35.8106 24.6822 34.7775C27.181 34.4095 29.7259 34.4248 32.2248 34.0109C32.3935 34.0109 32.3628 33.7426 32.2248 33.6966L16.6872 28.6529C16.6496 28.6366 16.6071 28.636 16.569 28.651C16.5309 28.6661 16.5004 28.6958 16.4841 28.7334C16.4678 28.771 16.4672 28.8135 16.4823 28.8516C16.4974 28.8897 16.527 28.9202 16.5646 28.9365C18.0694 29.8499 19.4135 31.0049 20.5429 32.3552C15.1925 31.8493 4.13913 31.4277 4.04715 31.4277C3.83252 31.3511 3.74054 31.6883 3.95517 31.765C10.0568 33.9879 26.3225 38.1962 28.0779 38.6561ZM4.77535 31.6653C10.1411 31.834 14.9549 32.3859 20.8725 32.6772C21.0181 32.6772 21.0488 32.5162 20.9721 32.4242C20.0247 31.2299 18.9093 30.1791 17.6607 29.3044L31.4583 33.7886C29.0361 34.1182 26.5755 34.1106 24.1609 34.5092C24.0076 34.5092 23.9999 34.7545 24.1149 34.8234C25.4465 35.7469 26.6214 36.8778 27.595 38.1732C19.9987 36.1802 12.2644 34.3405 4.77535 31.6653ZM31.6039 48.0154C28.4075 49.6022 19.9987 53.1819 19.0558 53.5421C19.0176 53.554 18.9849 53.5791 18.9635 53.6128C18.9421 53.6466 18.9334 53.6869 18.9389 53.7264C18.9444 53.766 18.9638 53.8024 18.9937 53.829C19.0235 53.8556 19.0618 53.8708 19.1018 53.8717H22.8118C19.4851 56.9379 17.1165 59.2374 13.1842 61.537C13.0769 61.5984 13.4985 61.8053 13.6135 61.7517C19.2338 59.0382 24.6722 55.963 29.8946 52.5456C30.1399 51.8941 27.595 52.3923 27.1504 52.2543L31.7496 48.2761C31.9489 48.1457 31.7572 47.9388 31.6039 48.0154ZM26.6291 52.3003C26.6062 52.3229 26.5904 52.3517 26.584 52.3833C26.5776 52.4148 26.5808 52.4475 26.5932 52.4773C26.6056 52.507 26.6266 52.5323 26.6535 52.5499C26.6804 52.5676 26.7119 52.5768 26.7441 52.5763H29.2967C24.6629 55.5893 19.8505 58.318 14.8859 60.7475C17.9622 58.7932 20.793 56.4771 23.3177 53.8487C23.3379 53.8264 23.3514 53.7988 23.3566 53.7692C23.3619 53.7396 23.3588 53.7091 23.3476 53.6812C23.3365 53.6532 23.3177 53.629 23.2934 53.6112C23.2692 53.5934 23.2404 53.5827 23.2104 53.5804H19.9603C23.0265 52.377 30.0785 49.1576 30.6151 48.8969L26.6291 52.3003Z" fill="white"/>
</svg>
