<svg width="154" height="154" viewBox="0 0 154 154" fill="none" xmlns="http://www.w3.org/2000/svg">
<path d="M38.996 107.037C39.0206 106.76 22.0284 112.277 10.4137 105.752C-2.74952 98.3577 6.65758 74.9457 14.3568 63.1109C17.2597 58.6504 17.571 58.9348 17.2912 58.747C15.5841 57.6017 15.3434 57.4438 18.2371 54.8299C19.6797 53.5268 20.3773 53.1013 20.4195 52.4942C20.6816 48.7274 21.8238 43.3723 25.1552 41.5916C26.9045 40.6587 27.2402 41.2213 27.0716 40.7652C25.5967 36.6948 26.0498 37.9888 24.3618 33.076C24.1457 32.4459 22.0024 33.8172 21.4313 30.3363C20.9714 27.5254 31.0898 23.9249 32.3638 26.4744C33.2346 28.2176 33.253 29.119 31.6517 30.127C31.5061 30.2183 31.6824 30.1156 39.2498 51.5904C41.6613 58.4334 43.5156 61.7856 39.5755 63.5571C39.1025 63.7624 38.5848 63.8434 38.0716 63.7924C34.9578 63.7579 34.1698 59.9167 31.2937 52.2298C31.004 51.4548 31.3022 51.9814 29.4295 53.631C27.2065 55.5911 27.3307 55.2231 26.8316 58.9394C26.4077 62.0945 26.7251 61.8522 25.2257 61.7388C24.8792 61.7127 25.2004 61.7388 24.5504 64.7107C24.4737 65.061 24.7627 64.9629 25.4794 65.5539C26.0651 66.0353 25.8696 66.2201 26.016 68.5864C26.049 69.1145 26.1165 68.9842 26.2337 70.6844C26.5496 75.2676 26.2161 75.2071 26.8316 74.8161C31.2592 71.9799 44.1978 64.9552 58.76 62.5644C65.6689 61.4306 65.5991 62.3635 65.6674 61.4145C65.7118 60.8013 65.8138 60.3414 65.8207 59.8814C65.8039 59.623 65.8075 59.3636 65.8314 59.1057C65.9732 58.2778 58.3108 56.4734 56.1675 41.3072C54.7778 31.4762 57.9053 28.6875 56.5991 29.28C54.2304 30.3532 52.8077 28.9397 52.4597 29.4402C52.2803 29.697 52.6498 29.8112 52.9457 30.2029C54.4175 32.1477 52.5908 34.2557 50.3739 35.128C49.8795 35.3227 49.6526 34.813 49.7944 34.6259C50.2835 33.982 50.587 33.7996 50.7074 33.3481C50.8607 32.7816 51.0086 32.3232 50.5456 32.0603C48.9359 31.1404 48.1279 30.81 47.5722 29.8657C47.4378 29.667 47.3528 29.439 47.3242 29.2008C47.2956 28.9627 47.3243 28.7211 47.4078 28.4962C47.4913 28.2714 47.6272 28.0696 47.8044 27.9079C47.9814 27.7461 48.1946 27.6289 48.4261 27.566C50.8737 26.6239 50.5226 27.1505 48.7473 25.9264C47.1812 24.8463 47.6964 22.5489 49.8465 21.9257C51.7698 21.3677 52.2412 22.0024 52.1684 20.7636C52.0626 18.9523 54.383 17.8783 57.2346 19.6475C57.7205 19.9488 57.1579 18.1666 56.2764 17.154C55.5481 16.3192 58.5063 15.8217 60.2494 16.7937C60.7009 17.0459 60.8703 17.4483 60.9677 17.0604C61.5579 14.6972 64.3566 12.9502 64.7099 13.2622C64.9207 13.4492 64.8426 13.66 64.7391 14.0234C64.5812 14.5799 64.5467 16.0885 64.7674 15.8838C64.8065 15.8478 64.828 15.7956 64.864 15.755C66.1173 14.3101 68.0759 13.2744 69.8581 13.9827C70.9788 14.4281 71.3421 15.3165 71.8511 15.5549C73.3237 16.241 73.8442 13.3503 76.1208 13.8777C79.0007 14.5454 78.3116 17.3364 78.7531 17.1325C79.1479 16.9508 79.5465 16.7806 79.9298 16.5775C83.5709 14.6527 90.0023 22.3903 88.3113 28.446C87.3017 32.0626 85.5969 31.8809 86.286 32.5141C87.4688 33.6011 87.2419 35.325 86.2201 36.484C85.8108 36.9486 87.4029 36.7907 87.8352 39.377C88.2354 41.7709 86.703 44.5129 84.2846 44.9575C83.5824 45.0855 83.0895 44.7613 83.075 45.041C82.6212 53.7797 80.2249 54.393 80.691 55.0698C81.5809 56.4492 82.3812 57.8846 83.0864 59.3671C83.288 59.7504 83.2926 59.5204 84.3129 59.4637C94.84 58.855 108.895 62.4019 118.42 70.758C127.79 78.9785 134.517 91.2586 138.12 104.464C140.42 112.911 141.56 121.703 140.589 128.802C139.049 140.065 136.028 144.597 123.372 146.45C118.006 147.235 108.397 147.05 100.662 145.158C98.5823 144.649 97.5857 139.986 96.8767 139.921C95.5682 139.801 95.4141 139.597 95.4463 139.984C95.523 140.862 95.7131 141.51 94.784 141.374C94.7694 141.358 88.0637 139.248 86.2554 139.008C83.5724 138.651 75.3865 139.458 73.2554 135.449C72.8676 134.719 73.4394 134.682 73.0676 134.402C72.6333 134.073 72.2782 133.65 72.0282 133.166C71.6718 132.508 72.1156 132.175 72.2674 131.926C71.5775 131.782 67.0441 131.913 63.7893 131.888C62.4801 131.878 62.8311 130.058 62.8848 128.971C62.9178 128.296 63.2903 128.596 63.2888 128.003C63.2888 126.28 63.242 115.389 63.5256 113.719C63.6061 113.246 62.5521 113.835 63.1155 110.437C63.2129 109.846 63.9066 109.913 65.9104 109.756C66.1656 109.736 65.8797 102.745 65.987 100.318C65.997 100.088 65.9832 100.07 65.757 100.018C64.9974 99.844 64.24 99.1602 64.4248 98.6321C64.5014 98.4082 64.0323 97.4156 65.9648 96.994C67.0165 96.764 72.0129 96.6874 73.1175 97.1672C74.14 97.6141 74.2819 99.23 72.7051 99.8417C72.3747 99.9697 72.2658 99.8087 72.2988 100.41C72.4214 102.648 72.3264 103.129 72.4521 109.572C72.4613 110.051 72.423 109.866 75.8096 109.912C77.266 109.931 77.286 110.124 77.276 109.778C77 100.005 77.378 100.167 76.859 100.01C75.0139 99.4531 75.0591 97.26 77.2285 96.9909C79.2154 96.7908 81.2161 96.7655 83.2076 96.9142C84.8173 97.0561 85.1531 97.7375 85.0312 98.639C84.9246 99.4232 84.3413 99.6692 83.6713 99.9176C83.4467 100 83.4728 99.9498 83.4927 100.503C83.6322 104.39 83.541 107.647 83.646 109.891C83.6637 110.268 86.5375 109.936 87.977 110.138C88.5696 110.222 88.1978 110.347 88.1572 100.421C88.1572 99.9306 87.6674 100.246 86.9759 99.6179C86.378 99.0751 86.2278 97.3619 88.1357 97.0883C89.5055 96.8905 94.5379 96.6559 95.6011 97.4416C96.3163 97.9698 96.3677 99.4086 94.8974 99.9322C94.5142 100.068 94.4115 99.9222 94.4689 100.515C94.5264 101.107 94.6177 109.431 94.6223 109.801C94.633 110.59 94.9235 110.031 97.6532 110.313C98.4029 110.389 98.2113 112.346 98.2082 113.308C98.2082 114.08 97.6218 113.751 97.6386 114.096C97.9453 120.591 97.4439 127.04 98.0871 126.783C99.4055 126.256 102.203 124.943 108.052 122.504C109.252 122.003 109.355 122.083 109.178 121.806C108.753 121.13 105.445 112.339 103.855 98.0242C102.992 90.2591 103.5 81.1892 104.845 78.1767C104.953 77.9345 105.357 77.9406 105.325 78.294C104.485 85.2887 104.503 92.3594 105.378 99.3496C106.423 106.984 108.61 118.509 110.274 121.444C110.407 121.678 110.322 121.556 112.613 120.749C124.513 116.553 126.104 117.35 125.095 117.747C124.616 117.935 102.842 125.668 98.534 127.903C95.49 129.481 95.6732 128 97.3918 131.018C100.079 135.738 101.378 142.579 101.333 143.903C101.31 144.613 122.844 147.329 131.187 142.814C133.42 141.607 136.037 140.178 137.774 135.436C140.145 128.964 140.419 118.296 137.538 106.925C132.989 88.9682 125.33 79.1763 118.514 72.6177C107.425 61.9488 89.3361 59.5028 84.2432 60.5828C83.7947 60.6779 84.1205 60.7614 84.2171 61.5272C85.3156 70.2452 84.4846 85.1876 82.9278 93.057C82.8373 93.5131 82.3644 93.3023 82.3529 93.0225C82.346 92.8469 84.7974 71.0516 83.3494 61.4222C83.2628 60.845 82.4579 60.6035 80.0915 55.8471C79.8179 55.2975 78.6742 58.8627 73.2562 59.709C68.5036 60.4518 66.7482 58.6795 66.7405 59.2805C66.6899 65.9847 66.1541 63.6444 67.2771 70.0428C70.4138 87.8613 73.8495 93.0393 73.1029 93.5376C71.8672 94.3593 65.1392 70.5909 65.5907 63.15C65.6267 62.5544 56.4289 63.7426 50.0389 65.6796C38.7132 69.1084 35.1533 71.5897 28.5334 75.1465C27.208 75.8587 26.7167 75.9974 26.5588 76.2511C26.3901 76.5194 27.3606 90.5205 25.8282 92.3939C25.5316 92.7572 25.2725 92.4476 25.2702 92.2337C25.2588 91.9263 25.2726 91.6189 25.3116 91.3138C26.1793 86.0622 25.1498 71.7821 25.2035 68.3173C25.2181 67.3538 25.4335 67.0955 24.9498 67.2557C21.7992 68.289 17.6775 66.7298 15.0467 64.7092C14.6473 64.4026 14.6803 64.2631 14.4335 64.703C8.0757 76.1415 1.48184 92.2322 7.34211 101.185C12.5623 109.161 29.8519 108.55 39.0681 105.338C39.5326 105.176 44.6478 82.7967 46.6362 83.252C47.5377 83.4582 41.9043 94.541 38.6066 117.183C36.7477 129.944 36.619 143.6 35.7459 147.073C35.737 147.161 35.6939 147.241 35.626 147.297C35.5582 147.352 35.4711 147.379 35.3838 147.37C35.2965 147.362 35.2161 147.32 35.1601 147.251C35.1042 147.184 35.0772 147.097 35.0851 147.01C34.5293 141.793 36.1583 123.253 37.7902 113.507C37.6699 113.666 38.9891 107.114 38.996 107.037ZM86.9583 23.465C86.3221 21.714 85.3278 20.1151 84.0385 18.7706C82.2754 17.0765 81.8101 16.8397 79.66 17.7917C78.8321 18.1589 77.8639 19.0113 77.7582 17.9144C77.6217 16.5009 77.6386 15.8761 76.7011 15.0935C74.9334 13.6179 73.5812 17.9742 71.1099 16.0524C70.2214 15.3625 70.1709 14.7922 68.6339 14.6596C67.3392 14.5485 65.603 16.1705 64.8541 17.1126C64.1504 17.9949 63.7939 16.7393 63.7771 15.617C63.761 14.5531 64.1174 14.0494 63.669 14.4764C60.7561 17.2513 62.1826 20.7291 60.5943 18.7361C60.1083 18.1229 59.4614 16.7799 57.4852 17.0896C57.361 17.1095 57.3089 17.1225 57.4086 17.2498C58.7523 18.9178 58.4472 21.626 57.348 20.7406C55.877 19.5556 53.0316 19.0826 53.0622 20.6947C53.1136 23.3776 51.6272 22.2124 49.6196 23.1246C49.4256 23.2002 49.2562 23.3278 49.1299 23.4932C49.0036 23.6587 48.9253 23.8558 48.9036 24.0629C48.8819 24.2699 48.9177 24.479 49.0069 24.6671C49.0962 24.8551 49.2355 25.015 49.4096 25.1291C49.7553 25.3438 50.0857 25.5822 50.4314 25.7968C51.1167 26.2222 51.7346 27.2418 50.738 27.7492C49.3582 28.4529 47.9118 28.4736 48.3717 29.2777C49.2126 30.7388 51.8273 30.8369 51.7614 32.5018C51.7353 33.1611 51.4847 33.8862 52.3746 32.4558C53.4401 30.7441 50.8331 30.5318 51.6502 29.0968C52.4743 27.648 55.1725 29.7683 56.9111 27.9263C57.2943 27.5246 57.2529 27.6404 57.0268 27.2364C56.6767 26.5411 56.5798 25.7456 56.7524 24.9866C57.2269 22.7513 58.1843 23.1062 58.0233 23.3423C57.6228 24.2205 57.4926 25.1978 57.6493 26.1502C57.7361 26.6793 58.0284 27.1526 58.4626 27.4671C59.581 28.1049 61.0259 28.7388 61.5778 30.5042C62.1964 32.4842 60.1674 33.3512 60.3115 33.5528C60.8309 33.5502 61.3421 33.4229 61.8021 33.1817C62.2622 32.9405 62.6577 32.5925 62.9553 32.1668C63.3138 31.7472 63.5445 31.2336 63.6198 30.6869C63.6953 30.1402 63.6122 29.5833 63.3807 29.0822C63.0542 28.413 61.7212 28.3402 61.4958 26.4085C61.4759 26.2383 61.7871 26.1356 62.0063 26.4591C62.3854 27.0743 62.9371 27.5642 63.5929 27.8678C64.2486 28.1713 64.9792 28.2751 65.6934 28.1662C69.8412 27.5737 69.9547 24.0598 70.3058 23.5309C71.1827 22.2124 70.7205 24.9674 72.6445 26.6415C73.8786 27.7147 76.1446 24.7252 77.4883 23.3377C77.9283 22.8824 78.2817 22.9008 78.2166 23.7333C77.5159 32.6099 78.6259 34.3515 81.8853 37.7833C82.0485 37.9558 82.0815 37.6569 82.6786 37.1701C84.1619 35.9521 85.0235 36.6013 85.2543 36.2962C87.9862 32.6873 83.9879 33.4853 85.3884 31.605C87.1913 29.1765 88.1012 26.9865 86.9583 23.465ZM96.892 114.168C96.905 113.916 96.856 114.014 94.843 114.004C94.2804 114.004 94.9963 115.603 94.6131 124.276C94.4598 127.766 91.7446 128.254 90.108 127.342C87.7785 126.047 88.7421 121.661 88.2921 114.485C88.263 114.019 88.2622 113.921 88.0238 113.922C83.6361 113.942 83.646 113.793 83.6445 114.129C83.597 123.704 84.132 126.28 82.1459 127.237C80.1789 128.179 78.5262 127.347 77.9299 125.848C77.2101 124.036 77.4991 117.315 77.2637 114.167C77.2193 113.576 77.2982 113.84 72.6966 113.684C72.4529 113.676 72.4506 113.684 72.4444 113.931C72.3816 116.369 72.7764 124.196 72.1255 125.855C71.9154 126.361 71.567 126.797 71.1203 127.113C70.6736 127.43 70.1468 127.615 69.6002 127.645C69.0536 127.676 68.5094 127.552 68.0298 127.288C67.5503 127.024 67.155 126.63 66.8892 126.151C65.6865 123.724 66.5635 113.675 65.8598 113.676C64.0699 113.676 64.0906 113.587 64.0967 113.915C64.1672 116.214 64.0201 124.353 64.0806 127.907C64.0852 128.223 70.1141 127.955 75.2354 128.151C75.8349 128.174 75.4302 127.644 76.2565 127.583C77.3956 127.499 77.1273 128.167 78.2694 128.167C79.0843 128.127 79.9014 128.144 80.714 128.218C81.0973 128.272 80.901 127.408 81.8638 127.634C83.229 127.953 82.4426 128.283 83.9864 128.305C84.0094 128.305 94.0404 128.607 94.6506 128.331C97.0315 127.254 96.9748 127.428 96.8736 126.993C96.8414 126.797 96.9219 113.603 96.892 114.168ZM57.1134 41.2405C57.2951 42.4593 57.4676 42.0178 57.7504 41.9403C61.9427 40.7967 62.8388 40.1834 63.0718 40.8181C63.4152 41.7541 62.8327 41.288 63.1799 41.8683C63.4727 41.5908 63.5632 41.3256 63.8951 41.1224C65.0748 40.4019 65.9939 41.4927 65.8115 40.8426C65.7555 40.6449 65.4366 40.5414 65.6582 40.2386C66.1112 39.6169 67.9578 39.2291 72.9281 38.2164C73.5414 38.0915 73.6893 38.2801 73.9722 38.8021C74.2021 39.2306 74.0902 39.1087 74.6352 38.9263C78.9931 37.4698 80.737 37.8761 80.461 37.5779C77.5014 34.3507 77.0016 32.5953 76.872 28.4452C76.7954 25.9731 77.1112 25.8896 76.977 25.5477C76.3945 25.9156 73.7989 29.8235 71.4656 26.722C71.2578 26.4461 71.1827 26.2621 70.7619 25.5507C69.5285 27.9546 67.9716 29.395 64.5996 29.2731C64.5835 29.2711 64.5672 29.2724 64.5517 29.2769C64.5362 29.2815 64.5218 29.2891 64.5093 29.2995C64.4968 29.3098 64.4867 29.3226 64.4794 29.3371C64.4721 29.3515 64.4679 29.3673 64.4669 29.3835C64.6272 30.0453 64.6075 30.738 64.4098 31.3897C64.2123 32.0414 63.844 32.6283 63.3432 33.0898C62.7949 33.5616 62.1493 33.9067 61.4523 34.1004C60.7554 34.2941 60.0243 34.3317 59.3111 34.2105C57.8946 33.7015 61.863 32.7103 60.6196 30.2505C60.1398 29.3892 59.3454 28.7471 58.4028 28.4583C58.2326 28.3969 58.2058 28.3732 58.1345 28.5533C55.7674 34.5439 57.1142 41.3171 57.1134 41.2405ZM74.4022 42.7307C73.2363 45.0978 67.6788 46.3388 66.4477 43.1454C66.1534 42.3788 64.6846 40.8963 64.0093 41.8721C63.0435 43.2703 64.0668 46.8547 58.7968 47.4288C58.6005 47.4503 58.5729 47.3392 59.3188 49.3107C60.2502 51.7706 59.4039 50.3134 62.4433 50.226C64.2531 50.1731 64.9284 50.6775 68.568 49.7806C72.4115 48.8332 77.9084 44.1756 81.9826 47.6465C82.0531 46.8516 82.1283 46.6401 82.1712 46.0843C82.2839 44.611 82.0593 43.4367 82.9124 43.718C86.0637 44.7574 87.7731 40.3298 86.2914 38.1559C85.4214 36.8788 83.6453 37.1325 82.5606 38.4778C82.3897 38.6899 82.1988 38.8845 81.9895 39.0589C81.9497 39.0965 81.8983 39.1209 81.8439 39.1285C81.7894 39.1362 81.7343 39.1267 81.6852 39.1015C81.6361 39.0764 81.5963 39.0366 81.5702 38.9878C81.5449 38.939 81.535 38.8835 81.5426 38.8289C81.5372 38.6687 81.7289 38.4541 81.4767 38.3299C80.9401 38.0662 81.1701 37.9098 80.3729 38.2057C78.4565 38.8184 76.5105 39.3325 74.5417 39.7457C74.2106 39.8285 75.0492 41.4183 74.4022 42.7299V42.7307ZM40.5452 61.6399C42.0339 59.5434 39.3042 56.6711 30.9158 30.518C30.7955 30.1447 30.2497 30.2804 30.6636 29.8879C31.2462 29.3344 33.0622 29.0202 31.7843 26.7052C30.8729 25.051 21.6168 28.4391 22.0254 30.2336C22.0693 30.5897 22.1875 30.9327 22.3724 31.2402C22.5573 31.5478 22.8047 31.8131 23.0985 32.0189C23.7003 32.2926 24.1572 31.9668 24.8953 31.9744C25.2342 31.9744 25.4089 32.1047 25.0931 32.3577C24.7497 32.6337 25.0034 32.6797 26.0697 35.4914C28.2352 41.1953 28.0106 41.0504 28.4245 41.1362C29.8856 41.4429 34.8421 42.9223 33.5351 44.2684C33.1365 44.6792 32.8023 44.5612 32.5815 44.7482C33.46 45.1852 34.4688 45.5914 34.2963 46.7022C34.1875 47.4005 33.4454 47.4725 33.2147 47.5546C33.598 48.0237 34.458 48.5396 34.0671 49.2249C33.601 50.042 31.7928 49.4771 31.5958 49.5031C31.7774 49.7799 33.6363 50.8139 32.2519 51.5728C31.979 51.7261 32.0679 51.6372 34.9962 59.6369C35.4645 60.9148 35.9605 62.5874 38.139 62.8066C38.5971 62.7799 39.0454 62.663 39.4583 62.4628C39.8711 62.2626 40.2405 61.983 40.5452 61.6399ZM60.4226 51.6602C66.0867 61.6154 75.3949 59.8891 78.4864 56.1499C80.2617 54.0035 80.6159 52.8537 81.5955 49.7277C82.221 47.7347 79.568 47.021 77.1955 47.3744C73.2585 47.9601 70.226 51.1566 64.5543 51.1757C63.6398 51.1788 59.9443 50.8139 60.4226 51.6602ZM92.8017 130.538C92.617 129.917 88.565 132.896 86.8648 132.199C85.3102 131.561 82.8327 128.807 81.8408 128.366C81.7933 128.344 81.6154 128.438 81.7281 128.644C82.6564 130.339 84.7177 132.422 83.3647 132.4C81.8147 132.375 78.7025 130.119 77.5535 129.062C76.3508 127.954 76.0288 128.315 76.2611 128.743C77.8271 131.625 79.814 132.619 79.5044 133.025C78.9126 133.801 74.5394 131.006 73.8802 130.725C73.4892 130.557 73.4134 131.109 73.6219 131.389C75.02 133.294 77.5274 134.104 77.9038 134.678C78.5078 135.598 75.7168 134.51 73.4724 132.538C73.1658 132.266 72.4513 132.597 72.7411 133.047C74.5524 135.862 79.6546 135.591 78.087 136.403C77.6961 136.405 77.3067 136.362 76.9257 136.277C75.0714 135.87 73.5966 134.642 73.8342 135.156C75.3267 138.385 85.0825 137.915 86.1871 138.149C92.8615 139.562 93.9385 140.315 94.4153 140.26C94.5425 140.239 94.4391 136.024 92.8017 130.535V130.538ZM27.3974 41.8614C23.0901 41.8146 21.8123 48.397 21.1745 52.3294C20.9974 53.4187 20.5613 53.6141 19.6176 54.5892C16.7661 57.5396 16.7914 57.4185 16.9884 57.5642C19.275 59.2506 25.5975 61.2559 25.6826 60.6549C26.6653 53.7092 26.8439 55.1028 30.1922 51.789C30.2216 51.7484 30.2355 51.6986 30.2313 51.6487C30.2313 51.6127 27.8734 51.1681 27.4204 51.1121C27.2778 51.0945 27.1904 51.1274 27.1781 51.2041C27.0758 52.1548 26.8001 53.0786 26.3648 53.93C25.3921 55.7505 23.9831 56.4534 23.7762 56.1675C23.6351 55.9728 23.7386 55.6777 24.0245 55.4178C25.3683 54.1967 26.5603 52.1546 26.1532 50.7572C25.6619 49.0708 31.1634 51.6993 31.7491 50.7718C32.0304 50.3287 28.7158 48.906 27.0248 48.4913C26.6377 48.3955 25.9792 48.2437 26.0153 47.9003C26.1103 46.995 28.817 48.3042 32.9357 48.9773C32.9986 48.9948 33.0655 48.9905 33.1258 48.9652C33.186 48.9399 33.2359 48.8952 33.2676 48.8381C33.2992 48.7809 33.3107 48.7148 33.3001 48.6503C33.2895 48.5859 33.2576 48.5269 33.2093 48.4829C31.6302 46.9398 26.3732 46.7811 26.5687 45.8283C26.7903 44.7467 33.2515 47.2702 33.4232 46.532C33.644 45.5845 30.1362 44.6923 29.185 44.4868C27.3989 44.1036 26.5787 44.1288 26.8853 43.5179C27.2249 42.8472 32.7716 44.9514 32.941 43.7195C33.0215 43.1515 29.3705 41.8829 27.3974 41.8614ZM97.1005 113.074C97.5129 113.074 97.1258 113.055 97.2822 111.636C97.2822 111.422 97.2561 111.21 97.2055 111.002C97.1158 110.987 63.6046 110.38 63.6306 110.908C63.7656 113.667 63.1661 113.054 66.7099 113.074H97.1005ZM93.8664 100.356C93.8818 100.277 93.8772 100.195 93.8534 100.118C93.8296 100.041 93.7875 99.9712 93.7308 99.9138C93.1589 99.3818 94.6606 99.4301 95.1772 99.0077C95.6165 98.649 95.4839 97.8924 95.1481 98.1308C93.4755 99.3059 87.767 99.0338 87.6535 98.0112C87.6152 97.6678 86.9238 98.1108 87.2327 98.7601C87.5416 99.4094 88.0905 99.3105 88.9122 99.5443C88.9735 99.5634 89.028 99.6018 89.0663 99.6539C89.1046 99.7053 89.1261 99.7681 89.1269 99.8325C89.1276 99.8977 89.1085 99.9605 89.0709 100.013C89.0341 100.066 88.9812 100.106 88.9199 100.127C88.5995 100.214 88.749 100.433 88.7911 101.353C89.0533 107.179 88.8601 106.307 89.0249 109.961C89.0364 110.225 89.0119 110.232 93.5414 110.236C94.022 110.239 93.6725 110.225 93.8664 100.355V100.356ZM77.9467 109.421C77.9582 110.235 78.0924 109.93 79.2307 109.93C80.057 109.993 80.8865 110.015 81.7151 109.994C82.6219 109.994 82.7821 110.063 82.7676 109.809C82.7676 109.793 82.7246 103.356 82.8358 100.264C82.8519 99.8156 82.3398 99.555 82.9078 99.3626C83.2911 99.2867 83.6667 99.1733 84.0285 99.0253C84.723 98.7149 84.4118 97.7176 84.178 97.9982C83.3049 99.0506 78.9892 98.8751 77.4423 98.5294C76.3791 98.2925 76.7816 97.5934 76.3883 97.8525C75.9238 98.1591 76.0518 99.0276 77.0238 99.276C77.4147 99.3756 78.0824 99.3411 78.097 99.7306C78.1138 100.238 77.6248 99.8471 77.6991 100.415C77.9061 101.998 77.9237 107.811 77.9467 109.421V109.421ZM66.7145 106.794C66.7451 106.794 66.7275 106.794 66.7321 106.997C66.8302 110.973 65.9656 109.552 71.1014 109.897C71.8312 109.947 71.6288 111.084 71.638 100.251C71.6522 100.105 71.6094 99.9582 71.5184 99.8425C70.8891 99.0759 73.789 99.4692 73.1957 98.0993C73.004 97.6578 73.1788 98.5332 70.1716 98.7701C69.3238 98.8368 65.7256 98.8697 65.4865 97.9982C65.3577 97.5198 64.8663 98.0326 64.9598 98.4581C65.1315 99.2446 65.8582 99.2691 66.6907 99.4492C66.7554 99.4753 66.8104 99.5205 66.8484 99.5788C66.8864 99.6378 66.9054 99.706 66.9029 99.7758C66.9004 99.8455 66.8764 99.913 66.8344 99.9682C66.7923 100.023 66.7341 100.065 66.6677 100.086C66.2936 100.204 66.7145 100.089 66.7145 106.793V106.794ZM23.1146 66.8157C23.5385 66.8157 23.2833 66.7275 23.4044 65.8835C24.4262 58.7585 25.5101 63.4497 18.211 59.3081C18.0209 59.2008 18.0194 59.1969 17.8998 59.374C15.174 63.4045 15.0873 63.4252 15.3947 63.7073C17.5701 65.5411 20.2755 66.6304 23.1146 66.8157ZM93.8112 129.867C93.3559 130.06 93.4855 130.055 93.6641 130.672C94.4759 133.277 95.0193 135.958 95.2869 138.673C95.4133 139.334 95.2301 138.988 96.9089 139.116C100.066 139.357 99.9582 140.419 98.5631 136.383C97.7697 133.978 96.7019 131.674 95.3804 129.514C95.2056 129.199 95.004 129.362 93.8112 129.867ZM71.6304 115.826C71.6304 113.651 71.717 113.679 71.3958 113.674C71.3797 113.674 67.6213 113.644 67.1675 113.674C66.9682 113.689 66.9651 113.686 66.9651 113.886C66.9444 125.116 66.5397 126.859 69.9041 126.764C72.2467 126.691 71.6426 123.681 71.6304 115.826ZM73.9078 41.8392C73.8738 41.0091 73.6602 40.1962 73.2815 39.4567C73.188 39.2268 73.0469 39.3663 72.4322 39.502C65.6865 40.9906 66.194 40.7146 66.3412 41.1884C66.6378 42.1427 67.2235 43.6781 68.1755 43.9817C70.1754 44.6133 73.9622 43.9326 73.9078 41.8353V41.8392ZM63.5233 129.949C63.5747 131.04 63.4367 131.11 63.8606 131.106C72.7932 131.015 72.6759 131.536 72.7856 130.782C73.1604 128.144 77.2821 132.35 76.744 131.033C76.2701 130.492 75.894 129.874 75.6325 129.204C75.5122 128.851 75.6325 128.968 70.42 128.898C66.0322 128.84 65.4029 128.732 63.6667 128.974C63.3386 128.974 63.4842 129.108 63.5233 129.949ZM82.8166 114.439C82.8166 113.546 82.6265 114.085 80.9639 113.895C80.08 113.794 79.2008 113.865 78.3147 113.836C78.0012 113.825 78.1353 114.03 78.169 121.342C78.1782 123.335 78.2932 125.021 78.6129 125.635C79.5082 127.359 82.024 127.119 82.589 125.597C82.9408 124.649 82.8182 124.01 82.8166 114.439ZM91.4894 113.998C91.4894 113.981 89.2327 113.97 89.2166 113.978C89.1092 115.742 89.0993 117.511 89.1882 119.277C89.3722 123.41 88.6554 126.039 90.9198 126.789C91.4334 126.974 91.9976 126.958 92.4997 126.745C93.0018 126.531 93.4057 126.137 93.6296 125.639C94.0128 124.621 93.8695 122.226 93.7998 114.237C93.7967 113.901 93.8258 113.998 91.4894 113.998ZM62.5038 41.9419C62.4088 41.5111 62.1075 42.0032 58.4242 42.8709C57.1073 43.1814 57.2575 42.7943 58.1598 46.0751C58.2901 46.5511 58.5814 46.5557 58.8711 46.522C59.6089 46.408 60.3316 46.211 61.0251 45.9348C62.8143 45.261 62.9101 43.7808 62.5038 41.945V41.9419ZM84.1796 129.066C84.2217 129.18 84.1405 129.106 85.2006 130.075C87.4673 132.145 87.0235 132.077 92.6676 129.237C93.1942 128.975 84.2616 129.043 84.1796 129.069V129.066ZM78.9249 129.08C79.8692 129.952 80.9386 130.678 82.0976 131.233C82.9715 131.496 81.5679 130.024 81.2107 129.157C81.1133 128.925 79.1755 129.05 78.9249 129.087V129.08ZM79.3848 97.4723C73.4448 97.8111 82.0677 98.5784 83.4429 97.6747C83.1041 97.516 83.4498 97.5819 79.3863 97.4754L79.3848 97.4723ZM88.5205 97.7237C87.8766 98.1154 91.6465 98.4642 94.3018 97.8732C95.5889 97.5903 89.0234 97.4232 88.5221 97.7268L88.5205 97.7237ZM68.1985 97.4723C62.4011 97.8096 70.817 98.5585 72.2612 97.6831C71.9446 97.5229 72.2635 97.5819 68.2001 97.4754L68.1985 97.4723Z" fill="white"/>
<path d="M60.182 64.0478C60.9747 64.2579 58.4688 65.2061 54.242 69.1791C52.0558 71.2342 51.5262 71.918 52.2329 72.3664C54.0236 73.5048 62.0087 73.0686 60.796 75.1981C60.1 76.4184 56.3102 79.1075 54.2489 82.1016C53.2455 83.5581 62.7431 105.585 62.2456 106.018C61.2062 106.921 55.828 92.2967 54.9572 89.8016C52.6875 83.299 52.3732 82.5884 53.3222 81.2416C55.1711 78.6184 59.2905 75.6388 59.5174 75.2211C57.7651 74.3196 49.4756 74.8056 50.8516 71.3255C51.776 68.9898 59.2254 63.7933 60.182 64.0478Z" fill="white"/>
<path d="M99.9169 78.2873C100.388 76.1111 93.4173 75.2855 92.0536 74.3519C90.9904 73.6236 96.3601 71.2535 97.7008 67.7143C98.0787 66.7178 96.7886 65.8915 89.7087 62.3653C87.8138 61.4217 88.8172 61.1496 89.2672 61.2968C90.9666 61.8525 98.2964 65.0475 98.859 66.6672C99.7981 69.3678 93.5806 73.7494 93.566 73.7662C94.3525 74.3979 101.663 75.2518 101.114 78.3409C100.83 79.9415 98.0756 91.1423 96.6621 94.6539C96.1838 95.8405 95.6763 95.1728 96.1608 93.3714C96.9151 90.5659 99.9169 78.7679 99.9169 78.2873Z" fill="white"/>
<path d="M82.2357 70.5635C82.0824 70.8433 82.1912 71.0495 82.5139 71.8283C83.0091 73.0234 82.6136 75.6381 81.5649 75.3698C80.7072 75.1506 80.4013 75.067 78.2588 73.7708C77.7368 73.455 78.2588 73.5975 78.0419 71.9433C77.6264 68.8403 75.8097 69.2451 81.082 66.4648C83.0865 65.4077 83.3479 68.582 82.2357 70.5635Z" fill="white"/>
<path d="M73.2386 69.7562C73.201 73.5622 73.4931 72.6737 73.7982 73.5315C73.8748 73.7392 73.8503 73.8243 73.664 73.9408C72.6794 74.707 71.5583 75.2792 70.3602 75.6272C69.1659 75.8503 68.45 74.377 68.3771 73.1743C68.3273 72.3579 68.798 71.7079 68.3081 70.8746C67.3829 69.2963 68.1073 67.6804 70.4484 68.345C73.4739 69.2066 73.2463 68.9997 73.2386 69.7562Z" fill="white"/>
<path d="M74.2175 68.7965C76.2496 67.9602 77.2707 68.4132 77.6555 71.6895C77.7528 72.5235 77.8579 73.4824 76.9878 73.7645C76.2611 74.0324 75.4657 74.0497 74.728 73.8136C73.5659 73.2226 73.6917 72.3863 73.5782 70.9482C73.7997 70.9252 73.0064 69.2963 74.2175 68.7965Z" fill="white"/>
<path d="M81.7412 78.4182C81.151 79.1502 80.8213 79.6147 80.1176 79.2008C78.9272 78.5002 77.3673 74.7724 77.2891 74.5248C77.2017 74.2497 77.519 73.9883 77.7076 74.1661C78.5692 74.9809 80.1084 78.9271 80.6397 78.251C84.2179 73.697 83.131 76.6934 81.7412 78.4182Z" fill="white"/>
<path d="M25.1836 13.7092C25.1895 13.9585 25.1458 14.2066 25.0547 14.4388C24.9637 14.6711 24.8273 14.8828 24.6533 15.0617C24.4795 15.2406 24.2718 15.3829 24.0422 15.4805C23.8126 15.5781 23.5658 15.6289 23.3164 15.63C23.067 15.6311 22.8198 15.5824 22.5894 15.4868C22.3591 15.3912 22.15 15.2505 21.9746 15.0732C21.7993 14.8959 21.661 14.6853 21.568 14.4538C21.4749 14.2224 21.429 13.9747 21.4328 13.7253C21.4535 11.1236 25.3438 11.3804 25.1836 13.7092ZM23.2887 14.8023C23.585 14.7877 23.8665 14.668 24.0826 14.4648C24.2989 14.2615 24.4356 13.988 24.4684 13.6931C24.4463 13.3971 24.3224 13.118 24.1176 12.9031C23.9129 12.6883 23.64 12.5511 23.3454 12.5149C23.0507 12.5209 22.7698 12.6404 22.5609 12.8484C22.3521 13.0564 22.2314 13.3368 22.2241 13.6315C22.2169 13.9261 22.3234 14.2122 22.5216 14.4303C22.72 14.6483 22.9947 14.7816 23.2887 14.8023Z" fill="white"/>
<path d="M72.8821 79.0399C72.6522 79.8141 72.6399 80.6427 71.835 80.2081C70.3425 79.4025 69.1789 78.0349 69.3721 77.7337C69.622 77.3443 71.8496 79.88 71.9554 79.3733C72.7694 75.4869 75.1051 71.5392 72.8821 79.0399Z" fill="white"/>
<path d="M78.0118 67.14C78.0785 66.7245 81.0137 64.0968 82.2731 62.9239C83.4107 61.8692 81.7557 64.8779 78.8941 67.1032C79.0107 67.0488 77.9038 67.8115 78.0118 67.14Z" fill="white"/>
<path d="M27.2487 22.0001C27.2397 22.3268 27.1033 22.6371 26.8686 22.8646C26.634 23.0922 26.3196 23.219 25.9928 23.218C25.6659 23.217 25.3524 23.0883 25.1192 22.8593C24.8859 22.6302 24.7514 22.3192 24.7444 21.9924C24.7534 21.6656 24.8898 21.3553 25.1244 21.1278C25.3591 20.9002 25.6734 20.7734 26.0003 20.7744C26.3272 20.7754 26.6407 20.9041 26.8739 21.1332C27.1072 21.3621 27.2417 21.6732 27.2487 22.0001ZM26.5726 21.9794C26.5979 21.1737 25.3983 21.2128 25.4335 21.9173C25.4262 22.068 25.4789 22.2156 25.5801 22.3276C25.6813 22.4395 25.8228 22.5068 25.9736 22.5146C26.1244 22.5225 26.2721 22.4702 26.3844 22.3692C26.4966 22.2683 26.5643 22.127 26.5726 21.9763V21.9794Z" fill="white"/>
<path d="M20.4838 22.3314C20.6451 22.3332 20.8046 22.3669 20.9529 22.4303C21.1013 22.4938 21.2357 22.5859 21.3485 22.7013C21.4613 22.8167 21.5503 22.9532 21.6103 23.103C21.6703 23.2528 21.7002 23.413 21.6984 23.5743C21.6965 23.7357 21.6629 23.8951 21.5994 24.0435C21.5359 24.1919 21.4439 24.3263 21.3284 24.439C21.213 24.5518 21.0765 24.6408 20.9268 24.7008C20.7769 24.7608 20.6168 24.7908 20.4554 24.7889C20.1295 24.7852 19.8185 24.6521 19.5907 24.419C19.3629 24.1859 19.237 23.8718 19.2408 23.546C19.2446 23.22 19.3776 22.909 19.6107 22.6812C19.8438 22.4534 20.1579 22.3276 20.4838 22.3314ZM21.0924 23.5579C21.0964 23.4764 21.0841 23.395 21.0564 23.3184C21.0286 23.2417 20.9857 23.1714 20.9304 23.1116C20.8751 23.0517 20.8084 23.0034 20.7342 22.9696C20.66 22.9358 20.5798 22.9172 20.4983 22.9147C20.2983 22.9147 19.9249 23.1731 19.9288 23.4559C19.9201 23.5334 19.9271 23.6119 19.9492 23.6866C19.9714 23.7615 20.0084 23.8311 20.0579 23.8913C20.1074 23.9516 20.1684 24.0014 20.2375 24.0376C20.3065 24.074 20.3821 24.0961 20.4598 24.1026C20.5376 24.1092 20.6158 24.1003 20.69 24.0761C20.7642 24.052 20.8328 24.0133 20.8917 23.9621C20.9507 23.9111 20.9988 23.8488 21.0333 23.7788C21.0677 23.7088 21.0879 23.6326 21.0924 23.5548V23.5579Z" fill="white"/>
<path d="M68.9283 67.4759C68.6745 67.7457 67.1652 66.9171 66.8931 66.507C66.7244 66.2517 67.0088 65.9213 67.4343 66.1636C68.0061 66.509 68.512 66.9533 68.9283 67.4759Z" fill="white"/>
<path d="M69.0464 33.8289C72.4338 34.0312 73.569 36.557 72.065 36.9717C70.5296 37.3338 68.9548 37.5004 67.3776 37.4677C66.4286 37.2377 66.2991 36.1017 66.6164 35.3213C67.1453 34.0052 68.0874 33.9722 69.0464 33.8289ZM68.0092 36.718C68.0514 36.718 71.3767 36.4505 71.727 36.314C72.9573 35.8357 67.4841 33.0086 67.2043 36.1247C67.1553 36.6873 67.4887 36.718 68.0092 36.718Z" fill="white"/>
<path d="M57.7097 39.6309C57.7787 39.2434 57.9309 38.8755 58.1559 38.5526C58.3809 38.2297 58.6733 37.9594 59.0128 37.7605C62.1557 35.6364 63.3001 39.1763 61.5946 39.8992C59.9381 40.6013 57.6315 40.9041 57.7097 39.6309ZM61.1952 39.1709C61.9004 38.9026 61.6068 37.5229 60.4647 37.8126C59.6132 38.0581 58.8721 38.5892 58.3659 39.3166C57.6829 40.1966 61.508 39.1709 61.1952 39.1709Z" fill="white"/>
<path d="M64.8325 42.2785C65.7439 42.3927 62.6861 49.5745 67.6687 47.6183C69.5437 46.8816 69.3183 47.8605 68.7633 48.2614C68.2825 48.6239 67.7217 48.8658 67.128 48.9666C66.5343 49.0675 65.925 49.0243 65.3514 48.8409C63.639 48.1832 63.7064 45.9932 64.0337 44.3834C64.2461 43.344 64.5036 42.2371 64.8325 42.2785Z" fill="white"/>
<path d="M38.7109 61.9903C37.0467 62.3873 36.1507 60.9217 35.5167 59.2085C32.9518 52.2842 32.9871 52.6161 33.27 52.6728C34.6245 52.9404 34.6551 52.9189 35.0484 53.1719C37.5826 54.8062 37.6071 52.0918 37.9413 52.9672C39.8746 58.028 41.5096 61.3241 38.7109 61.9903Z" fill="white"/>
<path d="M30.6567 27.1852C30.9902 26.8249 31.306 27.2174 31.2316 27.4957C30.7518 29.2825 22.3136 32.5227 22.69 30.2514C22.8371 29.353 25.0249 28.4017 25.4733 28.3519C25.8221 28.3128 25.9087 28.6194 25.6266 28.7835C21.5961 31.1214 24.105 30.4959 26.7818 29.4734C29.9239 28.266 30.6046 27.2419 30.6567 27.1852Z" fill="white"/>
<path d="M36.3385 53.0822C35.6057 53.1343 35.2063 52.2996 33.871 52.3295C32.3754 52.3624 32.991 50.4131 36.8214 51.2149C37.7911 51.4173 37.6002 53.0899 36.3385 53.0822Z" fill="white"/>
<path d="M29.0416 35.9676C29.0126 35.7798 29.0245 35.588 29.0762 35.4052C29.128 35.2224 29.2186 35.0528 29.3417 34.9081C29.4648 34.7634 29.6176 34.6469 29.7897 34.5665C29.9619 34.4861 30.1493 34.4437 30.3393 34.4421C31.7092 34.5188 31.8334 36.5724 30.626 36.9771C30.4553 37.0342 30.2739 37.0525 30.0952 37.0305C29.9164 37.0085 29.745 36.9469 29.593 36.8502C29.4412 36.7534 29.3129 36.624 29.2175 36.4713C29.1221 36.3186 29.062 36.1465 29.0416 35.9676ZM29.7798 35.9476C29.9384 36.5333 30.7625 36.3945 30.8169 35.7253C30.9051 34.6483 29.467 34.7925 29.7798 35.9515V35.9476Z" fill="white"/>
<path d="M27.5722 31.6862C27.6087 31.6604 27.6516 31.6452 27.6962 31.6421C27.7408 31.6392 27.7853 31.6485 27.825 31.6692C27.8646 31.6899 27.8977 31.7211 27.9208 31.7594C27.9438 31.7977 27.9558 31.8416 27.9555 31.8863C28.0084 32.8062 28.5051 31.7422 28.8669 32.0319C29.2418 32.3317 28.7458 33.0285 28.2874 33.0377C27.4036 33.0553 26.9521 32.0312 27.5722 31.6862Z" fill="white"/>
<path d="M71.2978 56.5983C69.688 56.6918 67.0818 53.4991 68.8111 53.0867C70.4495 52.6466 72.0452 52.0607 73.579 51.3359C74.932 50.5793 73.819 56.8421 71.2978 56.5983ZM71.576 55.6087C72.1191 55.1654 72.563 54.6129 72.879 53.9871C73.195 53.3614 73.3761 52.6762 73.4104 51.976C73.2303 52.0626 70.7566 53.782 69.1622 53.8103C68.585 53.8203 70.7397 56.1882 71.576 55.6087Z" fill="white"/>
<path d="M91.0033 103.953C90.8692 102.727 92.8538 102.285 92.9703 103.705C93.0814 105.063 91.0033 105.443 91.0033 103.953ZM91.8573 103.322C91.7561 103.397 91.6764 103.497 91.6242 103.612C91.5729 103.727 91.5506 103.852 91.5614 103.978C91.7009 104.591 92.4092 104.373 92.469 103.739C92.4705 103.665 92.4529 103.593 92.4191 103.528C92.3854 103.463 92.3364 103.407 92.2758 103.366C92.2152 103.324 92.1447 103.298 92.0719 103.291C91.9991 103.283 91.9255 103.293 91.8573 103.322Z" fill="white"/>
<path d="M90.7933 100.112C90.8309 100.068 90.8822 100.038 90.9389 100.028C90.9957 100.018 91.0539 100.029 91.1038 100.058C91.1543 100.086 91.1919 100.132 91.2118 100.186C91.2318 100.24 91.2318 100.299 91.2126 100.354C91.1436 100.608 91.2187 100.677 91.4564 100.611C91.9929 100.457 91.9868 100.818 91.8588 100.999C91.3207 101.759 90.1149 100.725 90.7933 100.112Z" fill="white"/>
<path d="M81.9358 103.701C81.9358 105.07 80.0784 105.215 79.9688 103.993C79.8347 102.488 81.9327 102.265 81.9358 103.701ZM80.799 104.227C81.249 104.498 81.8522 103.251 81.0864 103.196C80.9661 103.198 80.8503 103.24 80.7553 103.313C80.6602 103.387 80.592 103.489 80.5591 103.605C80.5269 103.72 80.533 103.844 80.5759 103.956C80.6196 104.068 80.6978 104.163 80.799 104.227Z" fill="white"/>
<path d="M79.8262 100.008C80.0133 99.8593 80.2777 99.9674 80.1834 100.272C80.047 100.712 80.5253 100.479 80.5943 100.484C80.8036 100.501 80.9845 100.552 80.9132 100.751C80.546 101.778 78.9547 100.706 79.8262 100.008Z" fill="white"/>
<path d="M68.771 103.811C68.7864 102.451 70.8231 102.341 70.7809 103.749C70.7395 105.109 68.7595 105.217 68.771 103.811ZM70.239 103.492C70.1094 102.879 69.2241 103.297 69.3521 103.916C69.4801 104.535 70.3915 104.217 70.239 103.492Z" fill="white"/>
<path d="M69.1184 101.17C68.9724 101.18 68.8275 101.14 68.7066 101.058C68.5858 100.975 68.4961 100.855 68.4519 100.716C68.4077 100.576 68.4116 100.426 68.463 100.289C68.5143 100.152 68.6101 100.036 68.7351 99.9605C68.8493 99.8839 69.0164 100.005 69.0164 100.151C69.0164 100.167 68.7964 100.785 69.4143 100.469C69.8152 100.265 69.9478 101.185 69.1184 101.17Z" fill="white"/>
<path d="M69.1068 116.598C71.779 116.794 70.9166 116.017 71.1535 122.024C71.2209 123.726 71.2991 126.317 69.6012 126.2C67.1958 126.036 67.6925 124.538 67.4549 117.779C67.4273 116.987 67.4189 116.936 67.5959 116.824C68.1923 116.443 69.0968 116.742 69.1068 116.598Z" fill="white"/>
<path d="M68.1808 42.2293C67.7209 41.6498 68.3134 40.6326 68.8332 41.0857C69.5323 41.6943 68.7634 42.9652 68.1808 42.2293Z" fill="white"/>
<path d="M80.6189 126.045C80.438 126.056 80.2563 126.032 80.0846 125.973C79.9129 125.914 79.7542 125.822 79.6186 125.701C79.4829 125.581 79.3717 125.435 79.292 125.272C79.2131 125.109 79.1663 124.931 79.1556 124.75C78.8972 122.238 78.7723 119.714 78.7807 117.189C78.7723 116.845 78.8336 116.652 79.3733 116.625C81.7917 116.522 82.083 116.353 82.139 117.123C82.1551 117.346 82.3015 121.882 82.1436 124.227C82.0838 125.125 81.8262 126.002 80.6189 126.045Z" fill="white"/>
<path d="M89.7333 120.237C89.58 116.348 89.0082 116.664 92.2047 116.717C92.8869 116.729 93.2779 116.822 93.2863 117.288C93.3629 121.61 93.504 123.645 93.1928 125.122C93.11 125.421 92.9444 125.69 92.7144 125.898C92.4845 126.107 92.2009 126.246 91.895 126.299C91.5899 126.352 91.2756 126.318 90.9889 126.2C90.7022 126.082 90.4547 125.885 90.2753 125.632C89.7678 124.86 89.8038 123.827 89.6812 120.237H89.7333Z" fill="white"/>
<path d="M59.2185 43.4782C59.2128 43.3926 59.2329 43.3074 59.2761 43.2333C59.3193 43.1593 59.3837 43.1 59.4609 43.0628C59.5382 43.0257 59.6248 43.0126 59.7096 43.0251C59.7945 43.0376 59.8735 43.0754 59.9367 43.1332C60.8742 43.9902 59.4768 45.0228 59.2185 43.4782Z" fill="white"/>
<path d="M113.795 17.0359C114.148 17.1355 114.02 17.1355 114.485 15.4898C118.424 1.45192 126.23 -1.17965 128.554 16.7162C128.643 17.4061 130.896 15.6101 137.446 15.7918C142.132 15.9221 144.404 18.8848 141.328 23.7417C140.051 25.5863 138.53 27.2488 136.805 28.6836C136.612 28.8829 136.652 28.8829 137.841 29.8549C146.401 36.8382 145.681 44.7666 127.07 39.2152C126.61 39.0773 126.882 39.1386 125.843 42.1573C124.299 46.6393 120.949 52.6122 117.105 49.9347C113.87 47.6803 113.145 40.9921 112.935 40.7154C112.803 40.5406 107.91 41.9741 104.234 40.9676C100.811 40.0301 99.4579 37.1663 102.731 32.5762C106.525 27.2532 107.6 29.9354 103.917 26.7182C94.7535 18.7085 96.2621 12.0771 113.795 17.0359ZM127.947 23.8743C120.29 19.8714 121.517 19.9649 118.589 21.5148C116.852 22.4347 115.559 23.1353 113.871 24.1441C113.356 24.4507 113.294 29.4118 113.186 31.8794C113.152 32.6505 122.26 36.4902 122.286 36.5009C122.669 36.6542 125.137 35.3403 126.938 34.4189C127.537 34.1116 128.569 23.8743 127.947 23.8743ZM122.287 4.89067C118.225 5.3506 115.975 12.9793 114.935 16.9347C114.751 17.6384 114.816 17.1884 119.129 18.9193C120.927 19.6414 120.836 19.669 121.086 19.5594C127.871 16.5882 128.023 17.6591 127.897 16.6381C127.745 15.0248 127.472 13.4254 127.08 11.8532C126.599 9.46774 124.746 4.77262 122.287 4.89067ZM106.747 27.9684C106.997 28.147 106.992 28.1133 107.647 27.5614C109.234 26.2729 110.898 25.0821 112.629 23.9954C112.941 23.7961 112.802 23.7654 112.945 22.8847C113.807 17.6269 114.165 17.8032 113.466 17.5955C105.063 15.0559 99.697 15.6285 99.208 18.0424C98.7871 20.132 100.807 23.7325 106.747 27.9684ZM128.87 23.3952C128.864 23.8337 129.165 23.652 132.646 25.9424C136.18 28.2681 135.87 28.4989 136.244 28.1762C145.632 20.0975 143.59 14.3484 130.43 17.1095C128.596 17.4928 128.643 17.5303 128.66 17.738C128.841 19.6179 128.912 21.5069 128.87 23.3952ZM142.224 38.0631C142.874 35.4185 138.4 31.2669 136.308 29.5544C135.716 29.0684 135.015 30.6092 130.236 33.4638C126.752 35.545 128.141 34.1468 127.057 38.0585C127.005 38.2463 127.1 38.2624 127.429 38.3544C131.329 39.4437 141.256 41.994 142.224 38.0631ZM113.91 40.5705C113.93 40.8848 114.854 46.7113 117.385 48.9941C120.98 52.2359 124.88 43.8299 126.042 39.1302C126.147 38.7063 126.092 39.0198 122.79 37.6737C122.105 37.3939 122.795 37.6929 115.539 39.9895C114.115 40.4371 113.87 40.3329 113.91 40.5705ZM112.683 39.8323C113.04 39.7242 112.593 39.2413 112.377 34.6581C112.294 32.9058 112.521 32.7011 112.009 32.4014C106.719 29.3107 107.326 28.8208 106.601 29.533C94.9659 40.9584 107.138 41.5149 112.679 39.8323H112.683ZM127.985 33.5696C127.979 33.8548 127.924 33.9176 129.3 33.0775C129.828 32.7555 135.816 29.0991 135.299 28.7242C133.301 27.1911 131.211 25.7813 129.041 24.5029C128.614 24.2422 129.137 25.3031 127.98 33.5696H127.985ZM113.253 34.1737C113.322 34.1737 113.375 39.7311 113.958 39.5656C116.021 39.0312 118.052 38.3788 120.041 37.6116C121.644 37.052 121.235 37.0704 120.513 36.7447C112.229 33.007 113.248 32.4604 113.248 34.1737H113.253ZM128.237 22.516C128.023 20.1205 128.309 17.7396 127.782 17.8308C127.612 17.8607 124.676 18.8204 122.227 19.8238C121.572 20.0914 122.112 20.1067 125.268 21.6789C128.327 23.2051 128.21 23.5684 128.233 22.516H128.237ZM112.696 25.3146C112.696 25.0264 112.721 24.8739 112.501 25.0195C110.814 26.0947 109.214 27.3019 107.717 28.63C109.108 29.6576 110.557 30.6058 112.055 31.47C112.698 31.8502 112.019 30.8668 112.692 25.3146H112.696ZM119.471 20.2876C119.637 20.204 119.79 20.0944 119.947 19.9978C118.891 19.4544 115.995 18.4387 114.918 18.073C114.595 17.9634 114.746 17.7051 113.926 22.1595C113.608 23.8544 113.247 23.4259 119.466 20.2876H119.471ZM124.318 36.6688C123.633 37.0076 123.282 36.9524 124.429 37.3533C126.733 38.1574 126.227 38.5445 126.913 35.6155C126.909 35.2721 127.018 35.3327 124.313 36.6688H124.318Z" fill="white"/>
<path d="M97.9653 26.9918C101.083 27.0417 101.054 31.7391 97.9568 31.7077C94.9159 31.677 94.8991 26.942 97.9653 26.9918Z" fill="white"/>
<path d="M147.169 25.3422C147.712 25.341 148.238 25.5331 148.652 25.8841C149.067 26.2352 149.343 26.7224 149.431 27.2584C149.519 27.7944 149.414 28.3442 149.133 28.8096C148.854 29.275 148.417 29.6254 147.901 29.7981C147.586 29.9091 147.249 29.9494 146.916 29.9163C146.583 29.8834 146.261 29.7778 145.973 29.607C145.685 29.4363 145.438 29.2046 145.249 28.9281C145.06 28.6517 144.934 28.3373 144.88 28.0069C144.825 27.6765 144.844 27.3382 144.934 27.0159C145.025 26.6935 145.185 26.3948 145.403 26.1409C145.621 25.8869 145.892 25.6838 146.197 25.5458C146.502 25.4078 146.834 25.3384 147.169 25.3422Z" fill="white"/>
<path d="M121.088 24.2881C121.883 24.3136 122.647 24.6039 123.258 25.1129C123.869 25.6218 124.292 26.3203 124.461 27.0975C124.639 27.8326 124.586 28.6047 124.309 29.3086C124.033 30.0126 123.546 30.6142 122.915 31.0315C122.284 31.4488 121.54 31.6616 120.784 31.6408C120.028 31.6201 119.297 31.3669 118.69 30.9157C115.879 28.9097 117.388 24.0743 121.088 24.2881Z" fill="white"/>
</svg>
