<svg width="154" height="154" viewBox="0 0 154 154" fill="none" xmlns="http://www.w3.org/2000/svg">
<path d="M130.854 126.477C127.927 127.419 124.842 127.768 121.779 127.504C118.843 127.32 115.531 127.244 113.117 125.35C113.117 125.312 113.025 125.35 113.063 125.404C115.363 127.282 118.429 127.443 121.28 127.658C124.423 127.895 128.003 128.041 130.908 126.6C130.969 126.562 130.923 126.477 130.854 126.477ZM128.087 103.773C128.087 103.673 127.918 103.642 127.903 103.773C127.773 104.539 125.856 104.922 125.213 105.091C123.399 105.555 121.519 105.703 119.655 105.528C118.766 105.451 116.168 105.444 116.183 103.995C116.183 103.995 116.122 103.949 116.106 103.995C115.907 104.922 116.788 105.283 117.547 105.444C120.313 106.026 123.179 105.921 125.895 105.137C126.516 104.922 128.11 104.6 128.087 103.773ZM71.0265 52.5223C70.6279 52.5223 70.306 53.2046 70.306 54.0554C70.306 54.9062 70.6279 55.5885 71.0265 55.5885C71.4251 55.5885 71.7394 54.9062 71.7394 54.0554C71.7394 53.2046 71.4174 52.5223 71.0265 52.5223ZM55.236 64.4802C54.9064 64.3499 54.4695 64.6565 54.2625 64.8865C53.7029 65.5304 54.3315 66.2892 55.0827 65.5687C55.3126 65.3464 55.6806 64.6565 55.236 64.4802ZM55.1517 65.0628C55.075 65.3771 54.5998 65.6837 54.4311 65.5994C54.0479 65.4231 54.5768 64.7102 54.983 64.6949C55.19 64.6795 55.19 64.8788 55.19 65.0628H55.1517ZM56.8304 109.2C57.0757 111.055 59.0763 111.967 60.663 112.549C63.2458 113.479 65.892 114.222 68.5813 114.772C75.6823 116.405 83.09 116.119 90.0441 113.944C91.7241 113.397 93.3305 112.645 94.8273 111.706C95.9158 111.009 97.3185 110.05 97.1269 108.579C97.1269 108.456 96.9123 108.441 96.9123 108.579C96.9123 110.296 95.0419 111.308 93.7235 112.036C89.8908 114.182 84.5251 115.255 80.1329 115.508C74.0007 115.853 68.1597 114.634 62.3417 112.925C60.4331 112.365 57.3133 111.492 56.93 109.177C56.907 109.138 56.8227 109.146 56.8304 109.2ZM77.3274 101.795C83.3523 102.186 90.1131 102.301 95.2565 98.6292C95.4328 98.5065 95.2565 98.2076 95.0879 98.3379C90.1744 101.879 83.8046 101.872 78.0096 101.557C74.6917 101.415 71.3929 100.979 68.152 100.254C65.2162 99.5643 61.4296 98.7211 59.5516 96.1456C59.5516 96.0919 59.4289 96.1456 59.4672 96.1916C61.1306 98.5755 64.2657 99.4493 66.9256 100.178C70.3299 101.064 73.8147 101.606 77.3274 101.795ZM89.6839 36.5325C90.0227 36.4572 90.3319 36.2839 90.573 36.0343C90.5426 36.2335 90.4832 36.4271 90.3967 36.6092C90.3967 36.6782 90.4657 36.7471 90.5194 36.7012C90.6414 36.5857 90.7278 36.4377 90.7686 36.2748C90.8093 36.1118 90.8026 35.9406 90.7493 35.7813C90.7437 35.7623 90.7321 35.7457 90.7162 35.7338C90.7003 35.722 90.681 35.7156 90.6612 35.7156C90.6414 35.7156 90.6221 35.722 90.6062 35.7338C90.5903 35.7457 90.5787 35.7623 90.573 35.7813C90.4775 35.9537 90.3481 36.105 90.1927 36.2262C90.0373 36.3474 89.859 36.4359 89.6685 36.4865C89.6226 36.4789 89.6379 36.5478 89.6839 36.5325ZM89.6379 34.2099C89.6989 33.9229 89.717 33.6284 89.6915 33.3361C89.6915 33.3056 89.6794 33.2763 89.6579 33.2548C89.6363 33.2332 89.607 33.2211 89.5766 33.2211C89.5461 33.2211 89.5168 33.2332 89.4953 33.2548C89.4737 33.2763 89.4616 33.3056 89.4616 33.3361C89.4375 33.6281 89.453 33.922 89.5076 34.2099C89.5144 34.221 89.524 34.2302 89.5354 34.2365C89.5468 34.2429 89.5597 34.2462 89.5727 34.2462C89.5858 34.2462 89.5986 34.2429 89.61 34.2365C89.6214 34.2302 89.631 34.221 89.6379 34.2099ZM86.84 32.9988C86.7798 33.2508 86.7798 33.5134 86.84 33.7653C86.8451 33.7807 86.8548 33.794 86.8679 33.8035C86.881 33.813 86.8967 33.8181 86.9129 33.8181C86.929 33.8181 86.9447 33.813 86.9578 33.8035C86.9709 33.794 86.9806 33.7807 86.9857 33.7653C87.0506 33.5139 87.0506 33.2502 86.9857 32.9988C86.9857 32.9605 86.8554 32.9605 86.84 32.9988ZM87.5759 32.0253C87.4379 31.6497 86.8094 31.7494 86.7097 32.1096C86.8101 32.0106 86.9425 31.9508 87.0831 31.941C87.2237 31.9311 87.3631 31.9719 87.4763 32.056C87.4803 32.0692 87.4895 32.0802 87.5017 32.0867C87.5139 32.0932 87.5282 32.0945 87.5414 32.0905C87.5546 32.0864 87.5657 32.0773 87.5722 32.065C87.5786 32.0528 87.58 32.0385 87.5759 32.0253ZM89.5919 32.2399C89.7151 32.2364 89.8376 32.2592 89.9513 32.3068C90.065 32.3544 90.1672 32.4256 90.2511 32.5159C90.2511 32.5159 90.3431 32.5159 90.3354 32.4699C90.3354 32.1403 89.8142 32.0713 89.5689 32.148C89.5628 32.1495 89.5572 32.1522 89.5522 32.1559C89.5472 32.1596 89.5429 32.1642 89.5397 32.1696C89.5365 32.1749 89.5344 32.1808 89.5335 32.187C89.5326 32.1931 89.5329 32.1994 89.5344 32.2054C89.5359 32.2115 89.5386 32.2172 89.5423 32.2222C89.546 32.2272 89.5507 32.2314 89.556 32.2346C89.5613 32.2378 89.5673 32.2399 89.5734 32.2408C89.5796 32.2418 89.5858 32.2415 89.5919 32.2399ZM88.2735 35.0224C88.2877 35.0224 88.3013 35.0168 88.3114 35.0067C88.3215 34.9967 88.3271 34.983 88.3271 34.9688C88.3271 34.9546 88.3215 34.9409 88.3114 34.9309C88.3013 34.9208 88.2877 34.9151 88.2735 34.9151C88.0081 34.8362 87.7513 34.7309 87.5069 34.6009C87.9007 34.2084 88.1355 33.6842 88.1661 33.1291H88.0818C88.069 33.4079 87.9934 33.6802 87.8606 33.9258C87.7279 34.1713 87.5415 34.3837 87.3153 34.5472C87.3026 34.5546 87.292 34.5653 87.2847 34.578C87.2773 34.5908 87.2735 34.6053 87.2735 34.62C87.2735 34.6348 87.2773 34.6492 87.2847 34.662C87.292 34.6748 87.3026 34.6854 87.3153 34.6928C87.4451 34.8086 87.5967 34.8974 87.7612 34.954C87.9257 35.0106 88.0999 35.0338 88.2735 35.0224ZM90.642 15.9512C90.6548 15.9659 90.6719 15.9761 90.6909 15.9805C90.7099 15.9848 90.7298 15.983 90.7477 15.9753C90.7656 15.9677 90.7806 15.9545 90.7905 15.9378C90.8005 15.921 90.8048 15.9016 90.803 15.8822C90.5401 14.8253 90.0967 13.8217 89.4922 12.9157C89.4922 12.9055 89.4882 12.8958 89.481 12.8886C89.4738 12.8814 89.4641 12.8774 89.4539 12.8774C89.4437 12.8774 89.434 12.8814 89.4268 12.8886C89.4196 12.8958 89.4156 12.9055 89.4156 12.9157C89.7709 13.9483 90.1803 14.9616 90.642 15.9512ZM95.5708 14.5637C95.631 13.4492 95.6028 12.3317 95.4865 11.2217C95.4865 11.2013 95.4784 11.1818 95.4641 11.1675C95.4497 11.1531 95.4302 11.145 95.4099 11.145C95.3895 11.145 95.37 11.1531 95.3557 11.1675C95.3413 11.1818 95.3332 11.2013 95.3332 11.2217C95.259 12.3353 95.277 13.4531 95.3869 14.5637C95.3869 14.5881 95.3965 14.6115 95.4138 14.6288C95.431 14.646 95.4544 14.6557 95.4788 14.6557C95.5032 14.6557 95.5266 14.646 95.5439 14.6288C95.5611 14.6115 95.5708 14.5881 95.5708 14.5637ZM98.6446 15.3993C99.1944 14.5565 99.6518 13.6571 100.009 12.7164C100.009 12.6474 99.9247 12.6091 99.8864 12.6704C99.3652 13.5136 98.9206 14.4104 98.4147 15.2613C98.4054 15.2908 98.4064 15.3226 98.4174 15.3515C98.4284 15.3804 98.4489 15.4048 98.4754 15.4207C98.5019 15.4366 98.533 15.4432 98.5637 15.4393C98.5944 15.4354 98.6229 15.4213 98.6446 15.3993ZM101.228 18.3121C101.893 18.4047 102.57 18.3656 103.221 18.1971C103.32 18.1971 103.351 17.9825 103.221 17.9595C102.543 17.9055 101.861 17.9836 101.212 18.1894C101.204 18.1904 101.197 18.193 101.19 18.197C101.183 18.201 101.176 18.2064 101.171 18.2128C101.161 18.2258 101.157 18.2422 101.159 18.2584C101.161 18.2747 101.169 18.2895 101.182 18.2995C101.195 18.3096 101.212 18.3141 101.228 18.3121ZM92.75 23.7621C92.2134 24.5286 92.2977 25.0652 93.1869 25.4178C93.1428 25.4669 93.1116 25.5262 93.0961 25.5903C93.0805 25.6544 93.0811 25.7214 93.0979 25.7852C93.1146 25.849 93.1469 25.9077 93.1918 25.9559C93.2368 26.0042 93.2931 26.0405 93.3556 26.0617C93.5227 26.1162 93.7041 26.1064 93.8644 26.034C94.0246 25.9617 94.1521 25.8322 94.2217 25.6708C95.2029 25.8088 95.6551 25.4868 95.5938 24.4137C97.4488 23.9997 99.0969 21.1482 98.2997 18.9023C98.1339 18.4492 97.8803 18.0333 97.5534 17.6785C97.2265 17.3237 96.8328 17.0369 96.3948 16.8346C95.9568 16.6323 95.4831 16.5186 95.001 16.4998C94.519 16.4811 94.0379 16.5577 93.5855 16.7254C90.711 17.8215 90.9027 22.0068 92.75 23.7621ZM93.6545 25.9237C93.3862 25.9774 93.0873 25.7091 93.3019 25.4638C93.3785 25.4638 93.8845 25.6171 94.0684 25.6554C93.9504 25.7816 93.8029 25.8764 93.6392 25.9314L93.6545 25.9237ZM94.766 25.4868C94.389 25.5178 94.0096 25.4788 93.6468 25.3718C93.3095 25.3345 92.994 25.1862 92.75 24.9502C92.497 24.567 92.6887 24.1837 92.8343 23.8311C93.2138 24.1064 93.6451 24.3019 94.1023 24.406C94.5594 24.5101 95.0329 24.5205 95.4942 24.4367C95.4942 24.4367 95.5402 25.3488 94.7506 25.4945L94.766 25.4868ZM94.0454 16.8633C94.4935 16.7619 94.9573 16.7504 95.4099 16.8294C95.8625 16.9085 96.2949 17.0766 96.682 17.324C97.0692 17.5714 97.4034 17.8932 97.6653 18.2707C97.9272 18.6482 98.1115 19.0739 98.2077 19.5232C98.5603 21.3399 97.5025 23.6241 95.8161 24.1224C91.3856 25.5098 89.8448 17.8905 94.0454 16.8633Z" fill="black"/>
<path d="M93.7312 23.6548C93.8155 22.8882 93.9535 22.1217 94.0991 21.3552C94.1858 21.5151 94.2527 21.685 94.2984 21.8611C94.3012 21.8719 94.3067 21.882 94.3143 21.8902C94.3219 21.8985 94.3314 21.9048 94.3419 21.9086C94.3525 21.9124 94.3638 21.9135 94.375 21.9119C94.3861 21.9103 94.3966 21.906 94.4057 21.8994C94.5743 21.7844 94.743 21.6695 94.8963 21.5468C94.8963 21.7154 94.8963 21.9224 94.9576 22.0144C94.9669 22.0198 94.9775 22.0226 94.9883 22.0226C94.999 22.0226 95.0096 22.0198 95.0189 22.0144C95.1714 21.9566 95.3118 21.8708 95.4329 21.7614C95.4329 21.8151 95.3869 22.1677 95.6092 22.2444C95.3332 22.7273 95.0649 23.2255 94.7583 23.6854C94.7583 23.7238 94.7583 23.7621 94.8196 23.6854C95.538 22.8447 96.1318 21.905 96.5827 20.8953C96.5827 20.8339 96.529 20.8186 96.4983 20.8569C96.1856 21.2796 95.9013 21.7226 95.6475 22.183C95.4482 22.1217 95.5402 21.5851 95.5095 21.5928C95.4789 21.6005 95.1876 21.8228 95.1109 21.8151C95.0343 21.8074 95.0343 21.4855 95.0419 21.3782C95.044 21.3676 95.0428 21.3566 95.0386 21.3467C95.0343 21.3368 95.0272 21.3284 95.0181 21.3226C95.009 21.3168 94.9983 21.3139 94.9875 21.3142C94.9768 21.3145 94.9663 21.3181 94.9576 21.3245C94.7686 21.4356 94.5869 21.5585 94.4134 21.6924C94.357 21.4965 94.2661 21.3123 94.1451 21.1482C94.1987 20.8646 94.2601 20.581 94.3137 20.2974H94.2447C93.9141 21.3932 93.7236 22.5264 93.6775 23.6701C93.6698 23.6931 93.7235 23.6931 93.7312 23.6548Z" fill="black"/>
<path d="M132.778 124.944C131.232 122.972 129.877 120.857 128.731 118.628C128.024 116.986 127.542 115.256 127.298 113.485C126.828 111.308 126.648 109.078 126.761 106.854C127.742 106.662 129.114 106.371 129.521 105.367C129.649 104.986 129.655 104.574 129.538 104.19C129.421 103.805 129.187 103.466 128.869 103.221C127.896 102.454 126.14 102.539 124.96 102.577C125.029 102.531 127.52 100.883 126.424 97.1115C126.166 96.1954 125.63 95.3819 124.89 94.7833C124.149 94.1848 123.242 93.8305 122.292 93.7694C120.46 93.6391 118.237 94.7429 117.57 96.5443C117.121 97.6304 117.057 98.8379 117.391 99.9651C117.724 101.092 118.434 102.071 119.402 102.738C117.777 102.738 114.198 103.129 114.704 105.152C114.949 106.18 116.689 106.685 117.716 106.946C117.946 108.957 117.977 110.985 117.808 113.002C116.827 112.066 108.479 105.336 108.479 105.336H95.9082L95.8009 105.244C96.994 103.792 97.7868 102.054 98.1005 100.201C98.1752 99.3756 98.0776 98.5441 97.8136 97.7589C97.5497 96.9737 97.1253 96.2521 96.5674 95.6397C96.1864 94.3983 96.1153 93.0824 96.3604 91.8071C96.966 88.9249 100.354 87.6678 100.538 81.3746C100.606 78.9854 100.491 76.5945 100.193 74.2229C101.407 73.8958 102.56 73.3783 103.612 72.6898C105.612 71.3992 107.09 69.4408 107.782 67.1631C109.016 62.564 105.904 58.7313 105.314 58.0338C105.864 57.5909 106.233 56.9605 106.348 56.2631C106.335 55.3822 106.198 54.5075 105.942 53.6645C105.648 52.2507 105.254 50.8598 104.762 49.5023C107.284 47.3811 109.695 45.1295 111.982 42.7568C112.11 42.8513 112.249 42.9287 112.396 42.9868C112.266 56.1251 112.764 94.2983 112.91 100.247C112.91 100.362 113.193 100.346 113.186 100.247C112.772 81.1906 112.542 62.1424 112.703 43.0864C113.058 43.1521 113.425 43.0964 113.745 42.9281C114.065 42.7599 114.319 42.489 114.466 42.1589C115.646 42.8794 119.671 45.225 120.498 45.7233C120.44 46.104 120.487 46.4935 120.635 46.8491C120.783 47.2047 121.026 47.5128 121.337 47.7397C121.649 47.9666 122.016 48.1035 122.4 48.1355C122.784 48.1674 123.169 48.0933 123.514 47.921C123.858 47.7487 124.149 47.4851 124.353 47.1588C124.558 46.8325 124.669 46.4562 124.674 46.0711C124.68 45.686 124.579 45.3068 124.383 44.9751C124.187 44.6433 123.904 44.3718 123.565 44.1902C125.397 41.745 133.882 30.0171 134.649 28.9209C134.426 46.5051 134.94 93.3095 135.116 99.1428C135.121 99.1563 135.13 99.1681 135.141 99.1764C135.153 99.1846 135.167 99.1891 135.181 99.1891C135.196 99.1891 135.21 99.1846 135.221 99.1764C135.233 99.1681 135.242 99.1563 135.247 99.1428C135.009 78.4465 134.81 31.4428 134.833 28.622C135.063 28.2847 135.293 27.9398 135.507 27.5948C135.584 27.4645 135.4 27.3189 135.3 27.4339C135.201 27.5488 134.986 27.8095 134.833 28.0011C134.833 25.1803 134.833 22.3671 134.886 19.5693C134.886 19.5156 134.764 19.5079 134.764 19.5693C134.702 22.4667 134.695 25.3719 134.656 28.2694C133.79 29.3885 125.136 41.538 123.35 44.0982C122.84 43.8919 122.27 43.8945 121.762 44.1053C121.254 44.3162 120.85 44.7184 120.636 45.225C119.778 44.7498 115.738 42.4962 114.558 41.8676C114.613 41.6098 114.605 41.3426 114.537 41.0881C114.469 40.8335 114.341 40.5987 114.165 40.4029C113.988 40.207 113.768 40.0557 113.522 39.9612C113.276 39.8667 113.011 39.8318 112.749 39.8593C112.749 39.0468 112.971 25.5175 113.025 19.5693C113.025 19.5156 112.902 19.5003 112.902 19.5693C112.642 26.353 112.534 33.1598 112.442 39.9513C112.193 40.0407 111.97 40.1896 111.791 40.385C111.613 40.5803 111.485 40.8163 111.419 41.0724C111.352 41.3285 111.349 41.5969 111.41 41.8544C111.471 42.1119 111.594 42.3506 111.768 42.5498C110.787 43.5157 106.095 47.7852 104.677 49.2493C104.417 48.5364 104.141 47.8236 103.842 47.126C103.075 45.2404 102.217 43.2934 100.63 41.9596C99.5649 41.1829 98.4026 40.549 97.173 40.0739C97.6338 40.1679 98.1129 40.1002 98.5297 39.8823C98.951 39.6521 99.3172 39.333 99.6029 38.9471C99.6565 38.8628 99.5645 38.7785 99.4802 38.7938C97.127 39.1618 97.8398 35.8427 97.3033 34.4706C97.081 33.9187 96.7054 33.2825 96.0615 33.4741C96.1027 33.2892 96.0969 33.0969 96.0446 32.9148C95.9924 32.7327 95.8954 32.5666 95.7625 32.4316C95.9233 32.062 95.9892 31.6581 95.9544 31.2566C95.9196 30.855 95.7852 30.4685 95.5632 30.132C94.9347 29.3655 93.6546 29.4115 92.5738 28.3077C91.7076 27.4262 90.9564 26.629 89.6686 26.422C89.2033 26.3307 88.7225 26.3572 88.2699 26.4991C87.8174 26.641 87.4076 26.8938 87.0777 27.2346C87.0777 24.5747 87.0318 22.2598 87.0777 19.5693C87.081 19.5611 87.0822 19.5523 87.0813 19.5436C87.0803 19.5349 87.0773 19.5265 87.0723 19.5193C87.0674 19.512 87.0608 19.506 87.0531 19.5019C87.0453 19.4978 87.0367 19.4957 87.0279 19.4957C87.0192 19.4957 87.0105 19.4978 87.0028 19.5019C86.995 19.506 86.9884 19.512 86.9835 19.5193C86.9786 19.5265 86.9755 19.5349 86.9746 19.5436C86.9736 19.5523 86.9748 19.5611 86.9781 19.5693C86.7865 22.1847 86.7865 24.8107 86.9781 27.4262C86.716 27.8639 86.6069 28.3763 86.6679 28.8828C86.729 29.3893 86.9568 29.8612 87.3154 30.224C86.3725 31.9257 85.6903 34.0567 86.3572 35.95C86.5289 36.4588 86.7883 36.9335 87.1237 37.3528C87.1237 37.805 87.0777 39.6524 87.0777 40.7025C86.1367 40.9698 85.1548 41.0633 84.1803 40.9785C82.8925 39.6677 81.965 38.7402 81.9497 38.7249C81.9402 38.7054 81.9255 38.689 81.9072 38.6775C81.8889 38.6661 81.8678 38.66 81.8462 38.66C81.8246 38.66 81.8034 38.6661 81.7851 38.6775C81.7668 38.689 81.7521 38.7054 81.7427 38.7249C81.5281 39.66 81.3441 40.5875 81.2061 41.5304C79.2361 41.8293 77.1665 40.2962 75.8404 38.9855C74.5439 37.7255 73.4432 36.2786 72.575 34.6929C72.5649 34.6801 72.5521 34.6698 72.5375 34.6627C72.5229 34.6557 72.5069 34.652 72.4907 34.652C72.4744 34.652 72.4584 34.6557 72.4438 34.6627C72.4292 34.6698 72.4164 34.6801 72.4063 34.6929L72.0384 35.0532C72.1103 34.6905 72.1052 34.3168 72.0233 33.9563C71.9414 33.5958 71.7847 33.2565 71.5632 32.9605C71.4628 32.8257 71.325 32.7233 71.1669 32.6661C71.0088 32.6089 70.8374 32.5993 70.674 32.6386C70.6127 32.2017 70.2754 29.8178 69.7005 29.9481C69.4016 30.0094 69.5549 30.6533 69.5625 30.8143C69.6017 31.5644 69.6836 32.3117 69.8078 33.0525C69.7147 33.1467 69.6148 33.2338 69.5089 33.3131C69.4289 33.0587 69.31 32.8182 69.1563 32.6003C69.1046 32.5211 69.0342 32.4559 68.9513 32.4104C68.8684 32.365 68.7756 32.3407 68.681 32.3397C68.3667 32.3397 68.3054 32.5926 68.3361 32.8379C68.1138 32.7459 67.8455 32.9682 67.9681 33.3591C67.9272 33.345 67.8836 33.3403 67.8406 33.3456C67.7976 33.3509 67.7564 33.366 67.7202 33.3896C67.6839 33.4133 67.6536 33.445 67.6314 33.4822C67.6093 33.5195 67.596 33.5613 67.5925 33.6044C67.5972 33.9723 67.7394 34.325 67.9911 34.5933C68.0409 34.6709 68.0772 34.7565 68.0984 34.8462C68.0984 35.766 69.2253 37.0155 70.2217 36.7932C69.8921 37.0998 69.0796 37.6287 69.0106 38.0886C68.9416 38.5485 69.3632 39.1311 69.5242 39.4761C70.4179 41.4513 71.6618 43.2484 73.1959 44.7804C73.7799 45.4726 74.4677 46.0699 75.2348 46.5511C71.8118 47.2753 68.5171 48.5105 65.4616 50.2152C64.994 50.4604 64.5187 50.7134 64.0588 50.9817C64.3041 40.7792 64.4421 17.2927 64.2505 19.4159C63.9975 21.8305 63.8672 45.294 63.8595 51.089C59.75 53.4097 55.9705 56.2714 52.6222 59.5975C50.7979 61.4142 49.1651 63.1312 49.3951 65.8677C49.5935 68.0381 50.6135 70.0508 52.2466 71.494C55.0828 73.9776 59.245 74.1079 61.445 72.7435C62.3878 72.1686 62.978 71.1644 63.7905 70.4439C64.5199 69.7797 65.402 69.3057 66.3584 69.0641C67.2602 69.0082 68.165 69.1067 69.0336 69.3554L70.6433 69.639C69.7836 75.7119 67.4897 81.4926 63.9515 86.5027C61.7976 89.4079 58.1182 93.0182 57.7043 96.6286C57.3594 99.6334 59.0687 102.929 60.8624 105.352C60.3848 105.353 59.9099 105.423 59.452 105.559C55.8953 105.559 51.8633 105.505 48.3143 105.766V105.275C48.3558 105.034 48.3361 104.786 48.2571 104.554C48.1781 104.323 48.0423 104.115 47.862 103.949C46.9678 103.421 46.242 102.65 45.7694 101.726C43.9681 98.6599 43.5158 95.5938 43.3165 92.106C44.2517 91.9144 45.0949 91.5388 45.2175 90.7876C45.3785 89.7605 43.1939 89.4002 42.2894 89.3772C42.3354 89.3235 44.8802 86.5564 41.8754 84.1495C41.4294 83.8378 40.8798 83.7113 40.3424 83.7969C40.3884 80.8227 40.4114 77.7259 40.442 74.7518C40.7875 74.7814 41.1341 74.7094 41.4391 74.5446C41.7442 74.3798 41.9944 74.1294 42.159 73.8243C44.5276 75.2194 49.6634 77.4883 49.6634 77.5266C49.6596 77.9634 49.8107 78.3873 50.0898 78.7232C50.3689 79.0591 50.758 79.2853 51.1881 79.3615C51.6181 79.4378 52.0612 79.3592 52.4388 79.1398C52.8165 78.9204 53.1041 78.5742 53.2508 78.1629C54.8528 78.5078 62.0045 80.2248 63.9822 80.7997C63.9822 81.2596 63.8902 84.7473 63.9822 86.0045C63.9822 86.0289 63.9919 86.0523 64.0091 86.0695C64.0264 86.0868 64.0498 86.0964 64.0742 86.0964C64.0986 86.0964 64.122 86.0868 64.1392 86.0695C64.1565 86.0523 64.1661 86.0289 64.1661 86.0045C64.3456 84.2217 64.384 82.4276 64.2811 80.6387C65.6762 79.5196 67.2553 78.5921 68.6044 77.4193C68.681 77.335 68.6044 77.2124 68.4741 77.2583C66.9286 78.1153 65.5118 79.1863 64.2658 80.4394C64.2658 79.7649 64.0665 72.3832 63.8289 71.1951H63.7599C63.6526 72.3985 63.9439 79.8339 63.9439 80.4548C61.9739 79.8186 54.8681 78.1552 53.3044 77.9329C53.4172 77.4551 53.3357 76.9521 53.0776 76.5345C52.8196 76.1169 52.4062 75.819 51.9285 75.7061C51.4507 75.5933 50.9477 75.6749 50.5301 75.9329C50.1125 76.1909 49.8145 76.6043 49.7017 77.082C48.4369 76.5455 43.4851 74.1769 42.251 73.556C42.3305 73.2913 42.3475 73.0117 42.3006 72.7392C42.2537 72.4668 42.1442 72.209 41.9808 71.9861C41.8173 71.7632 41.6043 71.5812 41.3586 71.4546C41.1128 71.328 40.8411 71.2602 40.5647 71.2564C40.6643 58.7696 40.511 24.3217 40.4344 19.5922C40.4344 19.5309 40.3117 19.5386 40.3117 19.5922C40.3577 36.2566 40.3117 70.7045 40.3117 71.2641C39.9728 71.2994 39.6512 71.431 39.3846 71.6432C39.1181 71.8554 38.9178 72.1394 38.8074 72.4617C38.697 72.7841 38.6811 73.1312 38.7616 73.4623C38.842 73.7934 39.0155 74.0945 39.2616 74.3302C37.3146 76.4382 31.2973 83.4136 30.1705 84.7244C29.886 84.4829 29.5322 84.3379 29.1601 84.3103C28.7879 84.2827 28.4166 84.3739 28.0996 84.5707C27.7826 84.7676 27.5362 85.06 27.3959 85.4058C27.2557 85.7516 27.2287 86.133 27.319 86.495L18.6649 90.619C18.5046 90.3966 18.2971 90.2126 18.0572 90.0801C17.8173 89.9475 17.551 89.8698 17.2775 89.8524C17.2775 72.2222 17.3771 25.3106 17.2775 19.4696C17.2775 19.4083 17.1548 19.4083 17.1548 19.4696C17.0168 29.9098 17.0475 87.2846 17.0475 89.8524C16.7587 89.8629 16.4763 89.9403 16.2226 90.0787C15.9689 90.2172 15.7508 90.4127 15.5858 90.6499C15.4207 90.8871 15.3131 91.1595 15.2714 91.4455C15.2298 91.7315 15.2552 92.0232 15.3458 92.2977C14.1639 92.8334 13.0369 93.4829 11.9807 94.237C11.9807 94.237 11.9807 94.3443 12.0344 94.329C13.2149 93.8614 14.334 93.1639 15.4685 92.589C15.6194 92.8803 15.8453 93.1263 16.1228 93.3014C16.4003 93.4765 16.7195 93.5746 17.0475 93.5854V99.7177C17.0532 99.7367 17.0648 99.7533 17.0807 99.7652C17.0966 99.777 17.1158 99.7834 17.1357 99.7834C17.1555 99.7834 17.1747 99.777 17.1906 99.7652C17.2065 99.7533 17.2182 99.7367 17.2238 99.7177V93.5854C17.5269 93.5669 17.8208 93.4748 18.0804 93.3173C18.3399 93.1597 18.5571 92.9412 18.7133 92.6809C18.8696 92.4205 18.96 92.1261 18.977 91.8229C18.9939 91.5198 18.9368 91.217 18.8105 90.9409C19.3624 90.6726 26.7211 87.2769 27.4647 86.9626C27.5882 87.175 27.7548 87.3592 27.9538 87.5034C28.1527 87.6476 28.3796 87.7487 28.6199 87.8C28.8601 87.8514 29.1085 87.852 29.349 87.8018C29.5895 87.7515 29.8169 87.6515 30.0165 87.5083C30.2161 87.365 30.3836 87.1816 30.5082 86.9698C30.6327 86.758 30.7117 86.5225 30.7399 86.2784C30.7681 86.0343 30.745 85.787 30.672 85.5524C30.599 85.3178 30.4778 85.101 30.3162 84.916C31.9029 83.0073 38.1041 76.3385 39.5835 74.6062C39.7859 74.7256 40.0099 74.8038 40.2427 74.8361C40.2427 77.8102 40.1891 80.9684 40.1737 83.9042L39.6525 83.9655C36.7703 84.3564 36.2261 88.442 38.449 89.7221C37.5829 89.7221 35.1223 90.0134 35.8812 91.2552C36.2799 91.6913 36.8261 91.9644 37.4142 92.0217C37.9904 94.2399 37.8207 96.586 36.9313 98.6982C36.0475 100.359 34.9269 101.883 33.6046 103.221C32.6387 104.317 33.0527 105.72 32.976 107.092C32.9282 107.376 32.9465 107.667 33.0297 107.943C33.1786 108.214 33.3791 108.453 33.6199 108.648C27.4417 114.749 3.83252 142.153 3.83252 142.176C17.1088 141.969 148.799 139.792 149.473 139.815C149.09 139.386 135.929 127.757 132.778 124.944ZM118.636 101.718C118.189 101.236 117.857 100.658 117.666 100.029C117.475 99.3992 117.429 98.7346 117.532 98.085C117.568 97.452 117.749 96.8356 118.06 96.283C118.371 95.7303 118.804 95.256 119.326 94.8962C120.28 94.2065 121.468 93.9232 122.631 94.1086C123.793 94.2939 124.835 94.9328 125.527 95.885C126.838 97.8474 126.991 100.806 125.144 102.278C124.188 103.018 122.99 103.373 121.786 103.274C120.581 103.174 119.457 102.628 118.636 101.741V101.718ZM115.692 105.942C115.513 105.856 115.356 105.73 115.234 105.574C115.112 105.417 115.027 105.235 114.987 105.04C114.947 104.846 114.953 104.645 115.003 104.453C115.054 104.261 115.148 104.083 115.278 103.934C115.73 103.604 116.257 103.394 116.811 103.32C117.783 103.079 118.778 102.948 119.778 102.929C120.584 103.291 121.464 103.457 122.346 103.413C123.228 103.369 124.087 103.117 124.852 102.676C125.957 102.722 127.055 102.869 128.133 103.113C129.582 103.512 129.881 105.589 128.44 106.049C122.261 108.027 116.804 106.708 115.692 105.965V105.942ZM100.262 77.7183C100.412 79.4192 100.412 81.13 100.262 82.831C99.7025 87.7598 96.7207 89.0476 96.1611 91.8914C96.0577 92.98 96.0577 94.0759 96.1611 95.1645C92.7117 90.9026 92.3975 85.8512 92.1368 80.4318C93.1717 78.2088 94.2141 76.0472 94.6971 75.2117C96.0176 75.1364 97.3287 74.9414 98.614 74.6291C99.0433 74.5218 99.4879 74.4145 99.9325 74.2919C100.093 75.434 100.193 76.5761 100.262 77.7183ZM94.996 57.6812C95.6092 58.8616 96.2301 60.1954 96.7974 61.5981L96.5674 61.7131C94.5635 62.6584 92.625 63.7365 90.7648 64.9402C90.4811 62.9012 90.1285 60.8699 89.6916 58.8539C91.4776 58.5397 93.256 58.1564 94.996 57.6812ZM97.2956 35.0992C97.6329 36.7089 97.0733 38.2726 98.4837 38.8858C98.545 38.8858 99.2503 39.0238 99.2503 39.0238C99.2503 39.0238 98.614 39.6294 98.5374 39.683C97.9735 39.9398 97.3424 40.0097 96.736 39.8823L95.6782 39.4607L94.9117 38.2496C94.8919 38.2313 94.8659 38.2211 94.8389 38.2211C94.8119 38.2211 94.7859 38.2313 94.766 38.2496L94.5897 38.3646C94.589 37.0672 94.7749 35.7764 95.1416 34.5319C95.5939 34.5319 95.9082 34.0414 96.0232 33.6428C96.7284 33.4205 97.1423 34.4016 97.2879 35.0992H97.2956ZM95.134 38.9318C95.5786 39.6447 93.233 41.1011 92.7271 41.3617C92.2212 41.6223 91.9069 40.1813 91.8072 39.8287C91.9835 39.729 94.7047 38.2726 95.1263 38.9548L95.134 38.9318ZM95.9005 33.5661C95.8009 33.9954 95.134 34.3326 95.134 34.3326C95.2566 33.9187 95.6782 32.7229 95.7395 32.5236C95.8362 32.6831 95.8966 32.8619 95.9165 33.0474C95.9363 33.2328 95.9152 33.4204 95.8545 33.5968L95.9005 33.5661ZM86.9934 29.2735C86.0966 27.3572 88.3962 26.2841 89.9676 26.652C91.125 26.9279 91.7766 27.7098 92.5738 28.4993C93.7772 29.7028 95.157 29.4115 95.6399 30.6303C96.1228 31.8491 95.0957 33.1062 94.6051 35.7277C94.5926 35.7195 94.5779 35.7151 94.5629 35.7151C94.5479 35.7151 94.5333 35.7195 94.5208 35.7277C94.2525 35.789 93.3633 35.7967 93.4476 35.3828C93.4476 35.2218 93.8692 34.9842 93.9842 34.8079C94.1071 34.6716 94.1932 34.5063 94.2345 34.3275C94.2759 34.1487 94.271 33.9624 94.2204 33.786C94.1698 33.6096 94.0751 33.4491 93.9453 33.3194C93.8154 33.1897 93.6547 33.0952 93.4783 33.0449C93.2253 32.9375 92.6428 33.0449 92.4895 32.9222C92.2058 32.7076 92.3668 32.2017 92.3975 31.8644C92.3969 31.845 92.392 31.826 92.3831 31.8088C92.3742 31.7915 92.3616 31.7765 92.3462 31.7647C92.3308 31.753 92.3129 31.7448 92.2939 31.7409C92.275 31.7369 92.2553 31.7372 92.2365 31.7418C91.2093 31.9838 90.1307 31.8753 89.1723 31.4336C88.2139 30.9919 87.4307 30.2423 86.9474 29.3042L86.9934 29.2735ZM87.4304 30.3467C87.9053 30.8989 88.4932 31.3427 89.1544 31.6482C89.8156 31.9536 90.5347 32.1136 91.263 32.1174C91.5315 32.0687 91.8029 32.0379 92.0755 32.0254C92.2748 32.1863 92.1215 32.7919 92.0755 33.0525C92.0755 33.1368 92.1522 33.1752 92.2212 33.1675C92.9877 33.0449 94.2755 33.2135 93.9305 34.4016C93.787 34.7845 93.5164 35.1064 93.164 35.3138C93.1526 35.3239 93.1434 35.3362 93.1372 35.3501C93.1309 35.364 93.1277 35.3791 93.1277 35.3943C93.1277 35.4095 93.1309 35.4246 93.1372 35.4384C93.1434 35.4523 93.1526 35.4647 93.164 35.4748C93.3328 35.6805 93.5619 35.8282 93.8191 35.8969C94.0762 35.9657 94.3484 35.9521 94.5974 35.858C94.441 36.687 94.4151 37.5353 94.5208 38.3722C93.5728 38.8359 92.5914 39.2279 91.5849 39.545C91.259 40.356 90.88 41.1447 90.4505 41.906C90.1515 41.3311 89.3773 39.7213 89.247 39.568H89.178L89.431 38.6559C89.4359 38.6336 89.4324 38.6102 89.421 38.5904C89.4097 38.5705 89.3914 38.5556 89.3697 38.5486C88.6204 38.3809 87.9367 37.9976 87.4027 37.446C86.8688 36.8943 86.508 36.1984 86.3649 35.4441C85.9356 33.6504 86.6178 31.9257 87.3844 30.3773L87.4304 30.3467ZM88.5878 38.4412C89.2164 38.6942 89.2087 38.7478 89.0401 39.4224C88.7889 39.3143 88.5582 39.1639 88.3578 38.9778C88.3499 38.9682 88.34 38.9604 88.3287 38.9551C88.3175 38.9498 88.3052 38.947 88.2927 38.947C88.2802 38.947 88.2679 38.9498 88.2567 38.9551C88.2454 38.9604 88.2355 38.9682 88.2275 38.9778C87.6296 40.2656 87.5913 40.2273 87.6756 40.2962L87.8596 40.4419C87.6836 40.4635 87.5111 40.5073 87.346 40.5722C87.346 39.4914 87.3 38.7172 87.346 37.5751C87.6783 37.9535 88.0855 38.2589 88.5418 38.4719L88.5878 38.4412ZM86.0429 41.1624C86.6025 41.0398 87.484 40.5339 88.0972 40.6642C88.3239 40.8641 88.5341 41.082 88.7258 41.3157C88.7718 41.3771 88.8561 41.3157 88.8638 41.2621C88.8912 40.8963 88.9659 40.5355 89.0861 40.1889C89.0861 40.1046 88.9864 40.0739 88.9557 40.1889C88.8415 40.4875 88.7642 40.799 88.7258 41.1164C88.6108 40.9861 87.8596 40.3039 87.8749 40.1199C87.9636 39.8453 88.0956 39.5865 88.2659 39.3534C88.4345 39.2768 88.9634 39.7137 89.1091 39.8287C89.2547 39.9436 90.0672 41.607 90.3968 42.0669H90.5195C90.7801 41.653 91.5313 40.2043 91.7076 40.0126C91.9436 40.5916 92.0834 41.2052 92.1215 41.8293C92.1215 41.906 92.2058 41.9443 92.2672 41.9136C93.417 41.2084 94.4901 40.4266 95.6169 39.683C100.377 41.3617 101.749 42.7491 103.405 46.5818C104.647 49.2639 105.526 52.0994 106.019 55.0136C106.195 55.5724 106.195 56.1719 106.019 56.7307C105.753 57.2595 105.377 57.7249 104.915 58.0951C102.268 59.0744 99.6763 60.1952 97.15 61.4525C96.6498 60.1116 96.0101 58.8269 95.2413 57.6198C97.3339 57.0373 98.9896 56.0255 99.9018 53.9865C100.878 51.5655 101.398 48.9849 101.435 46.3748C101.435 46.2752 101.297 46.2752 101.289 46.3748C101.006 49.1343 100.561 53.4959 98.6907 55.5732C97.6014 56.6027 96.2343 57.2902 94.7584 57.5508C93.2253 57.9418 91.6923 58.2637 90.1592 58.5627C89.3467 58.716 86.0046 59.5362 85.4987 59.0226C85.4527 58.9229 84.4869 56.8456 84.3029 56.3627C83.935 55.4199 84.3029 55.5272 85.0694 55.1669C87.7676 53.9941 89.5843 51.4646 91.9682 49.8012C91.9924 49.7884 92.0115 49.7678 92.0226 49.7428C92.0337 49.7178 92.0362 49.6898 92.0295 49.6632C91.7406 47.8634 91.7665 46.0271 92.1062 44.2362C92.1062 44.1672 92.0142 44.1366 91.9989 44.2362C91.7323 45.4204 91.6138 46.6332 91.6463 47.8466C91.7059 48.3196 91.7392 48.7956 91.7459 49.2723C91.3809 48.7547 90.9868 48.2582 90.5655 47.7852C90.4198 46.2982 90.3278 44.8418 90.2665 43.347C90.2665 43.2704 90.1669 43.278 90.1515 43.347C89.9789 44.7929 90.0724 46.2581 90.4275 47.6703C88.7871 45.7769 86.2269 43.1247 84.3489 41.2084C84.8945 41.3043 85.4532 41.2991 85.9969 41.1931L86.0429 41.1624ZM82.8925 57.8881C82.5935 58.0338 81.0145 58.762 81.3594 57.9954C81.7606 57.951 82.1342 57.7696 82.4172 57.4819C82.4217 57.4744 82.4239 57.4659 82.4236 57.4572C82.4234 57.4485 82.4207 57.4401 82.4159 57.4329C82.4111 57.4257 82.4044 57.42 82.3965 57.4164C82.3886 57.4129 82.3798 57.4117 82.3712 57.4129C82.1413 57.4895 80.179 58.3404 81.6507 57.2442C81.9267 57.0373 82.5782 56.815 82.6395 56.4777C82.6441 56.4573 82.6422 56.4359 82.6339 56.4166C82.6256 56.3973 82.6115 56.3812 82.5935 56.3704C82.4316 56.283 82.2919 56.1593 82.1856 56.0091C82.0792 55.8588 82.009 55.6861 81.9803 55.5042C82.5836 55.8426 83.259 56.0318 83.9503 56.0561C84.1879 56.723 84.4485 57.3975 84.7168 58.0414C84.2952 58.3097 81.3824 59.3675 81.7734 58.5167C82.2017 58.4623 82.6031 58.2777 82.9231 57.9878C82.9231 57.9878 82.8772 57.8958 82.8465 57.9188L82.8925 57.8881ZM91.6846 49.4563C91.6618 49.5567 91.6173 49.6509 91.5543 49.7322C91.1411 50.1219 90.6977 50.4782 90.2282 50.7977C89.5306 51.4109 88.8561 52.0625 88.1586 52.691C87.392 47.8466 84.9085 43.3317 82.3023 39.2231C83.843 40.7868 89.9446 47.5246 91.6386 49.5099L91.6846 49.4563ZM69.7542 31.6421C69.6744 31.1765 69.6486 30.7032 69.6775 30.2317C69.9611 30.0707 70.444 32.355 70.49 32.6923C70.2686 32.784 70.0578 32.8997 69.8615 33.0372C69.8768 32.5696 69.8155 32.102 69.7542 31.6421ZM69.3862 33.3975C69.1103 33.6887 69.1869 33.934 69.6468 33.9877C69.5549 34.1793 69.3096 34.1257 69.1486 33.9877C68.8539 33.6743 68.6315 33.3002 68.497 32.8916C68.4127 32.0637 69.3096 32.8532 69.4169 33.3975H69.3862ZM68.3514 32.9605C68.373 33.0662 68.4065 33.169 68.4511 33.2672C68.6504 33.6887 68.9723 34.279 69.4322 34.302C69.4322 35.1528 68.7883 34.302 68.6657 34.095C68.3284 33.6351 67.8302 32.9605 68.3514 32.9605ZM67.8992 34.279C67.8992 34.2253 67.4162 33.3361 67.9758 33.4741C68.2833 33.9235 68.6214 34.3512 68.9876 34.7542C68.7807 35.6664 68.2747 34.7542 68.2211 34.6392C68.1026 34.5158 67.9949 34.3824 67.8992 34.2406V34.279ZM68.2747 35.0455C68.3207 35.1201 68.3809 35.1849 68.452 35.2362C68.523 35.2875 68.6034 35.3243 68.6887 35.3445C68.9416 35.3445 69.0796 35.1068 69.1026 34.8845C69.6775 34.8845 69.5702 34.3173 69.5472 34.302C69.6102 34.2929 69.668 34.2617 69.7101 34.2139C69.7522 34.1662 69.776 34.105 69.7771 34.0414C70.2488 34.0824 70.7213 33.9723 71.1262 33.7271C71.1412 33.717 71.1521 33.702 71.1571 33.6847C71.1621 33.6673 71.1608 33.6488 71.1535 33.6323C71.1462 33.6159 71.1333 33.6025 71.1171 33.5946C71.1009 33.5867 71.0824 33.5847 71.0649 33.5891C70.6942 33.7955 70.2666 33.8762 69.8461 33.8191C69.3096 33.6121 69.6085 33.4818 69.8078 33.3208C69.9938 33.1624 70.194 33.0212 70.4057 32.8992C71.0956 32.516 71.6552 33.0755 71.8315 33.7041C71.9096 34.165 71.9225 34.6346 71.8698 35.0992C71.8698 35.0992 70.8733 36.1646 70.3367 36.6322C69.4475 36.6782 68.7117 36.295 68.2747 34.9995V35.0455ZM73.9624 45.3323C72.2809 43.8315 70.9199 42.0064 69.9611 39.9666C69.639 39.464 69.4153 38.9047 69.3019 38.3186C69.3556 37.759 72.1227 35.1682 72.2607 35.1528C72.6746 35.0838 73.6788 36.8775 74.0161 37.3068C74.6715 38.184 75.4081 38.9975 76.216 39.7367C77.5191 40.8711 79.3435 42.0363 81.1371 41.7833C80.8993 43.3633 80.8069 44.9619 80.8612 46.5588C79.0856 46.2543 77.2711 46.2543 75.4955 46.5588C74.9136 46.2282 74.3946 45.7974 73.9624 45.2864V45.3323ZM59.9119 103.328C58.7759 101.576 58.1179 99.5569 58.0032 97.4718C58.0032 93.5165 62.0429 89.7605 64.4114 86.472C67.8718 81.4559 70.1085 75.6986 70.9423 69.662C70.9423 69.6084 72.9353 69.5777 73.9547 69.5317C76.5993 69.4167 79.0522 69.0335 80.5776 66.6189C80.5776 66.5653 80.5239 66.5116 80.4856 66.5652C79.7755 67.6142 78.7579 68.4176 77.5728 68.8648C76.1579 69.2512 74.6919 69.4167 73.2265 69.3554C71.911 69.4168 70.5927 69.363 69.2866 69.1944C68.1981 69.0335 67.125 68.6272 66.0288 68.9338C65.2031 69.2045 64.4395 69.6371 63.7829 70.2063C62.8784 70.9728 62.2498 72.0306 61.2533 72.6208C59.13 73.8396 56.1789 73.5253 54.0709 72.4522C50.016 70.3902 48.8279 65.5074 50.2383 62.8399C50.8938 61.734 51.7102 60.7316 52.6605 59.8658C56.0568 56.4301 59.929 53.5002 64.1585 51.1656C75.2655 45.1407 81.0221 46.7734 81.0221 46.7581C81.0221 46.7428 81.2751 41.561 81.8577 39.0928C84.5405 43.3547 87.1774 47.8772 87.9286 52.8903C86.7525 54.0345 85.3163 54.8762 83.7433 55.3432C83.717 55.352 83.6947 55.3701 83.6806 55.394C83.6665 55.418 83.6616 55.4462 83.6667 55.4736C83.7203 55.6345 83.774 55.7878 83.8353 55.9488C83.4225 55.9071 83.0203 55.793 82.6472 55.6115C82.3889 55.4526 82.1068 55.3362 81.8117 55.2666C81.7974 55.2632 81.7826 55.263 81.7683 55.2659C81.754 55.2689 81.7405 55.275 81.7288 55.2838C81.7171 55.2926 81.7074 55.3038 81.7006 55.3167C81.6937 55.3297 81.6898 55.344 81.689 55.3586C81.6879 55.5809 81.7433 55.7998 81.85 55.9948C81.919 56.1098 82.3253 56.3857 82.3253 56.4394C82.3253 56.654 81.4208 57.1293 81.2521 57.2749C81.0835 57.4205 80.8152 57.5585 80.8075 57.8268C80.7999 58.0951 81.0375 58.0031 81.1295 58.0108C81.09 58.0429 81.059 58.084 81.0389 58.1308C81.0189 58.1775 81.0105 58.2284 81.0145 58.279C81.0145 58.4554 81.3824 58.509 81.4361 58.509C81.2904 58.647 81.4361 58.9383 81.7274 58.9996C82.2463 59.0275 82.7659 58.96 83.2604 58.8003C83.7863 58.6708 84.2882 58.4587 84.7475 58.1717C85.514 59.7048 85.5983 59.4978 86.8171 59.3139C87.7063 59.1836 88.5955 59.0379 89.4846 58.8846C89.9216 60.9312 90.2512 63.0085 90.5425 65.0858C89.8255 65.6111 89.1698 66.2154 88.5878 66.8872C86.3879 69.4627 85.698 72.1839 84.6708 76.2005C83.9654 78.9612 83.5416 81.7862 83.4061 84.6324C83.8085 85.023 84.2593 85.3604 84.7475 85.6365C84.6862 85.8818 84.5175 86.7557 84.4792 86.9473C83.6928 87.2522 82.925 87.6028 82.1796 87.9974C82.0493 88.1048 81.6814 88.4957 82.6012 88.764C83.521 89.0323 86.7711 89.8984 87.1314 89.6531C87.2234 89.4385 87.4533 87.8058 87.8979 86.5334C88.4512 86.5523 89.0046 86.5034 89.546 86.3877C89.8373 85.5675 90.8567 83.2603 91.9376 80.9147C92.2825 86.5564 92.8267 91.2859 95.8469 95.0495C96.6527 95.889 97.2856 96.8787 97.7095 97.9623C97.9713 99.222 97.8811 100.529 97.4489 101.741C96.8663 103.964 94.4288 106.425 93.8692 106.954C90.5118 110.181 86.2039 111.392 81.6584 111.614C77.3888 111.821 72.9123 112.005 68.842 110.526C64.0972 108.847 62.0889 107 59.9119 103.328ZM87.668 86.5717C87.553 86.8017 87.2464 87.6678 87.1774 87.8518C86.4293 87.4827 85.6314 87.2244 84.8088 87.0853C84.8088 86.909 84.9468 86.0888 84.9698 85.8512C85.7948 86.3131 86.7225 86.5608 87.668 86.5717ZM61.0387 105.582C62.4011 107.474 64.2572 108.957 66.4044 109.867C71.0036 112.105 73.6175 112.074 78.6689 112.021C83.0765 112.021 87.553 111.691 91.378 109.269C92.9824 108.245 94.4133 106.972 95.6169 105.497C97.4182 107.199 98.3687 109.491 99.2043 111.783C99.9659 114.222 100.568 116.708 101.006 119.226C99.3652 122.146 95.9235 123.618 92.8804 124.592C88.7976 125.79 84.5837 126.485 80.3323 126.661C75.3958 126.953 70.0148 127.014 65.0017 125.78C62.9574 125.269 60.9678 124.561 59.0611 123.664H59.0227C57.9544 123.14 56.9291 122.533 55.9566 121.847C55.1082 121.191 54.3112 120.471 53.5727 119.693C53.4342 119.49 53.3532 119.253 53.3383 119.008C53.3235 118.762 53.3753 118.517 53.4884 118.298C54.0019 116.551 54.3239 114.757 54.6918 112.933C55.3357 109.652 57.0757 105.52 61.0387 105.582ZM38.1731 89.2009C37.0846 88.2811 37.0999 86.4644 37.8588 85.3223C38.6177 84.1801 40.9786 83.3906 41.9827 84.5557C45.2252 88.419 40.7793 91.4238 38.1731 89.2009ZM37.1843 89.9674C37.6677 89.8473 38.1598 89.7652 38.656 89.7221C39.1892 90.0036 39.7869 90.1404 40.3894 90.1189C40.9919 90.0973 41.5783 89.9183 42.0901 89.5995C42.0901 89.5995 46.5743 89.9214 44.2593 91.5618C43.3395 92.2134 41.4002 92.1137 40.7103 92.1137C37.7132 92.1214 34.2791 90.9026 37.1843 89.9828V89.9674ZM33.4206 107.904C33.091 107.429 33.275 106.578 33.2673 106.026C33.2673 105.076 33.0527 104.202 33.6812 103.397C34.1871 102.738 34.785 102.132 35.3063 101.481C37.4832 98.7672 38.5257 95.4098 37.6059 91.9757C38.728 92.2718 39.888 92.3984 41.0476 92.3513C41.7719 92.341 42.4944 92.277 43.2092 92.1597C43.2092 97.8474 45.4245 102.255 47.0419 103.596C47.3945 103.895 47.977 104.141 48.138 104.601C48.2802 105.855 48.2103 107.125 47.931 108.356C47.6934 108.832 46.9499 109.123 46.49 109.345C44.8097 110.109 42.9658 110.444 41.1242 110.319C39.1995 110.333 37.2873 110.009 35.4749 109.361C34.6737 109.072 33.9644 108.575 33.4206 107.92V107.904ZM30.0172 141.425C28.8214 141.425 11.8274 141.54 4.38442 141.831C9.36687 136.304 19.715 124.254 20.2209 123.71H39.8595L46.3366 111.952H30.8527C31.351 111.361 33.1523 109.368 33.7349 108.655C34.061 108.918 34.4098 109.152 34.7774 109.353C36.456 110.143 38.2879 110.554 40.1431 110.556C41.8524 110.744 43.5819 110.593 45.2328 110.112C46.0382 109.838 46.8097 109.472 47.5324 109.023C48.0997 108.663 48.1073 108.372 48.184 107.69C48.2606 107.007 48.2913 106.524 48.322 105.942L49.5024 105.988L46.3136 111.952H54.6382C54.4312 112.764 54.2626 113.584 54.0939 114.397C53.9253 115.209 52.8905 118.912 52.8905 119.226C53.0668 120.054 54.3009 120.912 54.9141 121.411C56.013 122.284 57.206 123.032 58.4708 123.641C52.2543 123.687 46.0377 123.641 39.8288 123.71L30.0172 141.425ZM70.6433 140.773L70.3061 126.807C77.3567 127.415 84.4592 126.897 91.3473 125.274C93.261 124.814 95.1192 124.149 96.8893 123.289H99.8788C99.6115 122.825 99.3559 122.355 99.1123 121.878C99.965 121.182 100.669 120.322 101.182 119.349C100.694 116.606 100.031 113.897 99.1966 111.239L99.051 110.825H114.719C115.025 111.078 116.949 112.733 117.639 113.247C117.657 113.259 117.679 113.266 117.701 113.266C117.723 113.266 117.744 113.259 117.762 113.247C117.644 114.379 117.424 115.497 117.103 116.589C116.336 119.111 114.665 121.142 112.902 123.043L99.8711 123.312L109.943 140.175C109.652 140.168 75.7944 140.712 70.6203 140.773H70.6433ZM132.449 131.743C131.176 133.92 124.216 134.71 122.89 134.756C118.843 134.656 113.423 134.135 111.929 132.111C111.237 130.64 110.988 128.999 111.213 127.389C111.437 125.779 112.126 124.269 113.193 123.043C115.016 121.363 116.432 119.289 117.333 116.98C118.391 113.868 118.36 110.265 118.023 107.015C120.851 107.404 123.721 107.368 126.539 106.908C126.438 109.021 126.608 111.138 127.045 113.209C127.712 116.965 127.995 118.429 130.77 122.484C131.307 123.25 131.843 124.07 132.418 124.837C133.614 127.106 133.177 129.689 132.426 131.743H132.449Z" fill="black"/>
<path d="M44.9569 104.815C45.0336 104.769 44.9569 104.639 44.888 104.677C41.1396 106.21 35.521 104.922 34.2715 103.642C34.2624 103.633 34.25 103.628 34.237 103.628C34.2241 103.628 34.2117 103.633 34.2025 103.642C34.1934 103.651 34.1882 103.664 34.1882 103.677C34.1882 103.69 34.1934 103.702 34.2025 103.711C37.353 106.409 43.3012 105.819 44.9569 104.815ZM43.8071 90.6266C42.7641 91.0176 41.6552 91.2024 40.5417 91.1708C39.8365 91.1708 37.192 91.3011 37.0234 90.4043H36.9467C37.4296 91.7534 42.573 91.3778 43.8455 90.6726C43.8915 90.6879 43.8608 90.6036 43.8071 90.6266Z" fill="black"/>
</svg>
