<svg width="154" height="154" viewBox="0 0 154 154" fill="none" xmlns="http://www.w3.org/2000/svg">
<path d="M83.7933 50.2601C83.157 50.5867 84.2057 51.7572 84.4479 50.8465C84.4862 50.5667 84.0792 50.1129 83.7933 50.2601Z" fill="black"/>
<path d="M87.4844 49.2369C87.5227 48.9571 87.1164 48.5056 86.8298 48.6513C86.195 48.9824 87.2422 50.1476 87.4844 49.2369Z" fill="black"/>
<path d="M51.1022 96.1388C51.0032 96.162 50.9174 96.2236 50.8638 96.3099C50.8102 96.3963 50.7931 96.5005 50.8162 96.5995C50.8394 96.6985 50.901 96.7843 50.9874 96.8379C51.0738 96.8915 51.1779 96.9086 51.2769 96.8854C56.9912 95.5579 62.9188 95.4317 68.6844 96.5148C74.4499 97.5978 79.9277 99.8666 84.7706 103.177C84.8524 103.177 84.9321 103.151 84.9981 103.103C85.064 103.054 85.1127 102.986 85.1371 102.908C85.1614 102.83 85.1601 102.746 85.1333 102.669C85.1065 102.591 85.0557 102.525 84.9883 102.478C80.0903 99.1255 74.5474 96.8303 68.713 95.7388C62.8787 94.6473 56.8809 94.7835 51.1022 96.1388Z" fill="black"/>
<path d="M87.2997 100.065C78.5135 94.5706 68.694 90.8774 58.2758 92.4097C58.1779 92.426 58.0901 92.4797 58.031 92.5595C57.9718 92.6392 57.946 92.7388 57.9588 92.8372C57.9716 92.9357 58.0221 93.0253 58.0997 93.0873C58.1773 93.1492 58.2759 93.1786 58.3747 93.1693C64.7977 92.3272 71.3292 93.1726 77.3261 95.6223C80.6336 97.0883 83.8312 98.7906 86.8942 100.716C86.9805 100.77 87.0846 100.787 87.1837 100.764C87.2827 100.741 87.3686 100.68 87.4223 100.593C87.4761 100.507 87.4934 100.403 87.4704 100.304C87.4474 100.205 87.386 100.119 87.2997 100.065Z" fill="black"/>
<path d="M65.1354 89.6148C65.0337 89.6185 64.9377 89.6624 64.8684 89.7368C64.7991 89.8113 64.7622 89.9103 64.7659 90.0119C64.7695 90.1136 64.8134 90.2096 64.8879 90.2789C64.9624 90.3482 65.0613 90.385 65.163 90.3814C74.0009 90.0678 82.6501 92.9872 89.4902 98.5927C89.8635 98.9116 90.3702 98.3121 89.9769 98.0001C82.9786 92.3008 74.1561 89.3228 65.1354 89.6148Z" fill="black"/>
<path d="M63.0272 86.8241C62.9256 86.8315 62.831 86.879 62.7644 86.9562C62.6978 87.0333 62.6645 87.1337 62.6719 87.2354C62.6793 87.337 62.7268 87.4316 62.804 87.4982C62.8811 87.5648 62.9815 87.5981 63.0832 87.5907C73.7606 86.8 84.3316 90.158 92.5954 96.9656C92.9656 97.2852 93.4769 96.6858 93.0813 96.3738C84.66 89.4517 73.8996 86.0325 63.0272 86.8241Z" fill="black"/>
<path d="M66.7536 85.1036C71.9194 84.3934 77.179 84.8667 82.135 86.4878C87.091 88.1088 91.6137 90.8352 95.3612 94.4608C95.7062 94.8096 96.2619 94.2539 95.894 93.9105C92.0577 90.2111 87.4334 87.4286 82.368 85.7719C77.3027 84.1152 71.9279 83.6272 66.647 84.3447C66.5483 84.361 66.4599 84.4152 66.4006 84.4958C66.3414 84.5765 66.316 84.677 66.3299 84.7761C66.3438 84.8752 66.3959 84.9649 66.4751 85.0261C66.5542 85.0873 66.6542 85.1151 66.7536 85.1036Z" fill="black"/>
<path d="M27.4703 86.8616C25.3891 87.3644 25.2305 90.2804 27.5815 90.311C30.7542 90.3287 30.824 86.0506 27.4703 86.8616ZM29.0801 88.85C28.8546 89.1218 28.5579 89.3253 28.2232 89.4378C27.8884 89.5503 27.529 89.5674 27.1852 89.487C26.1396 89.1037 26.6256 87.8642 27.7049 87.5913C28.5435 87.1881 29.6611 88.0053 29.0793 88.85H29.0801Z" fill="black"/>
<path d="M117.343 96.6719C116.915 96.6719 116.72 96.6719 115.607 103.733C115.07 107.118 114.569 110.694 114.48 111.352C114.527 112.142 116.06 111.771 116.608 111.889C129.347 111.732 129.655 97.6201 117.343 96.6719ZM124.039 108.275C121.828 110.719 118.142 111.315 115.294 111.062C115.745 107.766 117.073 98.8435 117.554 97.4469C123.532 97.745 128.331 103.529 124.039 108.275Z" fill="black"/>
<path d="M149.311 42.4253C147.89 41.3575 146.207 42.2644 144.932 41.1306C144.805 41.0069 144.653 40.9114 144.486 40.8502C144.319 40.7889 144.141 40.7634 143.964 40.7753C143.787 40.7871 143.614 40.8361 143.457 40.919C143.3 41.0018 143.162 41.1168 143.052 41.2563C142.614 41.797 142.36 42.4637 142.327 43.1589C137.811 47.8111 132.462 51.4055 124.083 53.4345C125.836 51.6365 127.268 49.5514 128.317 47.2699C130.847 41.1 120.596 36.3849 116.129 35.2642C115.931 34.4279 116.537 33.0926 116.783 32.2356C117.062 31.1065 116.246 30.5492 115.648 30.8558C114.176 31.3418 113.469 32.9653 112.614 34.0837C110.944 36.3067 112.204 36.9775 114.166 37.9809C114.107 38.0568 114.081 38.1527 114.093 38.2477C114.105 38.3427 114.154 38.4292 114.229 38.4883C115.243 39.4956 120.208 43.4433 118.271 44.9457C117.222 45.756 114.08 48.1837 112.255 49.7359C108.696 49.5642 107.143 49.5558 104.844 49.9521C104.817 49.957 104.792 49.9711 104.773 49.992C104.754 50.0129 104.743 50.0394 104.741 50.0675C104.739 50.0955 104.746 50.1235 104.762 50.1469C104.777 50.1702 104.8 50.1877 104.827 50.1966C111.607 53.4667 112.826 62.2261 110.634 68.4788C112.139 68.3746 114.777 68.5432 116.027 67.9614C120.749 67.493 127.424 66.1983 130.939 64.2C134.537 62.2405 137.656 59.5068 140.069 56.1961C142.482 52.8855 144.131 49.0804 144.895 45.0554C146.267 44.5442 147.674 44.1343 149.105 43.8289C149.769 43.7246 150.255 42.7588 149.311 42.4253ZM119.142 37.0924C123.272 38.7091 129.473 42.6791 127.619 46.9518C126.427 49.5475 124.723 51.8755 122.609 53.7956C121.859 53.978 120.87 54.1727 120.103 54.3429C122.339 52.1158 124.373 49.6948 126.181 47.1082C126.688 46.4572 127.009 45.681 127.11 44.8622C126.717 42.1831 124.197 41.4189 122.114 39.9946C121.037 39.3947 119.999 38.7262 119.008 37.9931C119.097 37.7013 119.143 37.3977 119.142 37.0924ZM114.936 37.534L113.29 36.6325C112.875 36.4087 112.447 36.0553 112.658 35.5425C113.153 34.6363 113.716 33.7695 114.344 32.95C114.711 32.2984 115.303 31.8027 116.009 31.5557C116.064 31.5832 116.103 31.804 116.055 32.0056C115.67 33.0265 115.404 34.0883 115.262 35.1699C115.217 35.3924 115.229 35.6224 115.296 35.8392C115.363 36.056 115.483 36.2525 115.645 36.411C115.55 36.8579 115.299 37.2561 114.936 37.534ZM115.963 39.0127C115.697 38.7681 115.444 38.5152 115.187 38.2952C115.556 38.0694 115.864 37.7567 116.085 37.3843C116.305 37.0118 116.431 36.5911 116.452 36.1588C117.056 36.342 117.692 36.5543 118.329 36.7858C118.647 38.1963 117.296 39.6903 115.963 39.0127ZM111.342 50.4388C111.759 50.4013 112.253 50.6412 112.629 50.4281C114.416 48.895 117.671 46.3807 118.719 45.5705C120.842 43.8626 118.225 41.3598 116.839 39.9164C117.228 39.9002 117.605 39.781 117.933 39.571C118.26 39.361 118.525 39.0678 118.702 38.7214C120.795 40.5779 125.704 41.9984 126.345 44.8216C126.252 45.4939 125.98 46.1289 125.559 46.6613C123.69 49.3395 121.576 51.8382 119.245 54.1252C118.866 53.6653 117.948 52.5561 117.455 53.2437C117.435 53.29 117.425 53.3398 117.424 53.3902C117.423 53.4406 117.433 53.4907 117.452 53.5375C117.47 53.5842 117.498 53.6269 117.534 53.6629C117.569 53.6989 117.611 53.7275 117.657 53.7473C118.12 53.9663 118.505 54.3222 118.76 54.7668C119.018 55.7273 120.69 54.9117 121.376 54.8557C129.477 53.2398 136.777 49.8969 141.125 45.3505C141.628 45.4667 142.083 45.7342 142.428 46.117C138.066 57.0212 128.95 63.3728 117.384 63.6181C117.776 58.5712 116.188 52.8979 111.342 50.4388ZM139.064 56.3413C133.987 63.5308 125.97 66.1462 116.924 67.0921C117.165 66.2099 117.301 65.302 117.327 64.3878C129.123 64.1639 138.44 57.7586 142.985 46.7479C144.352 48.4742 140.356 54.5138 139.064 56.3413ZM143.882 46.1653C143.848 46.3018 143.805 46.4359 143.769 46.5716C143.313 45.7426 142.589 45.0928 141.716 44.728C142.073 44.3739 142.567 43.6089 143.081 43.8036C143.308 43.882 143.515 44.0115 143.685 44.1821C143.855 44.3527 143.983 44.56 144.061 44.788C144.138 45.016 144.162 45.2586 144.131 45.4974C144.1 45.7361 144.015 45.9646 143.882 46.1653ZM144.72 44.2743C144.372 43.7592 143.892 43.3467 143.331 43.0792C142.806 43.0907 143.474 41.9094 143.642 41.74C144.152 40.8462 145.612 43.3107 148.241 43.257C147.05 43.5314 145.874 43.871 144.72 44.2743Z" fill="black"/>
<path d="M86.1666 48.1923C86.5276 48.0919 86.9392 47.8359 87.265 48.0099C87.3595 48.0476 87.465 48.0462 87.5585 48.0061C87.6519 47.966 87.7256 47.8904 87.7633 47.796C87.801 47.7016 87.7997 47.596 87.7595 47.5026C87.7194 47.4091 87.6439 47.3355 87.5494 47.2977C87.0956 47.077 85.5687 47.1835 85.8377 48.0068C85.8719 48.0635 85.9201 48.1104 85.9777 48.1429C86.0353 48.1754 86.1004 48.1924 86.1666 48.1923Z" fill="black"/>
<path d="M83.3584 50.2287C83.4398 49.9456 83.6073 49.6949 83.8375 49.5112C83.9188 49.4502 83.9726 49.3594 83.987 49.2588C84.0013 49.1581 83.9752 49.0559 83.9142 48.9746C83.8532 48.8933 83.7624 48.8395 83.6618 48.8251C83.5611 48.8108 83.4589 48.837 83.3776 48.8979C83.0075 49.1879 82.7404 49.5891 82.6156 50.0424C82.5959 50.1391 82.6143 50.2397 82.6669 50.3232C82.7195 50.4067 82.8022 50.4667 82.898 50.4907C82.9937 50.5147 83.095 50.5009 83.1808 50.4521C83.2665 50.4033 83.3302 50.3232 83.3584 50.2287Z" fill="black"/>
<path d="M87.2135 52.191C86.857 52.5375 87.409 53.0894 87.7554 52.7329C87.9088 52.5796 88.0391 52.4325 88.1709 52.2814C87.977 52.618 87.7616 53.0695 88.338 53.1553C89.0908 52.9399 89.1046 51.8192 88.6377 51.2926C88.0444 50.7844 87.6374 51.8989 87.2135 52.191Z" fill="black"/>
<path d="M85.6639 51.9913C86.1162 52.2044 87.0843 51.47 86.5316 51.0047C86.2848 50.8108 85.9951 51.0814 85.8839 51.2546C85.67 51.0147 86.1675 49.3543 85.4554 49.3827C85.3538 49.3827 85.2563 49.4231 85.1844 49.4949C85.1125 49.5668 85.0721 49.6643 85.0721 49.766C85.122 50.3838 84.8268 51.7973 85.6639 51.9913Z" fill="black"/>
<path d="M133.408 98.2587C130.896 93.1734 124.593 90.1608 117.209 88.942C120.269 86.1863 121.488 85.0457 121.564 84.8954C121.877 83.6528 121.661 79.3555 122.268 78.2119C122.299 78.1303 122.304 78.041 122.281 77.9567C122.258 77.8725 122.209 77.7975 122.142 77.7427C117.92 74.8632 113.302 72.6118 108.433 71.0592C112.707 64.3227 110.894 52.2312 102.036 49.9522C103.706 47.569 101.964 43.9279 99.04 44.1678C97.1085 44.1968 95.1827 44.3858 93.2824 44.7328C93.7661 44.325 93.5124 43.4297 93.1659 43.1016C94.7205 42.2269 92.7489 39.4727 91.2495 39.6107C91.3262 38.4302 90.5029 36.2731 89.1193 37.2129C88.7141 36.6161 88.2012 36.1001 87.6069 35.6913C86.8327 35.2314 85.8385 35.1249 85.4107 35.9589C84.7715 35.5489 84.052 35.2805 83.3004 35.1716C82.3254 35.1578 81.4607 35.7849 81.5787 36.6595C80.5424 36.4295 79.4017 36.5391 78.8376 37.5793C78.5654 38.2041 79.1817 38.559 78.2121 38.513C76.853 38.6364 75.9891 40.4884 77.3688 41.3577C75.8626 41.7018 74.6859 44.43 76.7372 44.86C76.0121 45.8566 75.5153 47.3421 76.3424 48.3455C65.6912 50.1285 57.2017 51.6133 49.1744 53.2016C45.2995 54.9478 42.3996 57.2475 38.6857 59.1807C38.5986 59.2259 38.5322 59.3028 38.5001 59.3955C38.4681 59.4882 38.4727 59.5896 38.5132 59.679C39.0789 60.9239 49.4074 61.8253 51.4717 61.9963C60.9636 60.621 70.3746 58.7359 79.6639 56.3491C76.4153 58.9477 71.7738 61.3761 71.3706 66.0114C61.2092 64.8563 51.7308 66.328 43.705 71.4425C30.1256 79.5027 16.0487 87.5837 3.47266 97.5634C3.82757 99.9006 4.62248 102.259 4.7413 104.457C4.74883 104.542 4.78458 104.622 4.84287 104.685C4.90115 104.747 4.97864 104.788 5.06302 104.802C5.1474 104.815 5.23383 104.8 5.30859 104.759C5.38335 104.717 5.44215 104.652 5.47565 104.574C14.5593 101.917 24.8272 101.85 34.232 103.933C41.8845 105.276 39.3595 108.869 41.6798 109.376C41.8186 109.41 44.4034 109.731 44.4394 109.689C44.9246 109.647 45.1431 109.095 45.1293 108.715C45.4052 105.189 47.4857 105.106 50.8493 105.266C66.5321 106.284 72.1785 108.861 85.1792 117.147C85.228 117.179 85.2835 117.199 85.3413 117.205C85.3991 117.211 85.4576 117.204 85.5121 117.183C85.5665 117.163 85.6153 117.13 85.6546 117.087C85.6938 117.044 85.7224 116.992 85.738 116.936C93.4672 110.037 104.837 100.013 109.897 95.473C107.95 103.454 106.172 111.528 104.164 121.481C104.154 121.533 104.154 121.586 104.166 121.637C104.177 121.689 104.198 121.737 104.229 121.78C104.259 121.823 104.298 121.859 104.344 121.886C104.389 121.912 104.439 121.93 104.491 121.937C112.455 122.955 122.752 123.205 129.05 118.137C135.052 113.63 137.136 104.809 133.408 98.2587ZM99.0576 44.9344C101.773 44.9145 102.693 47.914 101.217 49.7476C100.169 49.5012 99.0974 49.3726 98.0212 49.3643C98.1976 48.5862 98.158 47.7747 97.9067 47.0175C97.6554 46.2602 97.202 45.5861 96.5955 45.0678C97.4049 44.9911 98.2274 44.9413 99.0576 44.9344ZM96.8568 60.2018C96.6422 59.2221 97.5076 59.0757 97.7215 60.0623C98.129 63.0657 97.7985 66.1233 96.7587 68.9703C92.9078 68.4615 88.9909 68.909 85.354 70.2735C84.1488 69.6078 82.8947 69.0348 81.6025 68.5595C83.5534 67.1536 86.0362 65.1797 87.9488 63.8912C89.9155 66.2575 92.6433 67.8671 95.6656 68.4445C95.7522 68.4415 95.8354 68.4105 95.9029 68.3562C95.9703 68.3019 96.0183 68.2272 96.0397 68.1432C96.9179 65.5939 97.1975 62.8766 96.8568 60.2018ZM92.939 49.0807C93.2391 48.5434 93.389 47.9352 93.3729 47.32C93.3569 46.7048 93.1755 46.1053 92.8478 45.5844C93.6611 45.4564 94.5557 45.2678 95.4541 45.2011C96.1868 45.5932 96.7621 46.2257 97.0832 46.9921C97.4043 47.7586 97.4516 48.6123 97.2171 49.4095C95.8918 49.5191 93.2801 49.7798 92.3879 49.8694C92.0506 49.6249 92.8685 49.4501 92.939 49.0807ZM82.9409 47.6924C84.0731 48.1708 85.1363 47.1697 85.574 46.121C85.9723 46.2825 86.4134 46.3053 86.8263 46.1859C87.2392 46.0665 87.6 45.8117 87.8507 45.4625C87.9903 45.5873 88.1627 45.6696 88.3475 45.6996C88.5324 45.7296 88.722 45.7061 88.8939 45.632C89.1162 46.003 89.629 46.6791 90.0231 47.188C89.9972 47.5015 90.0546 47.8161 90.1894 48.1002C90.2766 48.2736 90.4172 48.4145 90.5905 48.502C90.7637 48.5896 90.9604 48.6192 91.1518 48.5866C91.3431 48.554 91.519 48.4608 91.6534 48.3209C91.7879 48.1809 91.8739 48.0015 91.8988 47.809C91.8927 47.7055 92.1901 47.7108 92.2897 47.497C92.4575 47.2835 92.5395 47.015 92.5197 46.7442C92.6952 47.4786 92.6316 48.8446 91.7493 49.0546C91.4504 49.0715 91.1675 49.4379 91.3454 49.7161C92.0088 50.8435 92.8334 51.868 93.7929 52.757C94.0566 54.9662 90.6501 57.7979 89.2527 55.0843C89.7655 54.6205 89.9495 55.2207 90.3534 55.5649C90.5834 55.7949 90.9736 55.4116 90.7413 55.177C90.4438 54.9307 90.1826 54.6434 89.9656 54.3239C89.8889 54.1705 89.7356 54.1706 89.5777 54.2472C88.7333 54.8783 87.6767 55.1564 86.6311 55.023C86.0389 54.8766 85.4827 54.6115 84.9961 54.2437C84.5095 53.876 84.1026 53.4132 83.8002 52.8835C83.7389 52.5133 83.6354 51.8954 83.1379 51.657C82.5546 51.2377 82.3959 50.2711 82.0992 49.608C82.5083 49.034 82.7948 48.382 82.9409 47.6924ZM86.9431 55.5749C85.0711 56.7124 82.2671 55.0682 82.1353 52.9571C82.1476 52.7886 82.2239 52.6311 82.3486 52.5171C82.4734 52.403 82.637 52.3411 82.806 52.3439C82.99 52.468 83.0245 52.9479 83.0743 53.1664C83.2054 53.6899 83.8355 54.5262 84.3138 54.33C85.0065 55.0553 85.943 55.4987 86.9431 55.5749ZM42.579 60.1742C41.5741 60.0384 40.5803 59.8302 39.6055 59.551C40.6396 59.2229 41.6683 57.7112 42.7108 58.5123C42.904 58.799 42.4364 58.9331 42.4349 59.1984C42.3697 59.6399 42.9293 59.5525 43.0895 59.8361C43.0377 59.9298 42.9644 60.0099 42.8757 60.0697C42.7869 60.1295 42.6852 60.1674 42.579 60.1803V60.1742ZM51.3943 61.2136C48.7834 60.9974 45.9572 60.677 43.6782 60.3459C43.7501 60.2475 43.8005 60.135 43.8261 60.0159C43.8518 59.8968 43.8522 59.7736 43.8273 59.6543C43.8023 59.535 43.7527 59.4223 43.6814 59.3234C43.6102 59.2245 43.519 59.1417 43.4137 59.0803C43.4791 58.9494 43.515 58.8058 43.5192 58.6595C43.5233 58.5133 43.4955 58.3679 43.4377 58.2335C43.3799 58.0991 43.2935 57.9789 43.1845 57.8813C43.0756 57.7837 42.9466 57.711 42.8066 57.6683C44.9213 56.2832 47.1234 55.0362 49.399 53.9352C50.2384 53.9711 51.0447 54.2728 51.7017 54.7966C52.3586 55.3204 52.8322 56.0394 53.054 56.8498C53.2759 57.6601 53.2347 58.5201 52.9362 59.3055C52.6378 60.0909 52.0976 60.7612 51.3935 61.2197L51.3943 61.2136ZM52.7741 61.0281C53.2658 60.4734 53.6201 59.8109 53.8085 59.094C53.997 58.3771 54.0141 57.626 53.8587 56.9012C53.7033 56.1764 53.3797 55.4984 52.9139 54.9218C52.4481 54.3452 51.8532 53.8862 51.1774 53.5818C59.0805 52.0679 67.5777 50.567 78.2029 48.8093C78.2297 49.5513 78.8521 50.4896 79.6685 50.0902C79.8985 49.9369 79.9031 49.7276 80.1177 50.0572C80.2084 50.1702 80.3218 50.2627 80.4507 50.3289C80.5795 50.3951 80.7208 50.4334 80.8654 50.4413C81.01 50.4493 81.1547 50.4267 81.29 50.3751C81.4253 50.3234 81.5483 50.2439 81.6508 50.1416C81.847 50.6595 82.0788 51.1633 82.3445 51.6494C81.0874 52.0579 81.2215 53.5949 81.8478 54.5308C81.5517 54.7286 81.2734 54.9517 81.0161 55.1977C71.7143 57.6491 62.2871 59.5974 52.7756 61.0342L52.7741 61.0281ZM41.6407 108.416C41.5927 108.431 41.5422 108.437 41.492 108.432C41.4419 108.428 41.3931 108.414 41.3485 108.39C41.3039 108.367 41.2642 108.335 41.2319 108.297C41.1996 108.258 41.1752 108.214 41.1601 108.166C40.6158 106.429 39.5442 104.905 38.0942 103.805C36.6441 102.705 34.8875 102.084 33.0684 102.028C32.9667 102.028 32.8692 101.987 32.7974 101.916C32.7255 101.844 32.6851 101.746 32.6851 101.645C32.6851 101.543 32.7255 101.445 32.7974 101.374C32.8692 101.302 32.9667 101.261 33.0684 101.261C35.0516 101.314 36.9686 101.986 38.5503 103.184C40.132 104.381 41.299 106.044 41.8875 107.939C41.9173 108.035 41.9081 108.139 41.8619 108.228C41.8157 108.317 41.7363 108.385 41.6407 108.416ZM41.8454 105.043C36.5984 96.8413 14.8736 95.68 5.84053 96.665C17.269 87.9432 29.8335 80.5276 41.9972 73.3435C50.5657 67.5522 60.3944 65.4112 71.3599 66.7826C71.5377 69.0608 73.3107 69.2793 75.3888 69.3559C78.57 69.3559 82.3139 65.8029 83.7097 62.5459C84.6974 60.6781 85.4963 58.7165 86.0945 56.6902C86.484 56.6356 86.8602 56.5101 87.2044 56.32C85.2436 60.3972 84.5116 65.5347 80.6719 68.282C80.3178 68.5388 80.6183 68.9542 80.9088 69.1068C82.2418 69.6257 83.3809 70.1033 84.5047 70.6728C83.0122 71.3129 81.4645 72.5126 80.0134 73.0024C71.9547 68.0029 60.7953 68.0451 51.4426 69.7062C42.8933 73.7636 35.6662 79.3556 27.4043 83.9372C22.1435 86.9873 16.7041 90.1409 11.5053 93.5551C11.4351 93.6014 11.382 93.6694 11.3543 93.7488C11.3265 93.8282 11.3257 93.9145 11.3518 93.9944C11.378 94.0744 11.4297 94.1435 11.499 94.1911C11.5683 94.2387 11.6513 94.2623 11.7353 94.258C19.0539 93.7735 26.3986 94.6624 33.3903 96.8789C36.4765 97.8386 40.2594 99.3549 42.1589 102.584C41.9107 103.379 41.8046 104.211 41.8454 105.042V105.043ZM46.8946 82.9622C39.2813 84.8264 40.3721 82.1443 41.9435 75.9651C46.4087 73.506 49.9662 69.9638 55.4838 69.8327C63.8132 69.2195 72.4576 69.2455 79.3419 73.4991C76.0833 75.3473 72.8263 77.3027 69.5991 79.3632C69.0173 79.6154 68.4723 80.349 67.8506 80.2363C60.79 80.4185 53.7672 81.3315 46.8946 82.9606V82.9622ZM66.9783 81.0389C64.5337 82.6318 62.0156 84.355 59.3074 86.2882C58.4404 86.174 56.6291 86.8409 56.0664 86.1924C55.3198 85.1376 55.5298 83.3999 55.4309 82.1404C59.2573 81.5682 63.1113 81.2 66.9767 81.0374L66.9783 81.0389ZM33.6257 96.1491C27.0004 94.0594 20.0624 93.1363 13.1212 93.421C22.3436 87.5523 31.8871 82.3827 41.0236 76.5346C38.9846 83.4175 39.8738 85.5891 47.0886 83.7042C49.6116 83.1308 52.144 82.6453 54.6859 82.2477C54.66 83.1998 54.7139 84.1524 54.8468 85.0955C55.0592 87.0502 56.4167 87.5032 58.1139 87.1399C53.9737 90.1836 50.0227 93.4766 46.2829 97.0008C44.7139 98.2895 43.4276 99.8881 42.5046 101.697C40.3567 98.5446 36.4404 97.0337 33.6241 96.1476L33.6257 96.1491ZM61.4246 105.113C61.3955 105.211 61.3289 105.292 61.2395 105.341C61.1501 105.389 61.0452 105.4 60.9478 105.371C61.0444 105.252 42.5307 100.666 44.1703 108.437C44.1812 108.486 44.1823 108.537 44.1735 108.587C44.1647 108.636 44.1463 108.684 44.1192 108.726C44.0921 108.768 44.0569 108.805 44.0157 108.834C43.9744 108.863 43.9278 108.883 43.8787 108.894C43.8295 108.905 43.7786 108.906 43.7291 108.897C43.6795 108.889 43.6321 108.87 43.5896 108.843C43.5472 108.816 43.5105 108.781 43.4816 108.739C43.4527 108.698 43.4323 108.652 43.4214 108.603C42.6158 105.349 45.7977 103.024 49.8497 103.151C53.6717 103.129 57.479 103.628 61.1663 104.634C61.2145 104.649 61.2594 104.672 61.2984 104.704C61.3374 104.736 61.3698 104.775 61.3936 104.82C61.4175 104.864 61.4324 104.913 61.4374 104.963C61.4425 105.013 61.4376 105.063 61.4231 105.112L61.4246 105.113ZM72.6883 104.454C72.656 104.55 72.5867 104.63 72.4957 104.675C72.4047 104.72 72.2994 104.728 72.2031 104.695C72.1264 104.669 64.3007 102.054 58.5431 101.251C52.4245 100.399 46.1557 101.711 44.2715 104.236C43.9902 104.64 43.3471 104.173 43.6583 103.776C46.0162 100.614 53.1382 99.722 58.6505 100.49C64.4762 101.303 72.3717 103.94 72.4484 103.966C72.5443 103.999 72.6233 104.069 72.668 104.16C72.7127 104.251 72.7195 104.356 72.6868 104.452L72.6883 104.454ZM84.4165 106.644C81.8806 104.529 78.9651 102.916 75.8258 101.891C70.1632 99.8622 64.1847 98.857 58.1698 98.9225C53.9109 99.144 44.6717 99.5357 42.5966 104.386C42.7308 101.641 44.6479 99.4936 46.8057 97.5634C56.9541 87.8359 72.4215 77.9397 84.5629 71.493C87.5095 69.9216 91.527 69.3107 96.495 69.674C96.2083 70.0964 95.9515 71.5 95.4495 71.3183C92.721 70.9514 89.9595 70.8984 87.219 71.1604C87.1687 71.1647 87.1197 71.1789 87.0749 71.2022C87.03 71.2254 86.9902 71.2573 86.9576 71.2959C86.9251 71.3346 86.9005 71.3793 86.8853 71.4274C86.87 71.4756 86.8644 71.5263 86.8687 71.5766C86.8774 71.6783 86.9262 71.7723 87.0043 71.838C87.0429 71.8705 87.0876 71.8951 87.1358 71.9104C87.1839 71.9256 87.2346 71.9312 87.2849 71.9269C89.9425 71.6733 92.6203 71.7217 95.267 72.071C94.7949 72.8398 94.2633 73.5705 93.6772 74.2565C93.6208 74.1823 93.5388 74.1317 93.4472 74.1146C90.6442 73.6445 87.7895 73.5648 84.9646 73.8778C84.9143 73.8833 84.8655 73.8986 84.8211 73.9229C84.7767 73.9473 84.7375 73.9801 84.7058 74.0196C84.6741 74.0591 84.6505 74.1044 84.6363 74.153C84.6221 74.2016 84.6176 74.2525 84.6231 74.3028C84.6286 74.3532 84.6439 74.4019 84.6683 74.4463C84.6926 74.4907 84.7254 74.5299 84.7649 74.5616C84.8044 74.5933 84.8497 74.617 84.8983 74.6311C84.9469 74.6453 84.9978 74.6498 85.0481 74.6443C87.7683 74.3435 90.5168 74.416 93.2173 74.8597C92.6086 75.4952 91.8505 76.711 90.9943 76.8397C90.7704 76.7186 82.2387 74.8812 84.5116 76.5837C86.4786 76.7165 88.431 77.0147 90.3481 77.4752C89.4665 78.2326 88.03 78.0218 87.16 78.7285C86.7185 78.9087 86.4333 79.4261 86.6786 79.7473C85.8354 79.6123 79.6969 78.4441 79.6578 79.459C79.6578 79.5607 79.6981 79.6582 79.77 79.73C79.8419 79.8019 79.9394 79.8423 80.041 79.8423C81.0268 79.9519 87.4168 79.8369 86.0822 81.0297C85.7503 81.5027 85.6376 82.5674 86.4011 82.6341C86.5897 82.562 86.4172 83.153 86.6088 83.3523C81.5694 81.4173 76.1515 80.671 70.7765 81.1715C70.6749 81.1811 70.5812 81.2306 70.5161 81.3092C70.4509 81.3879 70.4197 81.4892 70.4293 81.5908C70.4388 81.6925 70.4884 81.7862 70.567 81.8513C70.6456 81.9164 70.7469 81.9476 70.8486 81.9381C81.5159 80.8381 91.8942 85.1767 99.2738 92.6429C99.3487 92.6431 99.422 92.6213 99.4847 92.5803C99.5474 92.5392 99.5966 92.4807 99.6264 92.4119C99.6562 92.3432 99.6651 92.2672 99.6522 92.1934C99.6393 92.1196 99.605 92.0512 99.5536 91.9967C96.1446 88.3908 92.0035 85.556 87.4083 83.6827C87.6052 83.5875 87.7691 83.4356 87.879 83.2466C87.8846 83.3758 87.9274 83.5007 88.0023 83.6062C88.0772 83.7117 88.1811 83.7933 88.3013 83.8411C88.4216 83.8889 88.5531 83.9009 88.68 83.8757C88.8069 83.8504 88.9238 83.789 89.0166 83.6988C89.6292 83.0007 90.3218 82.377 91.0801 81.8407C94.9541 83.3627 98.4496 85.7113 101.323 88.7228C101.357 88.7612 101.398 88.7923 101.445 88.8143C101.491 88.8363 101.542 88.8488 101.593 88.851C101.644 88.8531 101.695 88.845 101.744 88.8269C101.792 88.8089 101.836 88.7814 101.873 88.746C101.91 88.7107 101.94 88.6682 101.96 88.6211C101.981 88.574 101.992 88.5233 101.992 88.4719C101.993 88.4205 101.983 88.3696 101.964 88.3221C101.944 88.2746 101.915 88.2315 101.879 88.1954C99.1777 85.3684 95.9393 83.1097 92.3534 81.5517C94.2049 81.4042 96.0169 80.9374 97.7093 80.1719C100.678 81.6684 103.415 83.5862 105.835 85.8659C105.871 85.9021 105.914 85.9308 105.962 85.9501C106.009 85.9694 106.06 85.979 106.111 85.9782C106.163 85.9775 106.213 85.9665 106.26 85.9459C106.307 85.9252 106.349 85.8953 106.385 85.858C106.42 85.8207 106.447 85.7768 106.465 85.7287C106.483 85.6806 106.491 85.6295 106.489 85.5782C106.487 85.527 106.474 85.4767 106.452 85.4304C106.43 85.3841 106.399 85.3427 106.361 85.3086C104.037 83.1217 101.427 81.2597 98.6038 79.7733C99.8721 79.1912 101.089 78.5033 102.242 77.7167C105.117 79.1276 107.766 80.9596 110.101 83.1523C110.455 83.4988 110.995 82.93 110.626 82.5942C108.336 80.4465 105.752 78.6366 102.951 77.2192C103.865 76.5407 104.721 75.7882 105.511 74.9694C108.178 76.1585 110.693 77.6646 113 79.4552C113.04 79.4858 113.086 79.5081 113.135 79.5209C113.184 79.5337 113.234 79.5368 113.285 79.5299C113.335 79.523 113.383 79.5064 113.427 79.4809C113.47 79.4553 113.508 79.4215 113.539 79.3812C113.569 79.341 113.592 79.2951 113.605 79.2462C113.617 79.1973 113.62 79.1464 113.614 79.0963C113.607 79.0462 113.59 78.998 113.565 78.9543C113.539 78.9107 113.505 78.8725 113.465 78.842C111.182 77.0715 108.701 75.5716 106.072 74.3722C106.804 73.5545 107.465 72.6759 108.048 71.746C112.66 73.1986 117.047 75.2902 121.079 77.9597C118.906 79.1639 109.198 87.005 105.39 89.7806C103.836 90.9197 84.4962 106.558 84.4165 106.642V106.644ZM89.3822 80.73C88.6532 80.2585 87.5187 82.1972 87.2796 82.7054C87.4958 81.8521 87.9773 81.0896 88.6548 80.5276C88.7289 80.4648 88.7768 80.3765 88.7889 80.2801C88.801 80.1837 88.7765 80.0862 88.7202 80.007C88.664 79.9278 88.58 79.8726 88.485 79.8523C88.39 79.832 88.2908 79.8482 88.2071 79.8975C88.4162 79.7715 88.636 79.6643 88.864 79.5771C88.9412 79.5472 89.0067 79.4932 89.0506 79.4231C89.0946 79.353 89.1146 79.2705 89.1078 79.188C89.101 79.1056 89.0677 79.0275 89.0128 78.9655C88.9579 78.9036 88.8845 78.861 88.8035 78.8443C90.1541 78.2226 91.2564 79.5342 91.4665 80.7277C90.3776 81.2669 89.4224 82.0417 88.6701 82.9959C88.7746 82.3565 89.0317 81.7517 89.4198 81.2328C89.4755 81.1583 89.5022 81.0659 89.4949 80.9731C89.4876 80.8803 89.4467 80.7933 89.3799 80.7284L89.3822 80.73ZM85.7127 115.948L85.4368 112.024C87.5621 110.107 89.8467 108.373 92.266 106.842C92.3518 106.788 92.4124 106.701 92.4344 106.602C92.4565 106.503 92.4382 106.399 92.3836 106.313C92.3291 106.227 92.2426 106.167 92.1434 106.145C92.0441 106.123 91.9401 106.141 91.8543 106.196C89.5686 107.645 87.4003 109.272 85.3693 111.061L85.2689 109.631L104.013 94.3301C104.052 94.2982 104.085 94.259 104.109 94.2147C104.132 94.1703 104.147 94.1217 104.152 94.0716C104.157 94.0214 104.153 93.9708 104.138 93.9226C104.124 93.8744 104.1 93.8295 104.068 93.7905C104.036 93.7514 103.997 93.7191 103.952 93.6953C103.908 93.6714 103.859 93.6565 103.809 93.6515C103.759 93.6464 103.709 93.6513 103.66 93.6658C103.612 93.6803 103.567 93.7042 103.528 93.736L85.203 108.697L85.0987 107.214C94.9512 99.5925 95.3904 98.0808 112.609 85.2657C114.636 83.6889 119.15 80.011 121.333 78.6733C121.107 79.9783 120.989 81.2998 120.982 82.6241L111.207 90.5525C111.145 90.6025 111.101 90.6702 111.079 90.7464C111.058 90.8226 111.061 90.9035 111.087 90.9781C111.114 91.0527 111.163 91.1173 111.227 91.1629C111.292 91.2086 111.369 91.2332 111.448 91.2332C111.654 91.2332 110.918 91.7698 120.953 83.6383C120.938 84.0783 120.923 84.4393 120.91 84.5037C120.181 85.4006 92.5918 109.84 85.7127 115.946V115.948ZM131.903 106.514L134.475 106.649C134.234 109.886 132.951 112.958 130.817 115.405C130.255 114.94 128.748 113.105 128.187 113.758C128.132 113.843 128.114 113.947 128.136 114.046C128.158 114.146 128.219 114.232 128.305 114.286C129.034 114.765 129.704 115.33 130.298 115.969C128.171 118.15 125.508 119.733 122.576 120.559L121.9 118.126C121.871 118.031 121.805 117.951 121.718 117.903C121.63 117.855 121.527 117.843 121.431 117.87C121.335 117.897 121.253 117.96 121.203 118.046C121.153 118.132 121.138 118.235 121.162 118.332L121.844 120.785C118.956 121.54 115.972 121.859 112.99 121.728L113.378 119.134C113.389 119.036 113.361 118.938 113.3 118.86C113.24 118.781 113.152 118.73 113.054 118.715C112.956 118.7 112.857 118.724 112.776 118.781C112.695 118.838 112.64 118.924 112.621 119.021L112.216 121.719C109.805 121.683 107.398 121.52 105.004 121.231C107.059 111.062 108.878 102.852 110.89 94.662C113.113 92.4873 115.217 90.7948 116.675 89.4196C116.867 89.8335 117.493 89.7001 117.864 89.8351C117.772 90.4322 117.033 92.6521 117.886 92.7824C117.987 92.7824 118.085 92.7421 118.157 92.6702C118.229 92.5983 118.269 92.5008 118.269 92.3992C118.275 91.5812 118.393 90.768 118.62 89.9822C120.872 90.4183 123.069 91.1021 125.17 92.0213L123.839 94.2167C123.813 94.2597 123.796 94.3075 123.788 94.3573C123.781 94.4071 123.783 94.4579 123.795 94.5068C123.807 94.5557 123.829 94.6018 123.859 94.6423C123.888 94.6829 123.926 94.7172 123.969 94.7433C124.012 94.7694 124.06 94.7867 124.11 94.7943C124.159 94.8019 124.21 94.7996 124.259 94.7876C124.308 94.7755 124.354 94.754 124.395 94.7242C124.435 94.6943 124.47 94.6568 124.496 94.6137L125.868 92.3493C128.768 93.8119 130.901 95.5213 132.375 97.9881L130.433 98.9585C130.386 98.9801 130.344 99.0107 130.31 99.0487C130.275 99.0867 130.249 99.1312 130.232 99.1797C130.215 99.2281 130.207 99.2795 130.211 99.3307C130.214 99.3819 130.227 99.432 130.25 99.4779C130.273 99.5238 130.305 99.5646 130.344 99.598C130.383 99.6313 130.429 99.6564 130.478 99.6719C130.527 99.6874 130.578 99.6929 130.629 99.6881C130.68 99.6832 130.73 99.6682 130.775 99.6438L132.754 98.6558C133.947 100.873 134.548 103.36 134.498 105.877L131.943 105.743C131.841 105.738 131.742 105.773 131.666 105.842C131.59 105.91 131.544 106.005 131.539 106.107C131.533 106.209 131.569 106.309 131.637 106.385C131.705 106.461 131.801 106.507 131.903 106.512V106.514Z" fill="black"/>
</svg>
